<svg xmlns="http://www.w3.org/2000/svg" xmlns:svgjs="http://svgjs.com/svgjs" xmlns:xlink="http://www.w3.org/1999/xlink" id="SvgjsSvg1006" width="961.869" height="1113" version="1.1"><defs id="SvgjsDefs1007"><marker id="SvgjsMarker1371" stroke-dasharray="0 0" markerHeight="12" markerUnits="userSpaceOnUse" markerWidth="16" orient="auto" refX="16" refY="6" viewBox="0 0 16 12"><path id="SvgjsPath1372" fill="#b8b8b8" stroke="#b8b8b8" stroke-width="2" d="M0,2 L14,6 L0,11 L0,2"/></marker><marker id="SvgjsMarker1375" stroke-dasharray="0 0" markerHeight="12" markerUnits="userSpaceOnUse" markerWidth="16" orient="auto" refX="16" refY="6" viewBox="0 0 16 12"><path id="SvgjsPath1376" fill="#b8b8b8" stroke="#b8b8b8" stroke-width="2" d="M0,2 L14,6 L0,11 L0,2"/></marker><marker id="SvgjsMarker1379" stroke-dasharray="0 0" markerHeight="12" markerUnits="userSpaceOnUse" markerWidth="16" orient="auto" refX="16" refY="6" viewBox="0 0 16 12"><path id="SvgjsPath1380" fill="#b8b8b8" stroke="#b8b8b8" stroke-width="2" d="M0,2 L14,6 L0,11 L0,2"/></marker><marker id="SvgjsMarker1403" stroke-dasharray="0 0" markerHeight="12" markerUnits="userSpaceOnUse" markerWidth="16" orient="auto" refX="16" refY="6" viewBox="0 0 16 12"><path id="SvgjsPath1404" fill="#b8b8b8" stroke="#b8b8b8" stroke-width="2" d="M0,2 L14,6 L0,11 L0,2"/></marker><marker id="SvgjsMarker1407" stroke-dasharray="0 0" markerHeight="12" markerUnits="userSpaceOnUse" markerWidth="16" orient="auto" refX="16" refY="6" viewBox="0 0 16 12"><path id="SvgjsPath1408" fill="#b8b8b8" stroke="#b8b8b8" stroke-width="2" d="M0,2 L14,6 L0,11 L0,2"/></marker><marker id="SvgjsMarker1421" stroke-dasharray="0 0" markerHeight="12" markerUnits="userSpaceOnUse" markerWidth="16" orient="auto" refX="16" refY="6" viewBox="0 0 16 12"><path id="SvgjsPath1422" fill="#b8b8b8" stroke="#b8b8b8" stroke-width="2" d="M0,2 L14,6 L0,11 L0,2"/></marker><marker id="SvgjsMarker1433" stroke-dasharray="0 0" markerHeight="12" markerUnits="userSpaceOnUse" markerWidth="16" orient="auto" refX="16" refY="6" viewBox="0 0 16 12"><path id="SvgjsPath1434" fill="#b8b8b8" stroke="#b8b8b8" stroke-width="2" d="M0,2 L14,6 L0,11 L0,2"/></marker><marker id="SvgjsMarker1445" stroke-dasharray="0 0" markerHeight="12" markerUnits="userSpaceOnUse" markerWidth="16" orient="auto" refX="16" refY="6" viewBox="0 0 16 12"><path id="SvgjsPath1446" fill="#b8b8b8" stroke="#b8b8b8" stroke-width="2" d="M0,2 L14,6 L0,11 L0,2"/></marker><marker id="SvgjsMarker1449" stroke-dasharray="0 0" markerHeight="12" markerUnits="userSpaceOnUse" markerWidth="16" orient="auto" refX="16" refY="6" viewBox="0 0 16 12"><path id="SvgjsPath1450" fill="#b8b8b8" stroke="#b8b8b8" stroke-width="2" d="M0,2 L14,6 L0,11 L0,2"/></marker><marker id="SvgjsMarker1453" stroke-dasharray="0 0" markerHeight="12" markerUnits="userSpaceOnUse" markerWidth="16" orient="auto" refX="16" refY="6" viewBox="0 0 16 12"><path id="SvgjsPath1454" fill="#b8b8b8" stroke="#b8b8b8" stroke-width="2" d="M0,2 L14,6 L0,11 L0,2"/></marker></defs><rect id="SvgjsRect1008" width="961.869" height="1113" fill="#2f2f2f"/><g id="SvgjsG1009" transform="translate(33.65654135864506,65.01352091188784)"><path id="SvgjsPath1010" fill="none" stroke="rgba(184,184,184,1)" stroke-dasharray="3 4" stroke-width="2" d="M 0 0L 882.0205650800538 0L 882.0205650800538 1016.9135675077084L 0 1016.9135675077084Z"/></g><g id="SvgjsG1013" transform="translate(25.0091064829885,25.013520911887838)"><path id="SvgjsPath1014" fill="none" stroke="rgba(184,184,184,1)" stroke-dasharray="3 4" stroke-width="2" d="M 0 0L 897.2699276017554 0L 897.2699276017554 1062.3586155220314L 0 1062.3586155220314Z"/></g><g id="SvgjsG1017" transform="translate(43.42454208562401,804.5419837103949)"><path id="SvgjsPath1018" fill="none" stroke="rgba(184,184,184,1)" stroke-dasharray="3 4" stroke-width="2" d="M 0 0L 247.5221435170115 0L 247.5221435170115 261.1818141937256L 0 261.1818141937256Z"/></g><g id="SvgjsG1021" transform="translate(25.0091064829885,25.013520911887838)"><path id="SvgjsPath1022" fill="none" stroke="none" d="M 0 0L 120 0L 120 40L 0 40Z"/><g id="SvgjsG1023"><text id="SvgjsText1024" width="120" y="10.55" fill="#b8b8b8" align="middle" anchor="middle" family="Arial" font-family="Arial" font-size="13" font-weight="400" opacity="1" size="13" text-anchor="middle" transform="rotate(0)" weight="400"><tspan id="SvgjsTspan1025" x="60" dy="16"><tspan id="SvgjsTspan1026">Distributed world</tspan></tspan></text></g></g><g id="SvgjsG1027" transform="translate(62.92454208562404,860.4510565863715)"><path id="SvgjsPath1028" fill="none" stroke="rgba(184,184,184,1)" stroke-width="2" d="M 0 0L 208.5221435170115 0L 208.5221435170115 129L 0 129Z"/></g><g id="SvgjsG1031" transform="translate(62.92454208562404,860.4510565863715)"><path id="SvgjsPath1032" fill="none" stroke="none" d="M 0 0L 59.5221435170115 0L 59.5221435170115 34L 0 34Z"/><g id="SvgjsG1033"><text id="SvgjsText1034" width="60" y="7.55" fill="#b8b8b8" align="middle" anchor="middle" family="Arial" font-family="Arial" font-size="13" font-weight="400" opacity="1" size="13" text-anchor="middle" transform="rotate(0)" weight="400"><tspan id="SvgjsTspan1035" x="30" dy="16"><tspan id="SvgjsTspan1036">A3C</tspan></tspan></text></g></g><g id="SvgjsG1037" transform="translate(78.4053706706195,903.5564067873179)"><path id="SvgjsPath1038" fill="none" stroke="rgba(184,184,184,1)" stroke-width="2" d="M 0 0L 93.07692307692264 0L 93.07692307692264 28.84615384615398L 0 28.84615384615398Z"/><g id="SvgjsG1039"><text id="SvgjsText1040" width="74" y="4.973" fill="#b8b8b8" align="middle" anchor="middle" family="Arial" font-family="Arial" font-size="13" font-weight="400" opacity="1" size="13" text-anchor="middle" transform="rotate(0)" weight="400"><tspan id="SvgjsTspan1041" x="47" dy="16"><tspan id="SvgjsTspan1042">Actor</tspan></tspan></text></g></g><g id="SvgjsG1043" transform="translate(78.4053706706195,940.5564067873179)"><path id="SvgjsPath1044" fill="none" stroke="rgba(184,184,184,1)" stroke-width="2" d="M 0 0L 93.07692307692264 0L 93.07692307692264 28.84615384615398L 0 28.84615384615398Z"/><g id="SvgjsG1045"><text id="SvgjsText1046" width="74" y="4.973" fill="#b8b8b8" align="middle" anchor="middle" family="Arial" font-family="Arial" font-size="13" font-weight="400" opacity="1" size="13" text-anchor="middle" transform="rotate(0)" weight="400"><tspan id="SvgjsTspan1047" x="47" dy="16"><tspan id="SvgjsTspan1048">Critic</tspan></tspan></text></g></g><g id="SvgjsG1049" transform="translate(188.4053706706195,915.710252941164)"><path id="SvgjsPath1050" fill="none" stroke="rgba(184,184,184,1)" stroke-width="2" d="M 0 0L 65.04131493201601 0L 65.04131493201601 34.286259577824694L 0 34.286259577824694Z"/><g id="SvgjsG1051"><text id="SvgjsText1052" width="46" y="7.693" fill="#b8b8b8" align="middle" anchor="middle" family="Arial" font-family="Arial" font-size="13" font-weight="400" opacity="1" size="13" text-anchor="middle" transform="rotate(0)" weight="400"><tspan id="SvgjsTspan1053" x="33" dy="16"><tspan id="SvgjsTspan1054">Buffer</tspan></tspan></text></g></g><g id="SvgjsG1055" transform="translate(89.94383220908082,1007.4510565863716)"><path id="SvgjsPath1056" fill="none" stroke="rgba(184,184,184,1)" stroke-width="2" d="M 0 20C 0 -6.666666666666666 40 -6.666666666666666 40 20C 40 46.66666666666667 0 46.66666666666667 0 20ZM 20 0L 26 5M 20 0L 26 -5"/></g><g id="SvgjsG1059" transform="translate(43.42454208562401,804.5419837103949)"><path id="SvgjsPath1060" fill="none" stroke="none" d="M 0 0L 84 0L 84 51.363630294799805L 0 51.363630294799805Z"/><g id="SvgjsG1061"><text id="SvgjsText1062" width="84" y="8.232" fill="#b8b8b8" align="middle" anchor="middle" family="Arial" font-family="Arial" font-size="13" font-weight="400" opacity="1" size="13" text-anchor="middle" transform="rotate(0)" weight="400"><tspan id="SvgjsTspan1063" x="42" dy="16"><tspan id="SvgjsTspan1064">Process </tspan></tspan><tspan id="SvgjsTspan1065" x="42" dy="16"><tspan id="SvgjsTspan1066">worker:0</tspan></tspan></text></g></g><g id="SvgjsG1067" transform="translate(127.42454208562401,1007.4510565863716)"><path id="SvgjsPath1068" fill="none" stroke="none" d="M 0 0L 120 0L 120 40L 0 40Z"/><g id="SvgjsG1069"><text id="SvgjsText1070" width="120" y="10.55" fill="#b8b8b8" align="middle" anchor="middle" family="Arial" font-family="Arial" font-size="13" font-weight="400" opacity="1" size="13" text-anchor="middle" transform="rotate(0)" weight="400"><tspan id="SvgjsTspan1071" x="60" dy="16"><tspan id="SvgjsTspan1072">Sample-Update</tspan></tspan></text></g></g><g id="SvgjsG1073" transform="translate(656.4245420856239,804.5419837103949)"><path id="SvgjsPath1074" fill="none" stroke="rgba(184,184,184,1)" stroke-dasharray="3 4" stroke-width="2" d="M 0 0L 247.5221435170115 0L 247.5221435170115 261.1818141937256L 0 261.1818141937256Z"/></g><g id="SvgjsG1077" transform="translate(675.9245420856239,860.4510565863715)"><path id="SvgjsPath1078" fill="none" stroke="rgba(184,184,184,1)" stroke-width="2" d="M 0 0L 208.5221435170115 0L 208.5221435170115 129L 0 129Z"/></g><g id="SvgjsG1081" transform="translate(675.9245420856239,860.4510565863715)"><path id="SvgjsPath1082" fill="none" stroke="none" d="M 0 0L 59.5221435170115 0L 59.5221435170115 34L 0 34Z"/><g id="SvgjsG1083"><text id="SvgjsText1084" width="60" y="7.55" fill="#b8b8b8" align="middle" anchor="middle" family="Arial" font-family="Arial" font-size="13" font-weight="400" opacity="1" size="13" text-anchor="middle" transform="rotate(0)" weight="400"><tspan id="SvgjsTspan1085" x="30" dy="16"><tspan id="SvgjsTspan1086">A3C</tspan></tspan></text></g></g><g id="SvgjsG1087" transform="translate(691.4053706706194,903.5564067873179)"><path id="SvgjsPath1088" fill="none" stroke="rgba(184,184,184,1)" stroke-width="2" d="M 0 0L 93.07692307692264 0L 93.07692307692264 28.84615384615398L 0 28.84615384615398Z"/><g id="SvgjsG1089"><text id="SvgjsText1090" width="74" y="4.973" fill="#b8b8b8" align="middle" anchor="middle" family="Arial" font-family="Arial" font-size="13" font-weight="400" opacity="1" size="13" text-anchor="middle" transform="rotate(0)" weight="400"><tspan id="SvgjsTspan1091" x="47" dy="16"><tspan id="SvgjsTspan1092">Actor</tspan></tspan></text></g></g><g id="SvgjsG1093" transform="translate(691.4053706706194,940.5564067873179)"><path id="SvgjsPath1094" fill="none" stroke="rgba(184,184,184,1)" stroke-width="2" d="M 0 0L 93.07692307692264 0L 93.07692307692264 28.84615384615398L 0 28.84615384615398Z"/><g id="SvgjsG1095"><text id="SvgjsText1096" width="74" y="4.973" fill="#b8b8b8" align="middle" anchor="middle" family="Arial" font-family="Arial" font-size="13" font-weight="400" opacity="1" size="13" text-anchor="middle" transform="rotate(0)" weight="400"><tspan id="SvgjsTspan1097" x="47" dy="16"><tspan id="SvgjsTspan1098">Critic</tspan></tspan></text></g></g><g id="SvgjsG1099" transform="translate(801.4053706706193,915.710252941164)"><path id="SvgjsPath1100" fill="none" stroke="rgba(184,184,184,1)" stroke-width="2" d="M 0 0L 65.04131493201601 0L 65.04131493201601 34.286259577824694L 0 34.286259577824694Z"/><g id="SvgjsG1101"><text id="SvgjsText1102" width="46" y="7.693" fill="#b8b8b8" align="middle" anchor="middle" family="Arial" font-family="Arial" font-size="13" font-weight="400" opacity="1" size="13" text-anchor="middle" transform="rotate(0)" weight="400"><tspan id="SvgjsTspan1103" x="33" dy="16"><tspan id="SvgjsTspan1104">Buffer</tspan></tspan></text></g></g><g id="SvgjsG1105" transform="translate(702.9438322090807,1007.4510565863716)"><path id="SvgjsPath1106" fill="none" stroke="rgba(184,184,184,1)" stroke-width="2" d="M 0 20C 0 -6.666666666666666 40 -6.666666666666666 40 20C 40 46.66666666666667 0 46.66666666666667 0 20ZM 20 0L 26 5M 20 0L 26 -5"/></g><g id="SvgjsG1109" transform="translate(656.4245420856239,804.5419837103949)"><path id="SvgjsPath1110" fill="none" stroke="none" d="M 0 0L 84 0L 84 51.363630294799805L 0 51.363630294799805Z"/><g id="SvgjsG1111"><text id="SvgjsText1112" width="84" y="8.232" fill="#b8b8b8" align="middle" anchor="middle" family="Arial" font-family="Arial" font-size="13" font-weight="400" opacity="1" size="13" text-anchor="middle" transform="rotate(0)" weight="400"><tspan id="SvgjsTspan1113" x="42" dy="16"><tspan id="SvgjsTspan1114">Process</tspan></tspan><tspan id="SvgjsTspan1115" x="42" dy="16"><tspan id="SvgjsTspan1116">worker:n</tspan></tspan></text></g></g><g id="SvgjsG1117" transform="translate(740.4245420856239,1007.4510565863716)"><path id="SvgjsPath1118" fill="none" stroke="none" d="M 0 0L 120 0L 120 40L 0 40Z"/><g id="SvgjsG1119"><text id="SvgjsText1120" width="120" y="10.55" fill="#b8b8b8" align="middle" anchor="middle" family="Arial" font-family="Arial" font-size="13" font-weight="400" opacity="1" size="13" text-anchor="middle" transform="rotate(0)" weight="400"><tspan id="SvgjsTspan1121" x="60" dy="16"><tspan id="SvgjsTspan1122">Sample-Update</tspan></tspan></text></g></g><g id="SvgjsG1123" transform="translate(309.424542085624,804.5419837103949)"><path id="SvgjsPath1124" fill="none" stroke="rgba(184,184,184,1)" stroke-dasharray="3 4" stroke-width="2" d="M 0 0L 247.5221435170115 0L 247.5221435170115 261.1818141937256L 0 261.1818141937256Z"/></g><g id="SvgjsG1127" transform="translate(328.9245420856239,860.4510565863715)"><path id="SvgjsPath1128" fill="none" stroke="rgba(184,184,184,1)" stroke-width="2" d="M 0 0L 208.5221435170115 0L 208.5221435170115 129L 0 129Z"/></g><g id="SvgjsG1131" transform="translate(328.9245420856239,860.4510565863715)"><path id="SvgjsPath1132" fill="none" stroke="none" d="M 0 0L 59.5221435170115 0L 59.5221435170115 34L 0 34Z"/><g id="SvgjsG1133"><text id="SvgjsText1134" width="60" y="7.55" fill="#b8b8b8" align="middle" anchor="middle" family="Arial" font-family="Arial" font-size="13" font-weight="400" opacity="1" size="13" text-anchor="middle" transform="rotate(0)" weight="400"><tspan id="SvgjsTspan1135" x="30" dy="16"><tspan id="SvgjsTspan1136">A3C</tspan></tspan></text></g></g><g id="SvgjsG1137" transform="translate(344.4053706706194,903.5564067873179)"><path id="SvgjsPath1138" fill="none" stroke="rgba(184,184,184,1)" stroke-width="2" d="M 0 0L 93.07692307692264 0L 93.07692307692264 28.84615384615398L 0 28.84615384615398Z"/><g id="SvgjsG1139"><text id="SvgjsText1140" width="74" y="4.973" fill="#b8b8b8" align="middle" anchor="middle" family="Arial" font-family="Arial" font-size="13" font-weight="400" opacity="1" size="13" text-anchor="middle" transform="rotate(0)" weight="400"><tspan id="SvgjsTspan1141" x="47" dy="16"><tspan id="SvgjsTspan1142">Actor</tspan></tspan></text></g></g><g id="SvgjsG1143" transform="translate(344.4053706706194,940.5564067873179)"><path id="SvgjsPath1144" fill="none" stroke="rgba(184,184,184,1)" stroke-width="2" d="M 0 0L 93.07692307692264 0L 93.07692307692264 28.84615384615398L 0 28.84615384615398Z"/><g id="SvgjsG1145"><text id="SvgjsText1146" width="74" y="4.973" fill="#b8b8b8" align="middle" anchor="middle" family="Arial" font-family="Arial" font-size="13" font-weight="400" opacity="1" size="13" text-anchor="middle" transform="rotate(0)" weight="400"><tspan id="SvgjsTspan1147" x="47" dy="16"><tspan id="SvgjsTspan1148">Critic</tspan></tspan></text></g></g><g id="SvgjsG1149" transform="translate(454.4053706706194,915.710252941164)"><path id="SvgjsPath1150" fill="none" stroke="rgba(184,184,184,1)" stroke-width="2" d="M 0 0L 65.04131493201601 0L 65.04131493201601 34.286259577824694L 0 34.286259577824694Z"/><g id="SvgjsG1151"><text id="SvgjsText1152" width="46" y="7.693" fill="#b8b8b8" align="middle" anchor="middle" family="Arial" font-family="Arial" font-size="13" font-weight="400" opacity="1" size="13" text-anchor="middle" transform="rotate(0)" weight="400"><tspan id="SvgjsTspan1153" x="33" dy="16"><tspan id="SvgjsTspan1154">Buffer</tspan></tspan></text></g></g><g id="SvgjsG1155" transform="translate(355.9438322090807,1007.4510565863716)"><path id="SvgjsPath1156" fill="none" stroke="rgba(184,184,184,1)" stroke-width="2" d="M 0 20C 0 -6.666666666666666 40 -6.666666666666666 40 20C 40 46.66666666666667 0 46.66666666666667 0 20ZM 20 0L 26 5M 20 0L 26 -5"/></g><g id="SvgjsG1159" transform="translate(309.424542085624,804.5419837103949)"><path id="SvgjsPath1160" fill="none" stroke="none" d="M 0 0L 84 0L 84 51.363630294799805L 0 51.363630294799805Z"/><g id="SvgjsG1161"><text id="SvgjsText1162" width="84" y="8.232" fill="#b8b8b8" align="middle" anchor="middle" family="Arial" font-family="Arial" font-size="13" font-weight="400" opacity="1" size="13" text-anchor="middle" transform="rotate(0)" weight="400"><tspan id="SvgjsTspan1163" x="42" dy="16"><tspan id="SvgjsTspan1164">Process</tspan></tspan><tspan id="SvgjsTspan1165" x="42" dy="16"><tspan id="SvgjsTspan1166">worker:1</tspan></tspan></text></g></g><g id="SvgjsG1167" transform="translate(393.4245420856239,1007.4510565863716)"><path id="SvgjsPath1168" fill="none" stroke="none" d="M 0 0L 120 0L 120 40L 0 40Z"/><g id="SvgjsG1169"><text id="SvgjsText1170" width="120" y="10.55" fill="#b8b8b8" align="middle" anchor="middle" family="Arial" font-family="Arial" font-size="13" font-weight="400" opacity="1" size="13" text-anchor="middle" transform="rotate(0)" weight="400"><tspan id="SvgjsTspan1171" x="60" dy="16"><tspan id="SvgjsTspan1172">Sample-Update</tspan></tspan></text></g></g><g id="SvgjsG1173" transform="translate(547.2194059395495,909.9965125189887)"><path id="SvgjsPath1174" fill="none" stroke="none" d="M 0 0L 120 0L 120 40L 0 40Z"/><g id="SvgjsG1175"><text id="SvgjsText1176" width="120" y="7.6" fill="#b8b8b8" align="middle" anchor="middle" family="Arial" font-family="Arial" font-size="16" font-weight="700" opacity="1" size="16" text-anchor="middle" transform="rotate(0)" weight="700"><tspan id="SvgjsTspan1177" x="60" dy="20"><tspan id="SvgjsTspan1178">... ... ...</tspan></tspan></text></g></g><g id="SvgjsG1179" transform="translate(146.89799537187758,325.3399635083748)"><path id="SvgjsPath1180" fill="none" stroke="rgba(184,184,184,1)" stroke-dasharray="3 4" stroke-width="2" d="M 0 0L 247.5221435170115 0L 247.5221435170115 261.1818141937256L 0 261.1818141937256Z"/></g><g id="SvgjsG1183" transform="translate(166.39799537187758,381.24903638435137)"><path id="SvgjsPath1184" fill="none" stroke="rgba(184,184,184,1)" stroke-width="2" d="M 0 0L 208.5221435170116 0L 208.5221435170116 134.31067341505883L 0 134.31067341505883Z"/></g><g id="SvgjsG1187" transform="translate(166.39799537187758,381.24903638435137)"><path id="SvgjsPath1188" fill="none" stroke="none" d="M 0 0L 163.1991046259031 0L 163.1991046259031 32.161915133697846L 0 32.161915133697846Z"/><g id="SvgjsG1189"><text id="SvgjsText1190" width="164" y="6.631" fill="#b8b8b8" align="middle" anchor="middle" family="Arial" font-family="Arial" font-size="13" font-weight="400" opacity="1" size="13" text-anchor="middle" transform="rotate(0)" weight="400"><tspan id="SvgjsTspan1191" x="82" dy="16"><tspan id="SvgjsTspan1192">PushPullGradServer</tspan></tspan></text></g></g><g id="SvgjsG1193" transform="translate(183.68197947903684,460.7446522266422)"><path id="SvgjsPath1194" fill="none" stroke="rgba(184,184,184,1)" stroke-width="2" d="M 0 0L 93.07692307692264 0L 93.07692307692264 34.783837660024346L 0 34.783837660024346Z"/><g id="SvgjsG1195"><text id="SvgjsText1196" width="74" y="-.058" fill="#b8b8b8" align="middle" anchor="middle" family="Arial" font-family="Arial" font-size="13" font-weight="400" opacity="1" size="13" text-anchor="middle" transform="rotate(0)" weight="400"><tspan id="SvgjsTspan1197" x="47" dy="16"><tspan id="SvgjsTspan1198">Secondary</tspan></tspan><tspan id="SvgjsTspan1199" x="47" dy="16"><tspan id="SvgjsTspan1200">Queue</tspan></tspan></text></g></g><g id="SvgjsG1201" transform="translate(296.12575215581694,467.0367986666439)"><path id="SvgjsPath1202" fill="none" stroke="rgba(184,184,184,1)" stroke-width="2" d="M 0 0L 64.9910033136349 0L 64.9910033136349 43.266355142541784L 0 43.266355142541784Z"/><g id="SvgjsG1203"><text id="SvgjsText1204" width="45" y="4.183" fill="#b8b8b8" align="middle" anchor="middle" family="Arial" font-family="Arial" font-size="13" font-weight="400" opacity="1" size="13" text-anchor="middle" transform="rotate(0)" weight="400"><tspan id="SvgjsTspan1205" x="32.5" dy="16"><tspan id="SvgjsTspan1206">Reduce</tspan></tspan><tspan id="SvgjsTspan1207" x="32.5" dy="16"><tspan id="SvgjsTspan1208">Thread</tspan></tspan></text></g></g><g id="SvgjsG1209" transform="translate(193.4172854953344,528.2490363843513)"><path id="SvgjsPath1210" fill="none" stroke="rgba(184,184,184,1)" stroke-width="2" d="M 0 20C 0 -6.666666666666666 40 -6.666666666666666 40 20C 40 46.66666666666667 0 46.66666666666667 0 20ZM 20 0L 26 5M 20 0L 26 -5"/></g><g id="SvgjsG1213" transform="translate(146.89799537187758,325.3399635083748)"><path id="SvgjsPath1214" fill="none" stroke="none" d="M 0 0L 84 0L 84 51.363630294799805L 0 51.363630294799805Z"/><g id="SvgjsG1215"><text id="SvgjsText1216" width="84" y="8.232" fill="#b8b8b8" align="middle" anchor="middle" family="Arial" font-family="Arial" font-size="13" font-weight="400" opacity="1" size="13" text-anchor="middle" transform="rotate(0)" weight="400"><tspan id="SvgjsTspan1217" x="42" dy="16"><tspan id="SvgjsTspan1218">Process</tspan></tspan><tspan id="SvgjsTspan1219" x="42" dy="16"><tspan id="SvgjsTspan1220">reducer:0</tspan></tspan></text></g></g><g id="SvgjsG1221" transform="translate(230.89799537187758,528.2490363843513)"><path id="SvgjsPath1222" fill="none" stroke="none" d="M 0 0L 120 0L 120 40L 0 40Z"/><g id="SvgjsG1223"><text id="SvgjsText1224" width="120" y="10.55" fill="#b8b8b8" align="middle" anchor="middle" family="Arial" font-family="Arial" font-size="13" font-weight="400" opacity="1" size="13" text-anchor="middle" transform="rotate(0)" weight="400"><tspan id="SvgjsTspan1225" x="60" dy="16"><tspan id="SvgjsTspan1226">Reduce</tspan></tspan></text></g></g><g id="SvgjsG1227" transform="translate(33.75881672012562,63.195339093706025)"><path id="SvgjsPath1228" fill="none" stroke="none" d="M 0 0L 81.29282873220032 0L 81.29282873220032 36.790459135164696L 0 36.790459135164696Z"/><g id="SvgjsG1229"><text id="SvgjsText1230" width="82" y="8.945" fill="#b8b8b8" align="middle" anchor="middle" family="Arial" font-family="Arial" font-size="13" font-weight="400" opacity="1" size="13" text-anchor="middle" transform="rotate(0)" weight="400"><tspan id="SvgjsTspan1231" x="41" dy="16"><tspan id="SvgjsTspan1232">A3C group</tspan></tspan></text></g></g><g id="SvgjsG1233" transform="translate(183.6970057750549,415.8998411307523)"><path id="SvgjsPath1234" fill="none" stroke="rgba(184,184,184,1)" stroke-width="2" d="M 0 0L 93.07692307692264 0L 93.07692307692264 34.783837660024346L 0 34.783837660024346Z"/><g id="SvgjsG1235"><text id="SvgjsText1236" width="74" y="-.058" fill="#b8b8b8" align="middle" anchor="middle" family="Arial" font-family="Arial" font-size="13" font-weight="400" opacity="1" size="13" text-anchor="middle" transform="rotate(0)" weight="400"><tspan id="SvgjsTspan1237" x="47" dy="16"><tspan id="SvgjsTspan1238">Primary</tspan></tspan><tspan id="SvgjsTspan1239" x="47" dy="16"><tspan id="SvgjsTspan1240">Queue</tspan></tspan></text></g></g><g id="SvgjsG1241" transform="translate(355.9438322090807,132.86519800051295)"><path id="SvgjsPath1242" fill="none" stroke="rgba(184,184,184,1)" stroke-width="2" d="M 0 0L 220.92691664594213 0L 220.92691664594213 150.65910310456232L 0 150.65910310456232Z"/></g><g id="SvgjsG1245" transform="translate(384.8077382191001,135.79449092980587)"><path id="SvgjsPath1246" fill="none" stroke="none" d="M 0 0L 163.1991046259031 0L 163.1991046259031 32.161915133697846L 0 32.161915133697846Z"/><g id="SvgjsG1247"><text id="SvgjsText1248" width="164" y="6.631" fill="#b8b8b8" align="middle" anchor="middle" family="Arial" font-family="Arial" font-size="13" font-weight="400" opacity="1" size="13" text-anchor="middle" transform="rotate(0)" weight="400"><tspan id="SvgjsTspan1249" x="82" dy="16"><tspan id="SvgjsTspan1250">OrderedServer</tspan></tspan></text></g></g><g id="SvgjsG1251" transform="translate(366.8071820226721,174.01988220214844)"><path id="SvgjsPath1252" fill="none" stroke="rgba(184,184,184,1)" stroke-width="2" d="M 0 0L 50.30202455714743 0L 50.30202455714743 30L 0 30Z"/><g id="SvgjsG1253"><text id="SvgjsText1254" width="31" y="5.55" fill="#b8b8b8" align="middle" anchor="middle" family="Arial" font-family="Arial" font-size="13" font-weight="400" opacity="1" size="13" text-anchor="middle" transform="rotate(0)" weight="400"><tspan id="SvgjsTspan1255" x="25.5" dy="16"><tspan id="SvgjsTspan1256">key1</tspan></tspan></text></g></g><g id="SvgjsG1257" transform="translate(416.65841656554915,174.01988220214844)"><path id="SvgjsPath1258" fill="none" stroke="rgba(184,184,184,1)" stroke-width="2" d="M 0 0L 67.36441749762446 0L 67.36441749762446 30L 0 30Z"/><g id="SvgjsG1259"><text id="SvgjsText1260" width="48" y="5.55" fill="#b8b8b8" align="middle" anchor="middle" family="Arial" font-family="Arial" font-size="13" font-weight="400" opacity="1" size="13" text-anchor="middle" transform="rotate(0)" weight="400"><tspan id="SvgjsTspan1261" x="34" dy="16"><tspan id="SvgjsTspan1262">value1</tspan></tspan></text></g></g><g id="SvgjsG1263" transform="translate(484.8583958657415,174.01988220214844)"><path id="SvgjsPath1264" fill="none" stroke="rgba(184,184,184,1)" stroke-width="2" d="M 0 0L 80.4814252314087 0L 80.4814252314087 30L 0 30Z"/><g id="SvgjsG1265"><text id="SvgjsText1266" width="61" y="5.55" fill="#b8b8b8" align="middle" anchor="middle" family="Arial" font-family="Arial" font-size="13" font-weight="400" opacity="1" size="13" text-anchor="middle" transform="rotate(0)" weight="400"><tspan id="SvgjsTspan1267" x="40.5" dy="16"><tspan id="SvgjsTspan1268">&lt;version&gt;</tspan></tspan></text></g></g><g id="SvgjsG1269" transform="translate(366.95558410847775,208.69627427956476)"><path id="SvgjsPath1270" fill="none" stroke="rgba(184,184,184,1)" stroke-width="2" d="M 0 0L 50.30202455714743 0L 50.30202455714743 30L 0 30Z"/><g id="SvgjsG1271"><text id="SvgjsText1272" width="31" y="5.55" fill="#b8b8b8" align="middle" anchor="middle" family="Arial" font-family="Arial" font-size="13" font-weight="400" opacity="1" size="13" text-anchor="middle" transform="rotate(0)" weight="400"><tspan id="SvgjsTspan1273" x="25.5" dy="16"><tspan id="SvgjsTspan1274">key2</tspan></tspan></text></g></g><g id="SvgjsG1275" transform="translate(416.8068186513548,208.68495458207553)"><path id="SvgjsPath1276" fill="none" stroke="rgba(184,184,184,1)" stroke-width="2" d="M 0 0L 67.36441749762446 0L 67.36441749762446 30L 0 30Z"/><g id="SvgjsG1277"><text id="SvgjsText1278" width="48" y="5.55" fill="#b8b8b8" align="middle" anchor="middle" family="Arial" font-family="Arial" font-size="13" font-weight="400" opacity="1" size="13" text-anchor="middle" transform="rotate(0)" weight="400"><tspan id="SvgjsTspan1279" x="34" dy="16"><tspan id="SvgjsTspan1280">value2</tspan></tspan></text></g></g><g id="SvgjsG1281" transform="translate(485.0067979515471,208.96942586700385)"><path id="SvgjsPath1282" fill="none" stroke="rgba(184,184,184,1)" stroke-width="2" d="M 0 0L 80.4814252314087 0L 80.4814252314087 30L 0 30Z"/><g id="SvgjsG1283"><text id="SvgjsText1284" width="61" y="5.55" fill="#b8b8b8" align="middle" anchor="middle" family="Arial" font-family="Arial" font-size="13" font-weight="400" opacity="1" size="13" text-anchor="middle" transform="rotate(0)" weight="400"><tspan id="SvgjsTspan1285" x="40.5" dy="16"><tspan id="SvgjsTspan1286">&lt;version&gt;</tspan></tspan></text></g></g><g id="SvgjsG1287" transform="translate(366.8288338785484,244.01988220214844)"><path id="SvgjsPath1288" fill="none" stroke="rgba(184,184,184,1)" stroke-width="2" d="M 0 0L 50.30202455714743 0L 50.30202455714743 30L 0 30Z"/><g id="SvgjsG1289"><text id="SvgjsText1290" width="31" y="5.55" fill="#b8b8b8" align="middle" anchor="middle" family="Arial" font-family="Arial" font-size="13" font-weight="400" opacity="1" size="13" text-anchor="middle" transform="rotate(0)" weight="400"><tspan id="SvgjsTspan1291" x="25.5" dy="16"><tspan id="SvgjsTspan1292">key3</tspan></tspan></text></g></g><g id="SvgjsG1293" transform="translate(416.6800684214254,244.01988220214844)"><path id="SvgjsPath1294" fill="none" stroke="rgba(184,184,184,1)" stroke-width="2" d="M 0 0L 67.36441749762446 0L 67.36441749762446 30L 0 30Z"/><g id="SvgjsG1295"><text id="SvgjsText1296" width="48" y="5.55" fill="#b8b8b8" align="middle" anchor="middle" family="Arial" font-family="Arial" font-size="13" font-weight="400" opacity="1" size="13" text-anchor="middle" transform="rotate(0)" weight="400"><tspan id="SvgjsTspan1297" x="34" dy="16"><tspan id="SvgjsTspan1298">value3</tspan></tspan></text></g></g><g id="SvgjsG1299" transform="translate(484.88004772161776,244.01988220214844)"><path id="SvgjsPath1300" fill="none" stroke="rgba(184,184,184,1)" stroke-width="2" d="M 0 0L 80.4814252314087 0L 80.4814252314087 30L 0 30Z"/><g id="SvgjsG1301"><text id="SvgjsText1302" width="61" y="5.55" fill="#b8b8b8" align="middle" anchor="middle" family="Arial" font-family="Arial" font-size="13" font-weight="400" opacity="1" size="13" text-anchor="middle" transform="rotate(0)" weight="400"><tspan id="SvgjsTspan1303" x="40.5" dy="16"><tspan id="SvgjsTspan1304">&lt;version&gt;</tspan></tspan></text></g></g><g id="SvgjsG1305" transform="translate(290.10831313267335,409.97261863100226)"><path id="SvgjsPath1306" fill="none" stroke="rgba(184,184,184,1)" stroke-width="2" d="M 0 0L 77.02637843174466 0L 77.02637843174466 46.192611059834576L 0 46.192611059834576Z"/><g id="SvgjsG1307"><text id="SvgjsText1308" width="58" y="5.646" fill="#b8b8b8" align="middle" anchor="middle" family="Arial" font-family="Arial" font-size="13" font-weight="400" opacity="1" size="13" text-anchor="middle" transform="rotate(0)" weight="400"><tspan id="SvgjsTspan1309" x="39" dy="16"><tspan id="SvgjsTspan1310">Managed</tspan></tspan><tspan id="SvgjsTspan1311" x="39" dy="16"><tspan id="SvgjsTspan1312">Model</tspan></tspan></text></g></g><g id="SvgjsG1313" transform="translate(549.371412140931,325.3624101974882)"><path id="SvgjsPath1314" fill="none" stroke="rgba(184,184,184,1)" stroke-dasharray="3 4" stroke-width="2" d="M 0 0L 247.5221435170115 0L 247.5221435170115 261.1818141937256L 0 261.1818141937256Z"/></g><g id="SvgjsG1317" transform="translate(568.871412140931,381.27148307346476)"><path id="SvgjsPath1318" fill="none" stroke="rgba(184,184,184,1)" stroke-width="2" d="M 0 0L 208.5221435170116 0L 208.5221435170116 134.31067341505883L 0 134.31067341505883Z"/></g><g id="SvgjsG1321" transform="translate(568.871412140931,381.27148307346476)"><path id="SvgjsPath1322" fill="none" stroke="none" d="M 0 0L 163.1991046259031 0L 163.1991046259031 32.161915133697846L 0 32.161915133697846Z"/><g id="SvgjsG1323"><text id="SvgjsText1324" width="164" y="6.631" fill="#b8b8b8" align="middle" anchor="middle" family="Arial" font-family="Arial" font-size="13" font-weight="400" opacity="1" size="13" text-anchor="middle" transform="rotate(0)" weight="400"><tspan id="SvgjsTspan1325" x="82" dy="16"><tspan id="SvgjsTspan1326">PushPullGradServer</tspan></tspan></text></g></g><g id="SvgjsG1327" transform="translate(586.1553962480904,460.7670989157558)"><path id="SvgjsPath1328" fill="none" stroke="rgba(184,184,184,1)" stroke-width="2" d="M 0 0L 93.07692307692264 0L 93.07692307692264 34.783837660024346L 0 34.783837660024346Z"/><g id="SvgjsG1329"><text id="SvgjsText1330" width="74" y="-.058" fill="#b8b8b8" align="middle" anchor="middle" family="Arial" font-family="Arial" font-size="13" font-weight="400" opacity="1" size="13" text-anchor="middle" transform="rotate(0)" weight="400"><tspan id="SvgjsTspan1331" x="47" dy="16"><tspan id="SvgjsTspan1332">Secondary</tspan></tspan><tspan id="SvgjsTspan1333" x="47" dy="16"><tspan id="SvgjsTspan1334">Queue</tspan></tspan></text></g></g><g id="SvgjsG1335" transform="translate(696.3769467026481,430.6824613194497)"><path id="SvgjsPath1336" fill="none" stroke="rgba(184,184,184,1)" stroke-width="2" d="M 0 0L 64.9910033136349 0L 64.9910033136349 43.266355142541784L 0 43.266355142541784Z"/><g id="SvgjsG1337"><text id="SvgjsText1338" width="45" y="4.183" fill="#b8b8b8" align="middle" anchor="middle" family="Arial" font-family="Arial" font-size="13" font-weight="400" opacity="1" size="13" text-anchor="middle" transform="rotate(0)" weight="400"><tspan id="SvgjsTspan1339" x="32.5" dy="16"><tspan id="SvgjsTspan1340">Reduce</tspan></tspan><tspan id="SvgjsTspan1341" x="32.5" dy="16"><tspan id="SvgjsTspan1342">Thread</tspan></tspan></text></g></g><g id="SvgjsG1343" transform="translate(595.890702264388,528.2714830734649)"><path id="SvgjsPath1344" fill="none" stroke="rgba(184,184,184,1)" stroke-width="2" d="M 0 20C 0 -6.666666666666666 40 -6.666666666666666 40 20C 40 46.66666666666667 0 46.66666666666667 0 20ZM 20 0L 26 5M 20 0L 26 -5"/></g><g id="SvgjsG1347" transform="translate(549.371412140931,325.3624101974882)"><path id="SvgjsPath1348" fill="none" stroke="none" d="M 0 0L 84 0L 84 51.363630294799805L 0 51.363630294799805Z"/><g id="SvgjsG1349"><text id="SvgjsText1350" width="84" y="8.232" fill="#b8b8b8" align="middle" anchor="middle" family="Arial" font-family="Arial" font-size="13" font-weight="400" opacity="1" size="13" text-anchor="middle" transform="rotate(0)" weight="400"><tspan id="SvgjsTspan1351" x="42" dy="16"><tspan id="SvgjsTspan1352">Process</tspan></tspan><tspan id="SvgjsTspan1353" x="42" dy="16"><tspan id="SvgjsTspan1354">reducer:1</tspan></tspan></text></g></g><g id="SvgjsG1355" transform="translate(633.3714121409313,528.2714830734649)"><path id="SvgjsPath1356" fill="none" stroke="none" d="M 0 0L 120 0L 120 40L 0 40Z"/><g id="SvgjsG1357"><text id="SvgjsText1358" width="120" y="10.55" fill="#b8b8b8" align="middle" anchor="middle" family="Arial" font-family="Arial" font-size="13" font-weight="400" opacity="1" size="13" text-anchor="middle" transform="rotate(0)" weight="400"><tspan id="SvgjsTspan1359" x="60" dy="16"><tspan id="SvgjsTspan1360">Reduce</tspan></tspan></text></g></g><g id="SvgjsG1361" transform="translate(586.1704225441084,415.9222878198657)"><path id="SvgjsPath1362" fill="none" stroke="rgba(184,184,184,1)" stroke-width="2" d="M 0 0L 93.07692307692264 0L 93.07692307692264 34.783837660024346L 0 34.783837660024346Z"/><g id="SvgjsG1363"><text id="SvgjsText1364" width="74" y="-.058" fill="#b8b8b8" align="middle" anchor="middle" family="Arial" font-family="Arial" font-size="13" font-weight="400" opacity="1" size="13" text-anchor="middle" transform="rotate(0)" weight="400"><tspan id="SvgjsTspan1365" x="47" dy="16"><tspan id="SvgjsTspan1366">Primary</tspan></tspan><tspan id="SvgjsTspan1367" x="47" dy="16"><tspan id="SvgjsTspan1368">Queue</tspan></tspan></text></g></g><g id="SvgjsG1369"><path id="SvgjsPath1370" fill="none" stroke="#b8b8b8" stroke-width="2" marker-end="url(#SvgjsMarker1371)" d="M167.18561384412976 804.5419837103949L270.65906713038333 586.5217777021004"/></g><g id="SvgjsG1373"><path id="SvgjsPath1374" fill="none" stroke="#b8b8b8" stroke-width="2" marker-end="url(#SvgjsMarker1375)" d="M433.18561384412976 804.5419837103949L673.1324838994368 586.5442243912138"/></g><g id="SvgjsG1377"><path id="SvgjsPath1378" fill="none" stroke="#b8b8b8" stroke-width="2" marker-end="url(#SvgjsMarker1379)" d="M780.1856138441296 804.5419837103949L673.1324838994368 586.5442243912138"/></g><g id="SvgjsG1381" transform="translate(96.75868170676728,617.7537455617645)"><path id="SvgjsPath1382" fill="none" stroke="none" d="M 0 0L 720.9543767649125 0L 720.9543767649125 43.73772477514956L 0 43.73772477514956Z"/><g id="SvgjsG1383"><text id="SvgjsText1384" width="721" y="4.419" fill="#b8b8b8" align="middle" anchor="start" family="Arial" font-family="Arial" font-size="13" font-weight="400" opacity="1" size="13" text-anchor="start" transform="rotate(0)" weight="400"><tspan id="SvgjsTspan1385" x="0" dy="16"><tspan id="SvgjsTspan1386">Randomly select </tspan></tspan><tspan id="SvgjsTspan1387" x="0" dy="16"><tspan id="SvgjsTspan1388"> secondary reducer ---------------------------------------------------------------------------------------------------------------------------------------</tspan></tspan></text></g></g><g id="SvgjsG1389" transform="translate(113.47181969578543,673.4327579074431)"><path id="SvgjsPath1390" fill="none" stroke="none" d="M 0 0L 120 0L 120 40L 0 40Z"/><g id="SvgjsG1391"><text id="SvgjsText1392" width="120" y="10.55" fill="#b8b8b8" align="middle" anchor="middle" family="Arial" font-family="Arial" font-size="13" font-weight="400" opacity="1" size="13" text-anchor="middle" transform="rotate(0)" weight="400"><tspan id="SvgjsTspan1393" x="60" dy="16"><tspan id="SvgjsTspan1394">Gradient</tspan></tspan></text></g></g><g id="SvgjsG1395" transform="translate(610.0956179113891,671.4574492654682)"><path id="SvgjsPath1396" fill="none" stroke="none" d="M 0 0L 120 0L 120 40L 0 40Z"/><g id="SvgjsG1397"><text id="SvgjsText1398" width="120" y="10.55" fill="#b8b8b8" align="middle" anchor="middle" family="Arial" font-family="Arial" font-size="13" font-weight="400" opacity="1" size="13" text-anchor="middle" transform="rotate(0)" weight="400"><tspan id="SvgjsTspan1399" x="60" dy="16"><tspan id="SvgjsTspan1400">Gradient</tspan></tspan></text></g></g><g id="SvgjsG1401"><path id="SvgjsPath1402" fill="none" stroke="#b8b8b8" stroke-width="2" marker-end="url(#SvgjsMarker1403)" d="M328.62125381263445 510.3031538091857C 335.5113542344835 637.2711465623644 471.06690979003906 518.3822576734755 361.11675546945185 488.66997623791485"/></g><g id="SvgjsG1405"><path id="SvgjsPath1406" fill="none" stroke="#b8b8b8" stroke-width="2" marker-end="url(#SvgjsMarker1407)" d="M728.8724483594656 473.94881646199156C 695.5113542344835 542.8267021179199 508.33684225011496 488.66997623791485 361.11675546945185 488.66997623791485"/></g><g id="SvgjsG1409" transform="translate(454.87007023518277,442.4495898265691)"><path id="SvgjsPath1410" fill="none" stroke="none" d="M 0 0L 68.84298823649692 0L 68.84298823649692 48.04188051034498L 0 48.04188051034498Z"/><g id="SvgjsG1411"><text id="SvgjsText1412" width="69" y="-.929" fill="#b8b8b8" align="middle" anchor="middle" family="Arial" font-family="Arial" font-size="13" font-weight="400" opacity="1" size="13" text-anchor="middle" transform="rotate(0)" weight="400"><tspan id="SvgjsTspan1413" x="34.5" dy="16"><tspan id="SvgjsTspan1414">Secondary</tspan></tspan><tspan id="SvgjsTspan1415" x="34.5" dy="16"><tspan style="font-size:inherit" id="SvgjsTspan1416">reduced </tspan></tspan><tspan id="SvgjsTspan1417" x="34.5" dy="16"><tspan id="SvgjsTspan1418">gradient</tspan></tspan></text></g></g><g id="SvgjsG1419"><path id="SvgjsPath1420" fill="none" stroke="#b8b8b8" stroke-dasharray="8 5" stroke-width="2" marker-end="url(#SvgjsMarker1421)" d="M361.11675546945185 488.66997623791485C 485.5113542344835 447.2711465623644 446.6224653455946 379.49336878458655 367.13469156441806 433.06892416091955"/></g><g id="SvgjsG1423" transform="translate(401.52896293339506,370.8563545070877)"><path id="SvgjsPath1424" fill="none" stroke="none" d="M 0 0L 50.831745651279334 0L 50.831745651279334 39.11626412391456L 0 39.11626412391456Z"/><g id="SvgjsG1425"><text id="SvgjsText1426" width="51" y="2.108" fill="#b8b8b8" align="middle" anchor="middle" family="Arial" font-family="Arial" font-size="13" font-weight="400" opacity="1" size="13" text-anchor="middle" transform="rotate(0)" weight="400"><tspan id="SvgjsTspan1427" x="25.5" dy="16"><tspan id="SvgjsTspan1428">Final </tspan></tspan><tspan id="SvgjsTspan1429" x="25.5" dy="16"><tspan id="SvgjsTspan1430"> gradient</tspan></tspan></text></g></g><g id="SvgjsG1431"><path id="SvgjsPath1432" fill="none" stroke="#b8b8b8" stroke-dasharray="3 3" stroke-width="2" marker-end="url(#SvgjsMarker1433)" d="M328.6215023485456 409.97261863100226L466.4072905320518 283.52430110507527"/></g><g id="SvgjsG1435" transform="translate(410.2524134756509,299.74524339597673)"><path id="SvgjsPath1436" fill="none" stroke="none" d="M 0 0L 120 0L 120 40L 0 40Z"/><g id="SvgjsG1437"><text id="SvgjsText1438" width="120" y="2.55" fill="#b8b8b8" align="middle" anchor="middle" family="Arial" font-family="Arial" font-size="13" font-weight="400" opacity="1" size="13" text-anchor="middle" transform="rotate(0)" weight="400"><tspan id="SvgjsTspan1439" x="60" dy="16"><tspan id="SvgjsTspan1440">New</tspan></tspan><tspan id="SvgjsTspan1441" x="60" dy="16"><tspan id="SvgjsTspan1442">parameters</tspan></tspan></text></g></g><g id="SvgjsG1443"><path id="SvgjsPath1444" fill="none" stroke="#b8b8b8" stroke-dasharray="3 3" stroke-width="2" marker-end="url(#SvgjsMarker1445)" d="M576.8707488550228 208.19474955279412C 918.8446875678169 204.13983111911347 936.6224653455945 568.584275563558 780.1856138441296 804.5419837103949"/></g><g id="SvgjsG1447"><path id="SvgjsPath1448" fill="none" stroke="#b8b8b8" stroke-dasharray="3 3" stroke-width="2" marker-end="url(#SvgjsMarker1449)" d="M861.0669097900391 607.4731644524468C 817.7335764567057 725.2509422302246 716.6224653455946 766.3620533413357 433.18561384412976 804.5419837103949"/></g><g id="SvgjsG1451"><path id="SvgjsPath1452" fill="none" stroke="#b8b8b8" stroke-dasharray="3 3" stroke-width="2" marker-end="url(#SvgjsMarker1453)" d="M862.1780209011501 607.4731644524468C 745.5113542344835 757.4731644524468 482.17802090115015 769.6953866746691 167.18561384412976 804.5419837103949"/></g><g id="SvgjsG1455" transform="translate(630.0781961820269,173.5780280146628)"><path id="SvgjsPath1456" fill="none" stroke="none" d="M 0 0L 120 0L 120 40L 0 40Z"/><g id="SvgjsG1457"><text id="SvgjsText1458" width="120" y="2.55" fill="#b8b8b8" align="middle" anchor="middle" family="Arial" font-family="Arial" font-size="13" font-weight="400" opacity="1" size="13" text-anchor="middle" transform="rotate(0)" weight="400"><tspan id="SvgjsTspan1459" x="60" dy="16"><tspan id="SvgjsTspan1460">New</tspan></tspan><tspan id="SvgjsTspan1461" x="60" dy="16"><tspan id="SvgjsTspan1462">parameters</tspan></tspan></text></g></g><g id="SvgjsG1463" transform="translate(404.87007023518277,538.5023438808688)"><path id="SvgjsPath1464" fill="none" stroke="none" d="M 0 0L 68.84298823649692 0L 68.84298823649692 48.04188051034498L 0 48.04188051034498Z"/><g id="SvgjsG1465"><text id="SvgjsText1466" width="69" y="-.929" fill="#b8b8b8" align="middle" anchor="middle" family="Arial" font-family="Arial" font-size="13" font-weight="400" opacity="1" size="13" text-anchor="middle" transform="rotate(0)" weight="400"><tspan id="SvgjsTspan1467" x="34.5" dy="16"><tspan id="SvgjsTspan1468">Secondary</tspan></tspan><tspan id="SvgjsTspan1469" x="34.5" dy="16"><tspan style="font-size:inherit" id="SvgjsTspan1470">reduced </tspan></tspan><tspan id="SvgjsTspan1471" x="34.5" dy="16"><tspan id="SvgjsTspan1472">gradient</tspan></tspan></text></g></g></svg>