<svg xmlns="http://www.w3.org/2000/svg" xmlns:svgjs="http://svgjs.com/svgjs" xmlns:xlink="http://www.w3.org/1999/xlink" id="SvgjsSvg2837" width="961.869" height="1113" version="1.1"><defs id="SvgjsDefs2838"><marker id="SvgjsMarker3014" stroke-dasharray="0 0" markerHeight="12" markerUnits="userSpaceOnUse" markerWidth="16" orient="auto" refX="16" refY="6" viewBox="0 0 16 12"><path id="SvgjsPath3015" fill="#b8b8b8" stroke="#b8b8b8" stroke-width="2" d="M0,2 L14,6 L0,11 L0,2"/></marker><marker id="SvgjsMarker3018" stroke-dasharray="0 0" markerHeight="12" markerUnits="userSpaceOnUse" markerWidth="16" orient="auto" refX="16" refY="6" viewBox="0 0 16 12"><path id="SvgjsPath3019" fill="#b8b8b8" stroke="#b8b8b8" stroke-width="2" d="M0,2 L14,6 L0,11 L0,2"/></marker><marker id="SvgjsMarker3022" stroke-dasharray="0 0" markerHeight="12" markerUnits="userSpaceOnUse" markerWidth="16" orient="auto" refX="16" refY="6" viewBox="0 0 16 12"><path id="SvgjsPath3023" fill="#b8b8b8" stroke="#b8b8b8" stroke-width="2" d="M0,2 L14,6 L0,11 L0,2"/></marker><marker id="SvgjsMarker3156" stroke-dasharray="0 0" markerHeight="12" markerUnits="userSpaceOnUse" markerWidth="16" orient="auto" refX="16" refY="6" viewBox="0 0 16 12"><path id="SvgjsPath3157" fill="#b8b8b8" stroke="#b8b8b8" stroke-width="2" d="M0,2 L14,6 L0,11 L0,2"/></marker><marker id="SvgjsMarker3160" stroke-dasharray="0 0" markerHeight="12" markerUnits="userSpaceOnUse" markerWidth="16" orient="auto" refX="16" refY="6" viewBox="0 0 16 12"><path id="SvgjsPath3161" fill="#b8b8b8" stroke="#b8b8b8" stroke-width="2" d="M0,2 L14,6 L0,11 L0,2"/></marker><marker id="SvgjsMarker3164" stroke-dasharray="0 0" markerHeight="12" markerUnits="userSpaceOnUse" markerWidth="16" orient="auto" refX="0" refY="6" viewBox="0 0 16 12"><path id="SvgjsPath3165" fill="#b8b8b8" stroke="#b8b8b8" stroke-width="2" d="M15,1.5 L2,6 L15,10.5"/></marker><marker id="SvgjsMarker3166" stroke-dasharray="0 0" markerHeight="12" markerUnits="userSpaceOnUse" markerWidth="16" orient="auto" refX="16" refY="6" viewBox="0 0 16 12"><path id="SvgjsPath3167" fill="#b8b8b8" stroke="#b8b8b8" stroke-width="2" d="M0,2 L14,6 L0,11 L0,2"/></marker><marker id="SvgjsMarker3288" stroke-dasharray="0 0" markerHeight="12" markerUnits="userSpaceOnUse" markerWidth="16" orient="auto" refX="0" refY="6" viewBox="0 0 16 12"><path id="SvgjsPath3289" fill="#b8b8b8" stroke="#b8b8b8" stroke-width="2" d="M15,1.5 L2,6 L15,10.5"/></marker><marker id="SvgjsMarker3290" stroke-dasharray="0 0" markerHeight="12" markerUnits="userSpaceOnUse" markerWidth="16" orient="auto" refX="16" refY="6" viewBox="0 0 16 12"><path id="SvgjsPath3291" fill="#b8b8b8" stroke="#b8b8b8" stroke-width="2" d="M0,2 L14,6 L0,11 L0,2"/></marker><marker id="SvgjsMarker3294" stroke-dasharray="0 0" markerHeight="12" markerUnits="userSpaceOnUse" markerWidth="16" orient="auto" refX="16" refY="6" viewBox="0 0 16 12"><path id="SvgjsPath3295" fill="#b8b8b8" stroke="#b8b8b8" stroke-width="2" d="M0,2 L14,6 L0,11 L0,2"/></marker></defs><rect id="SvgjsRect2839" width="961.869" height="1113" fill="#2f2f2f"/><g id="SvgjsG2840" transform="translate(33.65654135864506,65.01352854128237)"><path id="SvgjsPath2841" fill="none" stroke="rgba(184,184,184,1)" stroke-dasharray="3 4" stroke-width="2" d="M 0 0L 882.0205650800538 0L 882.0205650800538 1016.9135675077084L 0 1016.9135675077084Z"/></g><g id="SvgjsG2844" transform="translate(25.0091064829885,25.01352854128237)"><path id="SvgjsPath2845" fill="none" stroke="rgba(184,184,184,1)" stroke-dasharray="3 4" stroke-width="2" d="M 0 0L 897.2699276017554 0L 897.2699276017554 1062.3586155220314L 0 1062.3586155220314Z"/></g><g id="SvgjsG2848" transform="translate(25.0091064829885,25.01352854128237)"><path id="SvgjsPath2849" fill="none" stroke="none" d="M 0 0L 120 0L 120 40L 0 40Z"/><g id="SvgjsG2850"><text id="SvgjsText2851" width="120" y="10.55" fill="#b8b8b8" align="middle" anchor="middle" family="Arial" font-family="Arial" font-size="13" font-weight="400" opacity="1" size="13" text-anchor="middle" transform="rotate(0)" weight="400"><tspan id="SvgjsTspan2852" x="60" dy="16"><tspan id="SvgjsTspan2853">Distributed world</tspan></tspan></text></g></g><g id="SvgjsG2854" transform="translate(656.4245420856239,804.5419913397894)"><path id="SvgjsPath2855" fill="none" stroke="rgba(184,184,184,1)" stroke-dasharray="3 4" stroke-width="2" d="M 0 0L 247.5221435170115 0L 247.5221435170115 261.1818141937256L 0 261.1818141937256Z"/></g><g id="SvgjsG2858" transform="translate(675.9245420856239,860.451064215766)"><path id="SvgjsPath2859" fill="none" stroke="rgba(184,184,184,1)" stroke-width="2" d="M 0 0L 208.5221435170115 0L 208.5221435170115 129L 0 129Z"/></g><g id="SvgjsG2862" transform="translate(675.9245420856239,860.451064215766)"><path id="SvgjsPath2863" fill="none" stroke="none" d="M 0 0L 85.44340793065908 0L 85.44340793065908 32.40403069390197L 0 32.40403069390197Z"/><g id="SvgjsG2864"><text id="SvgjsText2865" width="86" y="6.752" fill="#b8b8b8" align="middle" anchor="middle" family="Arial" font-family="Arial" font-size="13" font-weight="400" opacity="1" size="13" text-anchor="middle" transform="rotate(0)" weight="400"><tspan id="SvgjsTspan2866" x="43" dy="16"><tspan id="SvgjsTspan2867">DQNApex</tspan></tspan></text></g></g><g id="SvgjsG2868" transform="translate(691.4053706706194,903.5564144167124)"><path id="SvgjsPath2869" fill="none" stroke="rgba(184,184,184,1)" stroke-width="2" d="M 0 0L 93.07692307692264 0L 93.07692307692264 28.84615384615398L 0 28.84615384615398Z"/><g id="SvgjsG2870"><text id="SvgjsText2871" width="74" y="4.973" fill="#b8b8b8" align="middle" anchor="middle" family="Arial" font-family="Arial" font-size="13" font-weight="400" opacity="1" size="13" text-anchor="middle" transform="rotate(0)" weight="400"><tspan id="SvgjsTspan2872" x="47" dy="16"><tspan id="SvgjsTspan2873">QNet</tspan></tspan></text></g></g><g id="SvgjsG2874" transform="translate(691.4053706706194,940.5564144167124)"><path id="SvgjsPath2875" fill="none" stroke="rgba(184,184,184,1)" stroke-width="2" d="M 0 0L 93.07692307692264 0L 93.07692307692264 28.84615384615398L 0 28.84615384615398Z"/><g id="SvgjsG2876"><text id="SvgjsText2877" width="74" y="4.973" fill="#b8b8b8" align="middle" anchor="middle" family="Arial" font-family="Arial" font-size="13" font-weight="400" opacity="1" size="13" text-anchor="middle" transform="rotate(0)" weight="400"><tspan id="SvgjsTspan2878" x="47" dy="16"><tspan id="SvgjsTspan2879">QNet_target</tspan></tspan></text></g></g><g id="SvgjsG2880" transform="translate(805.4053706706193,933.9255467765244)"><path id="SvgjsPath2881" fill="none" stroke="rgba(184,184,184,1)" stroke-width="2" d="M 0 0L 61.83327961786648 0L 61.83327961786648 46.708342250606464L 0 46.708342250606464Z"/><g id="SvgjsG2882"><text id="SvgjsText2883" width="42" y="5.904" fill="#b8b8b8" align="middle" anchor="middle" family="Arial" font-family="Arial" font-size="13" font-weight="400" opacity="1" size="13" text-anchor="middle" transform="rotate(0)" weight="400"><tspan id="SvgjsTspan2884" x="31" dy="16"><tspan id="SvgjsTspan2885">Local </tspan></tspan><tspan id="SvgjsTspan2886" x="31" dy="16"><tspan id="SvgjsTspan2887">Buffer</tspan></tspan></text></g></g><g id="SvgjsG2888" transform="translate(702.9438322090807,1007.4510642157661)"><path id="SvgjsPath2889" fill="none" stroke="rgba(184,184,184,1)" stroke-width="2" d="M 0 20C 0 -6.666666666666666 40 -6.666666666666666 40 20C 40 46.66666666666667 0 46.66666666666667 0 20ZM 20 0L 26 5M 20 0L 26 -5"/></g><g id="SvgjsG2892" transform="translate(656.4245420856239,804.5419913397894)"><path id="SvgjsPath2893" fill="none" stroke="none" d="M 0 0L 84 0L 84 51.363630294799805L 0 51.363630294799805Z"/><g id="SvgjsG2894"><text id="SvgjsText2895" width="84" y="8.232" fill="#b8b8b8" align="middle" anchor="middle" family="Arial" font-family="Arial" font-size="13" font-weight="400" opacity="1" size="13" text-anchor="middle" transform="rotate(0)" weight="400"><tspan id="SvgjsTspan2896" x="42" dy="16"><tspan id="SvgjsTspan2897">Process</tspan></tspan><tspan id="SvgjsTspan2898" x="42" dy="16"><tspan id="SvgjsTspan2899">worker:n</tspan></tspan></text></g></g><g id="SvgjsG2900" transform="translate(740.4245420856239,1007.4510642157661)"><path id="SvgjsPath2901" fill="none" stroke="none" d="M 0 0L 120 0L 120 40L 0 40Z"/><g id="SvgjsG2902"><text id="SvgjsText2903" width="120" y="10.55" fill="#b8b8b8" align="middle" anchor="middle" family="Arial" font-family="Arial" font-size="13" font-weight="400" opacity="1" size="13" text-anchor="middle" transform="rotate(0)" weight="400"><tspan id="SvgjsTspan2904" x="60" dy="16"><tspan id="SvgjsTspan2905">Sample</tspan></tspan></text></g></g><g id="SvgjsG2906" transform="translate(547.2194059395495,909.9965201483832)"><path id="SvgjsPath2907" fill="none" stroke="none" d="M 0 0L 120 0L 120 40L 0 40Z"/><g id="SvgjsG2908"><text id="SvgjsText2909" width="120" y="7.6" fill="#b8b8b8" align="middle" anchor="middle" family="Arial" font-family="Arial" font-size="16" font-weight="700" opacity="1" size="16" text-anchor="middle" transform="rotate(0)" weight="700"><tspan id="SvgjsTspan2910" x="60" dy="20"><tspan id="SvgjsTspan2911">... ... ...</tspan></tspan></text></g></g><g id="SvgjsG2912" transform="translate(146.89799537187758,325.33997113776934)"><path id="SvgjsPath2913" fill="none" stroke="rgba(184,184,184,1)" stroke-dasharray="3 4" stroke-width="2" d="M 0 0L 247.5221435170115 0L 247.5221435170115 261.1818141937256L 0 261.1818141937256Z"/></g><g id="SvgjsG2916" transform="translate(193.4172854953344,528.2490440137458)"><path id="SvgjsPath2917" fill="none" stroke="rgba(184,184,184,1)" stroke-width="2" d="M 0 20C 0 -6.666666666666666 40 -6.666666666666666 40 20C 40 46.66666666666667 0 46.66666666666667 0 20ZM 20 0L 26 5M 20 0L 26 -5"/></g><g id="SvgjsG2920" transform="translate(146.89799537187758,325.33997113776934)"><path id="SvgjsPath2921" fill="none" stroke="none" d="M 0 0L 84 0L 84 51.363630294799805L 0 51.363630294799805Z"/><g id="SvgjsG2922"><text id="SvgjsText2923" width="84" y="8.232" fill="#b8b8b8" align="middle" anchor="middle" family="Arial" font-family="Arial" font-size="13" font-weight="400" opacity="1" size="13" text-anchor="middle" transform="rotate(0)" weight="400"><tspan id="SvgjsTspan2924" x="42" dy="16"><tspan id="SvgjsTspan2925">Process</tspan></tspan><tspan id="SvgjsTspan2926" x="42" dy="16"><tspan id="SvgjsTspan2927">learner:0</tspan></tspan></text></g></g><g id="SvgjsG2928" transform="translate(230.89799537187758,528.2490440137458)"><path id="SvgjsPath2929" fill="none" stroke="none" d="M 0 0L 120 0L 120 40L 0 40Z"/><g id="SvgjsG2930"><text id="SvgjsText2931" width="120" y="10.55" fill="#b8b8b8" align="middle" anchor="middle" family="Arial" font-family="Arial" font-size="13" font-weight="400" opacity="1" size="13" text-anchor="middle" transform="rotate(0)" weight="400"><tspan id="SvgjsTspan2932" x="60" dy="16"><tspan id="SvgjsTspan2933">Update</tspan></tspan></text></g></g><g id="SvgjsG2934" transform="translate(33.65654135864506,65.01352854128237)"><path id="SvgjsPath2935" fill="none" stroke="none" d="M 0 0L 85.77243327987438 0L 85.77243327987438 37.023410906293975L 0 37.023410906293975Z"/><g id="SvgjsG2936"><text id="SvgjsText2937" width="86" y="9.062" fill="#b8b8b8" align="middle" anchor="middle" family="Arial" font-family="Arial" font-size="13" font-weight="400" opacity="1" size="13" text-anchor="middle" transform="rotate(0)" weight="400"><tspan id="SvgjsTspan2938" x="43" dy="16"><tspan id="SvgjsTspan2939">Apex group</tspan></tspan></text></g></g><g id="SvgjsG2940" transform="translate(355.9438322090807,132.86520562990748)"><path id="SvgjsPath2941" fill="none" stroke="rgba(184,184,184,1)" stroke-width="2" d="M 0 0L 220.92691664594213 0L 220.92691664594213 150.65910310456232L 0 150.65910310456232Z"/></g><g id="SvgjsG2944" transform="translate(384.8077382191001,135.7944985592004)"><path id="SvgjsPath2945" fill="none" stroke="none" d="M 0 0L 163.1991046259031 0L 163.1991046259031 32.161915133697846L 0 32.161915133697846Z"/><g id="SvgjsG2946"><text id="SvgjsText2947" width="164" y="6.631" fill="#b8b8b8" align="middle" anchor="middle" family="Arial" font-family="Arial" font-size="13" font-weight="400" opacity="1" size="13" text-anchor="middle" transform="rotate(0)" weight="400"><tspan id="SvgjsTspan2948" x="82" dy="16"><tspan id="SvgjsTspan2949">OrderedServer</tspan></tspan></text></g></g><g id="SvgjsG2950" transform="translate(366.8071820226721,174.01988983154297)"><path id="SvgjsPath2951" fill="none" stroke="rgba(184,184,184,1)" stroke-width="2" d="M 0 0L 50.30202455714743 0L 50.30202455714743 30L 0 30Z"/><g id="SvgjsG2952"><text id="SvgjsText2953" width="31" y="5.55" fill="#b8b8b8" align="middle" anchor="middle" family="Arial" font-family="Arial" font-size="13" font-weight="400" opacity="1" size="13" text-anchor="middle" transform="rotate(0)" weight="400"><tspan id="SvgjsTspan2954" x="25.5" dy="16"><tspan id="SvgjsTspan2955">key1</tspan></tspan></text></g></g><g id="SvgjsG2956" transform="translate(416.65841656554915,174.01988983154297)"><path id="SvgjsPath2957" fill="none" stroke="rgba(184,184,184,1)" stroke-width="2" d="M 0 0L 67.36441749762446 0L 67.36441749762446 30L 0 30Z"/><g id="SvgjsG2958"><text id="SvgjsText2959" width="48" y="5.55" fill="#b8b8b8" align="middle" anchor="middle" family="Arial" font-family="Arial" font-size="13" font-weight="400" opacity="1" size="13" text-anchor="middle" transform="rotate(0)" weight="400"><tspan id="SvgjsTspan2960" x="34" dy="16"><tspan id="SvgjsTspan2961">value1</tspan></tspan></text></g></g><g id="SvgjsG2962" transform="translate(484.8583958657415,174.01988983154297)"><path id="SvgjsPath2963" fill="none" stroke="rgba(184,184,184,1)" stroke-width="2" d="M 0 0L 80.4814252314087 0L 80.4814252314087 30L 0 30Z"/><g id="SvgjsG2964"><text id="SvgjsText2965" width="61" y="5.55" fill="#b8b8b8" align="middle" anchor="middle" family="Arial" font-family="Arial" font-size="13" font-weight="400" opacity="1" size="13" text-anchor="middle" transform="rotate(0)" weight="400"><tspan id="SvgjsTspan2966" x="40.5" dy="16"><tspan id="SvgjsTspan2967">&lt;version&gt;</tspan></tspan></text></g></g><g id="SvgjsG2968" transform="translate(366.95558410847775,208.6962819089593)"><path id="SvgjsPath2969" fill="none" stroke="rgba(184,184,184,1)" stroke-width="2" d="M 0 0L 50.30202455714743 0L 50.30202455714743 30L 0 30Z"/><g id="SvgjsG2970"><text id="SvgjsText2971" width="31" y="5.55" fill="#b8b8b8" align="middle" anchor="middle" family="Arial" font-family="Arial" font-size="13" font-weight="400" opacity="1" size="13" text-anchor="middle" transform="rotate(0)" weight="400"><tspan id="SvgjsTspan2972" x="25.5" dy="16"><tspan id="SvgjsTspan2973">key2</tspan></tspan></text></g></g><g id="SvgjsG2974" transform="translate(416.8068186513548,208.68496221147007)"><path id="SvgjsPath2975" fill="none" stroke="rgba(184,184,184,1)" stroke-width="2" d="M 0 0L 67.36441749762446 0L 67.36441749762446 30L 0 30Z"/><g id="SvgjsG2976"><text id="SvgjsText2977" width="48" y="5.55" fill="#b8b8b8" align="middle" anchor="middle" family="Arial" font-family="Arial" font-size="13" font-weight="400" opacity="1" size="13" text-anchor="middle" transform="rotate(0)" weight="400"><tspan id="SvgjsTspan2978" x="34" dy="16"><tspan id="SvgjsTspan2979">value2</tspan></tspan></text></g></g><g id="SvgjsG2980" transform="translate(485.0067979515471,208.96943349639838)"><path id="SvgjsPath2981" fill="none" stroke="rgba(184,184,184,1)" stroke-width="2" d="M 0 0L 80.4814252314087 0L 80.4814252314087 30L 0 30Z"/><g id="SvgjsG2982"><text id="SvgjsText2983" width="61" y="5.55" fill="#b8b8b8" align="middle" anchor="middle" family="Arial" font-family="Arial" font-size="13" font-weight="400" opacity="1" size="13" text-anchor="middle" transform="rotate(0)" weight="400"><tspan id="SvgjsTspan2984" x="40.5" dy="16"><tspan id="SvgjsTspan2985">&lt;version&gt;</tspan></tspan></text></g></g><g id="SvgjsG2986" transform="translate(366.8288338785484,244.01988983154297)"><path id="SvgjsPath2987" fill="none" stroke="rgba(184,184,184,1)" stroke-width="2" d="M 0 0L 50.30202455714743 0L 50.30202455714743 30L 0 30Z"/><g id="SvgjsG2988"><text id="SvgjsText2989" width="31" y="5.55" fill="#b8b8b8" align="middle" anchor="middle" family="Arial" font-family="Arial" font-size="13" font-weight="400" opacity="1" size="13" text-anchor="middle" transform="rotate(0)" weight="400"><tspan id="SvgjsTspan2990" x="25.5" dy="16"><tspan id="SvgjsTspan2991">key3</tspan></tspan></text></g></g><g id="SvgjsG2992" transform="translate(416.6800684214254,244.01988983154297)"><path id="SvgjsPath2993" fill="none" stroke="rgba(184,184,184,1)" stroke-width="2" d="M 0 0L 67.36441749762446 0L 67.36441749762446 30L 0 30Z"/><g id="SvgjsG2994"><text id="SvgjsText2995" width="48" y="5.55" fill="#b8b8b8" align="middle" anchor="middle" family="Arial" font-family="Arial" font-size="13" font-weight="400" opacity="1" size="13" text-anchor="middle" transform="rotate(0)" weight="400"><tspan id="SvgjsTspan2996" x="34" dy="16"><tspan id="SvgjsTspan2997">value3</tspan></tspan></text></g></g><g id="SvgjsG2998" transform="translate(484.88004772161776,244.01988983154297)"><path id="SvgjsPath2999" fill="none" stroke="rgba(184,184,184,1)" stroke-width="2" d="M 0 0L 80.4814252314087 0L 80.4814252314087 30L 0 30Z"/><g id="SvgjsG3000"><text id="SvgjsText3001" width="61" y="5.55" fill="#b8b8b8" align="middle" anchor="middle" family="Arial" font-family="Arial" font-size="13" font-weight="400" opacity="1" size="13" text-anchor="middle" transform="rotate(0)" weight="400"><tspan id="SvgjsTspan3002" x="40.5" dy="16"><tspan id="SvgjsTspan3003">&lt;version&gt;</tspan></tspan></text></g></g><g id="SvgjsG3004" transform="translate(410.2524134756509,299.74525102537126)"><path id="SvgjsPath3005" fill="none" stroke="none" d="M 0 0L 120 0L 120 40L 0 40Z"/><g id="SvgjsG3006"><text id="SvgjsText3007" width="120" y="2.55" fill="#b8b8b8" align="middle" anchor="middle" family="Arial" font-family="Arial" font-size="13" font-weight="400" opacity="1" size="13" text-anchor="middle" transform="rotate(0)" weight="400"><tspan id="SvgjsTspan3008" x="60" dy="16"><tspan id="SvgjsTspan3009">New</tspan></tspan><tspan id="SvgjsTspan3010" x="60" dy="16"><tspan id="SvgjsTspan3011">parameters</tspan></tspan></text></g></g><g id="SvgjsG3012"><path id="SvgjsPath3013" fill="none" stroke="#b8b8b8" stroke-dasharray="3 3" stroke-width="2" marker-end="url(#SvgjsMarker3014)" d="M576.8707488550228 208.19475718218865C 918.8446875678169 204.139838748508 936.6224653455945 568.5842831929525 780.1856138441296 804.5419913397894"/></g><g id="SvgjsG3016"><path id="SvgjsPath3017" fill="none" stroke="#b8b8b8" stroke-dasharray="3 3" stroke-width="2" marker-end="url(#SvgjsMarker3018)" d="M861.0669097900391 607.4731720818413C 817.7335764567057 725.2509498596191 716.6224653455946 766.3620609707302 433.18561384412976 804.5419913397894"/></g><g id="SvgjsG3020"><path id="SvgjsPath3021" fill="none" stroke="#b8b8b8" stroke-dasharray="3 3" stroke-width="2" marker-end="url(#SvgjsMarker3022)" d="M862.1780209011501 607.4731720818413C 745.5113542344835 757.4731720818413 482.17802090115015 769.6953943040636 167.18561384412976 804.5419913397894"/></g><g id="SvgjsG3024" transform="translate(630.0781961820269,173.57803564405734)"><path id="SvgjsPath3025" fill="none" stroke="none" d="M 0 0L 120 0L 120 40L 0 40Z"/><g id="SvgjsG3026"><text id="SvgjsText3027" width="120" y="2.55" fill="#b8b8b8" align="middle" anchor="middle" family="Arial" font-family="Arial" font-size="13" font-weight="400" opacity="1" size="13" text-anchor="middle" transform="rotate(0)" weight="400"><tspan id="SvgjsTspan3028" x="60" dy="16"><tspan id="SvgjsTspan3029">New</tspan></tspan><tspan id="SvgjsTspan3030" x="60" dy="16"><tspan id="SvgjsTspan3031">parameters</tspan></tspan></text></g></g><g id="SvgjsG3032" transform="translate(805.4053706706193,896.0864156739324)"><path id="SvgjsPath3033" fill="none" stroke="rgba(184,184,184,1)" stroke-width="2" d="M 0 0L 62.01917141500462 0L 62.01917141500462 37.83913110259202L 0 37.83913110259202Z"/><g id="SvgjsG3034"><text id="SvgjsText3035" width="43" y="1.47" fill="#b8b8b8" align="middle" anchor="middle" family="Arial" font-family="Arial" font-size="13" font-weight="400" opacity="1" size="13" text-anchor="middle" transform="rotate(0)" weight="400"><tspan id="SvgjsTspan3036" x="31.5" dy="16"><tspan id="SvgjsTspan3037">Local</tspan></tspan><tspan id="SvgjsTspan3038" x="31.5" dy="16"><tspan id="SvgjsTspan3039">Tree</tspan></tspan></text></g></g><g id="SvgjsG3040" transform="translate(805.4053706706193,869.2682394044011)"><path id="SvgjsPath3041" fill="none" stroke="rgba(184,184,184,1)" stroke-width="2" d="M 0 0L 62.01917141500462 0L 62.01917141500462 26.81817626953125L 0 26.81817626953125Z"/><g id="SvgjsG3042"><text id="SvgjsText3043" width="43" y="3.959" fill="#b8b8b8" align="middle" anchor="middle" family="Arial" font-family="Arial" font-size="13" font-weight="400" opacity="1" size="13" text-anchor="middle" transform="rotate(0)" weight="400"><tspan id="SvgjsTspan3044" x="31.5" dy="16"><tspan id="SvgjsTspan3045">Lock</tspan></tspan></text></g></g><g id="SvgjsG3046" transform="translate(308.4245420856239,804.5419913397894)"><path id="SvgjsPath3047" fill="none" stroke="rgba(184,184,184,1)" stroke-dasharray="3 4" stroke-width="2" d="M 0 0L 247.5221435170115 0L 247.5221435170115 261.1818141937256L 0 261.1818141937256Z"/></g><g id="SvgjsG3050" transform="translate(327.9245420856239,860.451064215766)"><path id="SvgjsPath3051" fill="none" stroke="rgba(184,184,184,1)" stroke-width="2" d="M 0 0L 208.5221435170115 0L 208.5221435170115 129L 0 129Z"/></g><g id="SvgjsG3054" transform="translate(327.9245420856239,860.451064215766)"><path id="SvgjsPath3055" fill="none" stroke="none" d="M 0 0L 85.44340793065908 0L 85.44340793065908 32.40403069390197L 0 32.40403069390197Z"/><g id="SvgjsG3056"><text id="SvgjsText3057" width="86" y="6.752" fill="#b8b8b8" align="middle" anchor="middle" family="Arial" font-family="Arial" font-size="13" font-weight="400" opacity="1" size="13" text-anchor="middle" transform="rotate(0)" weight="400"><tspan id="SvgjsTspan3058" x="43" dy="16"><tspan id="SvgjsTspan3059">DQNApex</tspan></tspan></text></g></g><g id="SvgjsG3060" transform="translate(343.4053706706194,903.5564144167124)"><path id="SvgjsPath3061" fill="none" stroke="rgba(184,184,184,1)" stroke-width="2" d="M 0 0L 93.07692307692264 0L 93.07692307692264 28.84615384615398L 0 28.84615384615398Z"/><g id="SvgjsG3062"><text id="SvgjsText3063" width="74" y="4.973" fill="#b8b8b8" align="middle" anchor="middle" family="Arial" font-family="Arial" font-size="13" font-weight="400" opacity="1" size="13" text-anchor="middle" transform="rotate(0)" weight="400"><tspan id="SvgjsTspan3064" x="47" dy="16"><tspan id="SvgjsTspan3065">QNet</tspan></tspan></text></g></g><g id="SvgjsG3066" transform="translate(343.4053706706194,940.5564144167125)"><path id="SvgjsPath3067" fill="none" stroke="rgba(184,184,184,1)" stroke-width="2" d="M 0 0L 93.07692307692264 0L 93.07692307692264 28.84615384615398L 0 28.84615384615398Z"/><g id="SvgjsG3068"><text id="SvgjsText3069" width="74" y="4.973" fill="#b8b8b8" align="middle" anchor="middle" family="Arial" font-family="Arial" font-size="13" font-weight="400" opacity="1" size="13" text-anchor="middle" transform="rotate(0)" weight="400"><tspan id="SvgjsTspan3070" x="47" dy="16"><tspan id="SvgjsTspan3071">QNet_target</tspan></tspan></text></g></g><g id="SvgjsG3072" transform="translate(457.4053706706193,933.9255467765244)"><path id="SvgjsPath3073" fill="none" stroke="rgba(184,184,184,1)" stroke-width="2" d="M 0 0L 61.83327961786648 0L 61.83327961786648 46.708342250606464L 0 46.708342250606464Z"/><g id="SvgjsG3074"><text id="SvgjsText3075" width="42" y="5.904" fill="#b8b8b8" align="middle" anchor="middle" family="Arial" font-family="Arial" font-size="13" font-weight="400" opacity="1" size="13" text-anchor="middle" transform="rotate(0)" weight="400"><tspan id="SvgjsTspan3076" x="31" dy="16"><tspan id="SvgjsTspan3077">Local </tspan></tspan><tspan id="SvgjsTspan3078" x="31" dy="16"><tspan id="SvgjsTspan3079">Buffer</tspan></tspan></text></g></g><g id="SvgjsG3080" transform="translate(354.9438322090807,1007.4510642157661)"><path id="SvgjsPath3081" fill="none" stroke="rgba(184,184,184,1)" stroke-width="2" d="M 0 20C 0 -6.666666666666666 40 -6.666666666666666 40 20C 40 46.66666666666667 0 46.66666666666667 0 20ZM 20 0L 26 5M 20 0L 26 -5"/></g><g id="SvgjsG3084" transform="translate(308.4245420856239,804.5419913397894)"><path id="SvgjsPath3085" fill="none" stroke="none" d="M 0 0L 84 0L 84 51.363630294799805L 0 51.363630294799805Z"/><g id="SvgjsG3086"><text id="SvgjsText3087" width="84" y="8.232" fill="#b8b8b8" align="middle" anchor="middle" family="Arial" font-family="Arial" font-size="13" font-weight="400" opacity="1" size="13" text-anchor="middle" transform="rotate(0)" weight="400"><tspan id="SvgjsTspan3088" x="42" dy="16"><tspan id="SvgjsTspan3089">Process</tspan></tspan><tspan id="SvgjsTspan3090" x="42" dy="16"><tspan id="SvgjsTspan3091">worker:1</tspan></tspan></text></g></g><g id="SvgjsG3092" transform="translate(392.4245420856239,1007.4510642157661)"><path id="SvgjsPath3093" fill="none" stroke="none" d="M 0 0L 120 0L 120 40L 0 40Z"/><g id="SvgjsG3094"><text id="SvgjsText3095" width="120" y="10.55" fill="#b8b8b8" align="middle" anchor="middle" family="Arial" font-family="Arial" font-size="13" font-weight="400" opacity="1" size="13" text-anchor="middle" transform="rotate(0)" weight="400"><tspan id="SvgjsTspan3096" x="60" dy="16"><tspan id="SvgjsTspan3097">Sample</tspan></tspan></text></g></g><g id="SvgjsG3098" transform="translate(457.4053706706193,896.0864156739324)"><path id="SvgjsPath3099" fill="none" stroke="rgba(184,184,184,1)" stroke-width="2" d="M 0 0L 62.01917141500462 0L 62.01917141500462 37.83913110259202L 0 37.83913110259202Z"/><g id="SvgjsG3100"><text id="SvgjsText3101" width="43" y="1.47" fill="#b8b8b8" align="middle" anchor="middle" family="Arial" font-family="Arial" font-size="13" font-weight="400" opacity="1" size="13" text-anchor="middle" transform="rotate(0)" weight="400"><tspan id="SvgjsTspan3102" x="31.5" dy="16"><tspan id="SvgjsTspan3103">Local</tspan></tspan><tspan id="SvgjsTspan3104" x="31.5" dy="16"><tspan id="SvgjsTspan3105">Tree</tspan></tspan></text></g></g><g id="SvgjsG3106" transform="translate(457.4053706706193,869.2682394044011)"><path id="SvgjsPath3107" fill="none" stroke="rgba(184,184,184,1)" stroke-width="2" d="M 0 0L 62.01917141500462 0L 62.01917141500462 26.81817626953125L 0 26.81817626953125Z"/><g id="SvgjsG3108"><text id="SvgjsText3109" width="43" y="3.959" fill="#b8b8b8" align="middle" anchor="middle" family="Arial" font-family="Arial" font-size="13" font-weight="400" opacity="1" size="13" text-anchor="middle" transform="rotate(0)" weight="400"><tspan id="SvgjsTspan3110" x="31.5" dy="16"><tspan id="SvgjsTspan3111">Lock</tspan></tspan></text></g></g><g id="SvgjsG3112" transform="translate(42.586169615661845,804.5419913397894)"><path id="SvgjsPath3113" fill="none" stroke="rgba(184,184,184,1)" stroke-dasharray="3 4" stroke-width="2" d="M 0 0L 247.5221435170115 0L 247.5221435170115 261.1818141937256L 0 261.1818141937256Z"/></g><g id="SvgjsG3116" transform="translate(191.56699820065722,933.9255467765242)"><path id="SvgjsPath3117" fill="none" stroke="rgba(184,184,184,1)" stroke-width="2" d="M 0 0L 61.83327961786648 0L 61.83327961786648 46.708342250606464L 0 46.708342250606464Z"/><g id="SvgjsG3118"><text id="SvgjsText3119" width="42" y="5.904" fill="#b8b8b8" align="middle" anchor="middle" family="Arial" font-family="Arial" font-size="13" font-weight="400" opacity="1" size="13" text-anchor="middle" transform="rotate(0)" weight="400"><tspan id="SvgjsTspan3120" x="31" dy="16"><tspan id="SvgjsTspan3121">Local </tspan></tspan><tspan id="SvgjsTspan3122" x="31" dy="16"><tspan id="SvgjsTspan3123">Buffer</tspan></tspan></text></g></g><g id="SvgjsG3124" transform="translate(42.586169615661845,804.5419913397894)"><path id="SvgjsPath3125" fill="none" stroke="none" d="M 0 0L 84 0L 84 51.363630294799805L 0 51.363630294799805Z"/><g id="SvgjsG3126"><text id="SvgjsText3127" width="84" y="8.232" fill="#b8b8b8" align="middle" anchor="middle" family="Arial" font-family="Arial" font-size="13" font-weight="400" opacity="1" size="13" text-anchor="middle" transform="rotate(0)" weight="400"><tspan id="SvgjsTspan3128" x="42" dy="16"><tspan id="SvgjsTspan3129">Process</tspan></tspan><tspan id="SvgjsTspan3130" x="42" dy="16"><tspan id="SvgjsTspan3131">worker:0</tspan></tspan></text></g></g><g id="SvgjsG3132" transform="translate(191.56699820065722,896.0864156739324)"><path id="SvgjsPath3133" fill="none" stroke="rgba(184,184,184,1)" stroke-width="2" d="M 0 0L 62.01917141500462 0L 62.01917141500462 37.83913110259202L 0 37.83913110259202Z"/><g id="SvgjsG3134"><text id="SvgjsText3135" width="43" y="1.47" fill="#b8b8b8" align="middle" anchor="middle" family="Arial" font-family="Arial" font-size="13" font-weight="400" opacity="1" size="13" text-anchor="middle" transform="rotate(0)" weight="400"><tspan id="SvgjsTspan3136" x="31.5" dy="16"><tspan id="SvgjsTspan3137">Local</tspan></tspan><tspan id="SvgjsTspan3138" x="31.5" dy="16"><tspan id="SvgjsTspan3139">Tree</tspan></tspan></text></g></g><g id="SvgjsG3140" transform="translate(191.56699820065722,869.2682394044011)"><path id="SvgjsPath3141" fill="none" stroke="rgba(184,184,184,1)" stroke-width="2" d="M 0 0L 62.01917141500462 0L 62.01917141500462 26.81817626953125L 0 26.81817626953125Z"/><g id="SvgjsG3142"><text id="SvgjsText3143" width="43" y="3.959" fill="#b8b8b8" align="middle" anchor="middle" family="Arial" font-family="Arial" font-size="13" font-weight="400" opacity="1" size="13" text-anchor="middle" transform="rotate(0)" weight="400"><tspan id="SvgjsTspan3144" x="31.5" dy="16"><tspan id="SvgjsTspan3145">Lock</tspan></tspan></text></g></g><g id="SvgjsG3146" transform="translate(269.48304575733914,626.7641830444336)"><path id="SvgjsPath3147" fill="none" stroke="rgba(184,184,184,1)" stroke-width="2" d="M 0 0L 393.84848954942504 0L 393.84848954942504 50.795534384371194L 0 50.795534384371194Z"/><g id="SvgjsG3148"><text id="SvgjsText3149" width="374" y="7.948" fill="#b8b8b8" align="middle" anchor="middle" family="Arial" font-family="Arial" font-size="13" font-weight="400" opacity="1" size="13" text-anchor="middle" transform="rotate(0)" weight="400"><tspan id="SvgjsTspan3150" x="197" dy="16"><tspan id="SvgjsTspan3151">PrioritizedDistributedBuffer</tspan></tspan><tspan id="SvgjsTspan3152" x="197" dy="16"><tspan id="SvgjsTspan3153">(Interface)</tspan></tspan></text></g></g><g id="SvgjsG3154"><path id="SvgjsPath3155" fill="none" stroke="#b8b8b8" stroke-width="2" marker-end="url(#SvgjsMarker3156)" d="M466.40729053205166 677.5597174288048L466.40729053205166 719.413978416603L222.57658390815953 719.413978416603L222.57658390815953 869.2682394044011"/></g><g id="SvgjsG3158"><path id="SvgjsPath3159" fill="none" stroke="#b8b8b8" stroke-width="2" marker-end="url(#SvgjsMarker3160)" d="M466.40729053205166 677.5597174288048L466.40729053205166 719.413978416603L488.4149563781216 719.413978416603L488.4149563781216 869.2682394044011"/></g><g id="SvgjsG3162"><path id="SvgjsPath3163" fill="none" stroke="#b8b8b8" stroke-width="2" marker-end="url(#SvgjsMarker3166)" marker-start="url(#SvgjsMarker3164)" d="M466.40729053205166 677.5597174288048L466.40729053205166 719.413978416603L836.4149563781216 719.413978416603L836.4149563781216 869.2682394044011"/></g><g id="SvgjsG3168" transform="translate(494.8556559898577,467.03680629603843)"><path id="SvgjsPath3169" fill="none" stroke="none" d="M 0 0L 214.44508038433815 0L 214.44508038433815 80L 0 80Z"/><g id="SvgjsG3170"><text id="SvgjsText3171" width="215" y="1.7" fill="#b8b8b8" align="middle" anchor="start" family="Arial" font-family="Arial" font-size="12" font-weight="400" opacity="1" size="12" text-anchor="start" transform="rotate(0)" weight="400"><tspan id="SvgjsTspan3172" x="0" dy="15"><tspan id="SvgjsTspan3173">Begin sample:</tspan></tspan><tspan id="SvgjsTspan3174" x="0" dy="15"><tspan id="SvgjsTspan3175">1. get all local weight sum</tspan></tspan><tspan id="SvgjsTspan3176" x="0" dy="15"><tspan id="SvgjsTspan3177">2. determine local sample probability</tspan></tspan><tspan id="SvgjsTspan3178" x="0" dy="15"><tspan id="SvgjsTspan3179">3. get samples</tspan></tspan></text></g></g><g id="SvgjsG3182" transform="translate(52.608568747359925,731.1619502366192)"><path id="SvgjsPath3183" fill="none" stroke="none" d="M 0 0L 131.08843702769497 0L 131.08843702769497 53.69315993183784L 0 53.69315993183784Z"/><g id="SvgjsG3184"><text id="SvgjsText3185" width="132" y="-11.453" fill="#b8b8b8" align="middle" anchor="start" family="Arial" font-family="Arial" font-size="12" font-weight="400" opacity="1" size="12" text-anchor="start" transform="rotate(0)" weight="400"><tspan id="SvgjsTspan3186" x="0" dy="15"><tspan id="SvgjsTspan3187">Begin local sample:</tspan></tspan><tspan id="SvgjsTspan3188" x="0" dy="15"><tspan id="SvgjsTspan3189">1. acquire lock</tspan></tspan><tspan id="SvgjsTspan3190" x="0" dy="15"><tspan id="SvgjsTspan3191">2. return batch, is-</tspan></tspan><tspan id="SvgjsTspan3192" x="0" dy="15"><tspan id="SvgjsTspan3193">weight, index</tspan></tspan></text></g></g><g id="SvgjsG3196" transform="translate(131.60856874735993,987.3939661498016)"><path id="SvgjsPath3197" fill="none" stroke="none" d="M 0 0L 131.92268125264007 0L 131.92268125264007 71.47786457370057L 0 71.47786457370057Z"/><g id="SvgjsG3198"><text id="SvgjsText3199" width="132" y="-2.561" fill="#b8b8b8" align="middle" anchor="start" family="Arial" font-family="Arial" font-size="12" font-weight="400" opacity="1" size="12" text-anchor="start" transform="rotate(0)" weight="400"><tspan id="SvgjsTspan3200" x="0" dy="15"><tspan id="SvgjsTspan3201">Begin local append:</tspan></tspan><tspan id="SvgjsTspan3202" x="0" dy="15"><tspan id="SvgjsTspan3203">1. acquire lock</tspan></tspan><tspan id="SvgjsTspan3204" x="0" dy="15"><tspan id="SvgjsTspan3205">2. set taint table</tspan></tspan><tspan id="SvgjsTspan3206" x="0" dy="15"><tspan id="SvgjsTspan3207">3. update weight tree</tspan></tspan><tspan id="SvgjsTspan3208" x="0" dy="15"><tspan id="SvgjsTspan3209">4. append sample</tspan></tspan></text></g></g><g id="SvgjsG3210" transform="translate(49.3474969888542,858.2682394044011)"><path id="SvgjsPath3211" fill="none" stroke="none" d="M 0 0L 117.05049838302338 0L 117.05049838302338 95.41854921161075L 0 95.41854921161075Z"/><g id="SvgjsG3212"><text id="SvgjsText3213" width="118" y="2.409" fill="#b8b8b8" align="middle" anchor="start" family="Arial" font-family="Arial" font-size="12" font-weight="400" opacity="1" size="12" text-anchor="start" transform="rotate(0)" weight="400"><tspan id="SvgjsTspan3214" x="0" dy="15"><tspan id="SvgjsTspan3215">Begin local update </tspan></tspan><tspan id="SvgjsTspan3216" x="0" dy="15"><tspan id="SvgjsTspan3217">weight:</tspan></tspan><tspan id="SvgjsTspan3218" x="0" dy="15"><tspan id="SvgjsTspan3219">1. acquire lock</tspan></tspan><tspan id="SvgjsTspan3220" x="0" dy="15"><tspan id="SvgjsTspan3221">2. check taint table, </tspan></tspan><tspan id="SvgjsTspan3222" x="0" dy="15"><tspan id="SvgjsTspan3223">update is-weight of </tspan></tspan><tspan id="SvgjsTspan3224" x="0" dy="15"><tspan id="SvgjsTspan3225">untainted entries</tspan></tspan></text></g></g><g id="SvgjsG3226" transform="translate(494.8556559898577,547.0368062960384)"><path id="SvgjsPath3227" fill="none" stroke="none" d="M 0 0L 214.44508038433815 0L 214.44508038433815 80L 0 80Z"/><g id="SvgjsG3228"><text id="SvgjsText3229" width="215" y="9.2" fill="#b8b8b8" align="middle" anchor="start" family="Arial" font-family="Arial" font-size="12" font-weight="400" opacity="1" size="12" text-anchor="start" transform="rotate(0)" weight="400"><tspan id="SvgjsTspan3230" x="0" dy="15"><tspan id="SvgjsTspan3231">Begin update weight:</tspan></tspan><tspan id="SvgjsTspan3232" x="0" dy="15"><tspan id="SvgjsTspan3233">1. send each partition of the new weight </tspan></tspan><tspan id="SvgjsTspan3234" x="0" dy="15"><tspan id="SvgjsTspan3235">sum, index to their respective origins</tspan></tspan></text></g></g><g id="SvgjsG3238" transform="translate(69.4172854953344,1003.1328984366519)"><path id="SvgjsPath3239" fill="none" stroke="rgba(184,184,184,1)" stroke-width="2" d="M 0 20C 0 -6.666666666666666 40 -6.666666666666666 40 20C 40 46.66666666666667 0 46.66666666666667 0 20ZM 20 0L 26 5M 20 0L 26 -5"/></g><g id="SvgjsG3242" transform="translate(170.89799537187758,376.70360143256914)"><path id="SvgjsPath3243" fill="none" stroke="rgba(184,184,184,1)" stroke-width="2" d="M 0 0L 208.5221435170115 0L 208.5221435170115 129L 0 129Z"/></g><g id="SvgjsG3246" transform="translate(170.89799537187758,376.70360143256914)"><path id="SvgjsPath3247" fill="none" stroke="none" d="M 0 0L 85.44340793065908 0L 85.44340793065908 32.40403069390197L 0 32.40403069390197Z"/><g id="SvgjsG3248"><text id="SvgjsText3249" width="86" y="6.752" fill="#b8b8b8" align="middle" anchor="middle" family="Arial" font-family="Arial" font-size="13" font-weight="400" opacity="1" size="13" text-anchor="middle" transform="rotate(0)" weight="400"><tspan id="SvgjsTspan3250" x="43" dy="16"><tspan id="SvgjsTspan3251">DQNApex</tspan></tspan></text></g></g><g id="SvgjsG3252" transform="translate(186.37882395687308,419.80895163351556)"><path id="SvgjsPath3253" fill="none" stroke="rgba(184,184,184,1)" stroke-width="2" d="M 0 0L 93.07692307692264 0L 93.07692307692264 28.84615384615398L 0 28.84615384615398Z"/><g id="SvgjsG3254"><text id="SvgjsText3255" width="74" y="4.973" fill="#b8b8b8" align="middle" anchor="middle" family="Arial" font-family="Arial" font-size="13" font-weight="400" opacity="1" size="13" text-anchor="middle" transform="rotate(0)" weight="400"><tspan id="SvgjsTspan3256" x="47" dy="16"><tspan id="SvgjsTspan3257">QNet</tspan></tspan></text></g></g><g id="SvgjsG3258" transform="translate(186.37882395687308,456.80895163351556)"><path id="SvgjsPath3259" fill="none" stroke="rgba(184,184,184,1)" stroke-width="2" d="M 0 0L 93.07692307692264 0L 93.07692307692264 28.84615384615398L 0 28.84615384615398Z"/><g id="SvgjsG3260"><text id="SvgjsText3261" width="74" y="4.973" fill="#b8b8b8" align="middle" anchor="middle" family="Arial" font-family="Arial" font-size="13" font-weight="400" opacity="1" size="13" text-anchor="middle" transform="rotate(0)" weight="400"><tspan id="SvgjsTspan3262" x="47" dy="16"><tspan id="SvgjsTspan3263">QNet_target</tspan></tspan></text></g></g><g id="SvgjsG3264" transform="translate(300.378823956873,450.1780839933275)"><path id="SvgjsPath3265" fill="none" stroke="rgba(115,115,115,1)" stroke-dasharray="10 6" stroke-width="2" d="M 0 0L 61.83327961786648 0L 61.83327961786648 46.708342250606464L 0 46.708342250606464Z"/><g id="SvgjsG3266"><text id="SvgjsText3267" width="42" y="5.904" fill="#5c5c5c" align="middle" anchor="middle" family="Arial" font-family="Arial" font-size="13" font-weight="400" opacity="1" size="13" text-anchor="middle" transform="rotate(0)" weight="400"><tspan id="SvgjsTspan3268" x="31" dy="16"><tspan id="SvgjsTspan3269">Local </tspan></tspan><tspan id="SvgjsTspan3270" x="31" dy="16"><tspan id="SvgjsTspan3271">Buffer</tspan></tspan></text></g></g><g id="SvgjsG3272" transform="translate(300.378823956873,412.3389528907355)"><path id="SvgjsPath3273" fill="none" stroke="rgba(115,115,115,1)" stroke-dasharray="10 6" stroke-width="2" d="M 0 0L 62.01917141500462 0L 62.01917141500462 37.83913110259202L 0 37.83913110259202Z"/><g id="SvgjsG3274"><text id="SvgjsText3275" width="43" y="1.47" fill="#5c5c5c" align="middle" anchor="middle" family="Arial" font-family="Arial" font-size="13" font-weight="400" opacity="1" size="13" text-anchor="middle" transform="rotate(0)" weight="400"><tspan id="SvgjsTspan3276" x="31.5" dy="16"><tspan id="SvgjsTspan3277">Local</tspan></tspan><tspan id="SvgjsTspan3278" x="31.5" dy="16"><tspan id="SvgjsTspan3279">Tree</tspan></tspan></text></g></g><g id="SvgjsG3280" transform="translate(300.378823956873,385.5207766212043)"><path id="SvgjsPath3281" fill="none" stroke="rgba(115,115,115,1)" stroke-dasharray="10 6" stroke-width="2" d="M 0 0L 62.01917141500462 0L 62.01917141500462 26.81817626953125L 0 26.81817626953125Z"/><g id="SvgjsG3282"><text id="SvgjsText3283" width="43" y="3.959" fill="#5c5c5c" align="middle" anchor="middle" family="Arial" font-family="Arial" font-size="13" font-weight="400" opacity="1" size="13" text-anchor="middle" transform="rotate(0)" weight="400"><tspan id="SvgjsTspan3284" x="31.5" dy="16"><tspan id="SvgjsTspan3285">Lock</tspan></tspan></text></g></g><g id="SvgjsG3286"><path id="SvgjsPath3287" fill="none" stroke="#b8b8b8" stroke-width="2" marker-end="url(#SvgjsMarker3290)" marker-start="url(#SvgjsMarker3288)" d="M331.2954637658063 496.886426243934L331.2954637658063 561.8253046441838L466.40729053205166 561.8253046441838L466.40729053205166 626.7641830444336"/></g><g id="SvgjsG3292"><path id="SvgjsPath3293" fill="none" stroke="#b8b8b8" stroke-dasharray="3 3" stroke-width="2" marker-end="url(#SvgjsMarker3294)" d="M232.9172854953344 419.80895163351556L466.4072905320518 283.5243087344698"/></g></svg>