<svg xmlns="http://www.w3.org/2000/svg" xmlns:svgjs="http://svgjs.com/svgjs" xmlns:xlink="http://www.w3.org/1999/xlink" id="SvgjsSvg1006" width="961.869" height="1113" version="1.1"><defs id="SvgjsDefs1007"><marker id="SvgjsMarker1187" stroke-dasharray="0 0" markerHeight="12" markerUnits="userSpaceOnUse" markerWidth="16" orient="auto" refX="16" refY="6" viewBox="0 0 16 12"><path id="SvgjsPath1188" fill="#b8b8b8" stroke="#b8b8b8" stroke-width="2" d="M0,2 L14,6 L0,11 L0,2"/></marker><marker id="SvgjsMarker1191" stroke-dasharray="0 0" markerHeight="12" markerUnits="userSpaceOnUse" markerWidth="16" orient="auto" refX="16" refY="6" viewBox="0 0 16 12"><path id="SvgjsPath1192" fill="#b8b8b8" stroke="#b8b8b8" stroke-width="2" d="M0,2 L14,6 L0,11 L0,2"/></marker><marker id="SvgjsMarker1195" stroke-dasharray="0 0" markerHeight="12" markerUnits="userSpaceOnUse" markerWidth="16" orient="auto" refX="16" refY="6" viewBox="0 0 16 12"><path id="SvgjsPath1196" fill="#b8b8b8" stroke="#b8b8b8" stroke-width="2" d="M0,2 L14,6 L0,11 L0,2"/></marker><marker id="SvgjsMarker1221" stroke-dasharray="0 0" markerHeight="12" markerUnits="userSpaceOnUse" markerWidth="16" orient="auto" refX="16" refY="6" viewBox="0 0 16 12"><path id="SvgjsPath1222" fill="#b8b8b8" stroke="#b8b8b8" stroke-width="2" d="M0,2 L14,6 L0,11 L0,2"/></marker><marker id="SvgjsMarker1225" stroke-dasharray="0 0" markerHeight="12" markerUnits="userSpaceOnUse" markerWidth="16" orient="auto" refX="16" refY="6" viewBox="0 0 16 12"><path id="SvgjsPath1226" fill="#b8b8b8" stroke="#b8b8b8" stroke-width="2" d="M0,2 L14,6 L0,11 L0,2"/></marker><marker id="SvgjsMarker1229" stroke-dasharray="0 0" markerHeight="12" markerUnits="userSpaceOnUse" markerWidth="16" orient="auto" refX="0" refY="6" viewBox="0 0 16 12"><path id="SvgjsPath1230" fill="#b8b8b8" stroke="#b8b8b8" stroke-width="2" d="M15,1.5 L2,6 L15,10.5"/></marker><marker id="SvgjsMarker1231" stroke-dasharray="0 0" markerHeight="12" markerUnits="userSpaceOnUse" markerWidth="16" orient="auto" refX="16" refY="6" viewBox="0 0 16 12"><path id="SvgjsPath1232" fill="#b8b8b8" stroke="#b8b8b8" stroke-width="2" d="M0,2 L14,6 L0,11 L0,2"/></marker><marker id="SvgjsMarker1271" stroke-dasharray="0 0" markerHeight="12" markerUnits="userSpaceOnUse" markerWidth="16" orient="auto" refX="0" refY="6" viewBox="0 0 16 12"><path id="SvgjsPath1272" fill="#b8b8b8" stroke="#b8b8b8" stroke-width="2" d="M15,1.5 L2,6 L15,10.5"/></marker><marker id="SvgjsMarker1273" stroke-dasharray="0 0" markerHeight="12" markerUnits="userSpaceOnUse" markerWidth="16" orient="auto" refX="16" refY="6" viewBox="0 0 16 12"><path id="SvgjsPath1274" fill="#b8b8b8" stroke="#b8b8b8" stroke-width="2" d="M0,2 L14,6 L0,11 L0,2"/></marker><marker id="SvgjsMarker1397" stroke-dasharray="0 0" markerHeight="12" markerUnits="userSpaceOnUse" markerWidth="16" orient="auto" refX="16" refY="6" viewBox="0 0 16 12"><path id="SvgjsPath1398" fill="#b8b8b8" stroke="#b8b8b8" stroke-width="2" d="M0,2 L14,6 L0,11 L0,2"/></marker><marker id="SvgjsMarker1401" stroke-dasharray="0 0" markerHeight="12" markerUnits="userSpaceOnUse" markerWidth="16" orient="auto" refX="16" refY="6" viewBox="0 0 16 12"><path id="SvgjsPath1402" fill="#b8b8b8" stroke="#b8b8b8" stroke-width="2" d="M0,2 L14,6 L0,11 L0,2"/></marker></defs><rect id="SvgjsRect1008" width="961.869" height="1113" fill="#2f2f2f"/><g id="SvgjsG1009" transform="translate(44.116865036720924,803.8987626144946)"><path id="SvgjsPath1010" fill="none" stroke="rgba(184,184,184,1)" stroke-dasharray="3 4" stroke-width="2" d="M 0 0L 247.5221435170115 0L 247.5221435170115 261.1818141937256L 0 261.1818141937256Z"/></g><g id="SvgjsG1013" transform="translate(33.65655661743412,65.0135361706769)"><path id="SvgjsPath1014" fill="none" stroke="rgba(184,184,184,1)" stroke-dasharray="3 4" stroke-width="2" d="M 0 0L 882.0205650800538 0L 882.0205650800538 1016.9135675077084L 0 1016.9135675077084Z"/></g><g id="SvgjsG1017" transform="translate(25.009121741777562,25.0135361706769)"><path id="SvgjsPath1018" fill="none" stroke="rgba(184,184,184,1)" stroke-dasharray="3 4" stroke-width="2" d="M 0 0L 897.2699276017554 0L 897.2699276017554 1062.3586155220314L 0 1062.3586155220314Z"/></g><g id="SvgjsG1021" transform="translate(25.009121741777562,25.0135361706769)"><path id="SvgjsPath1022" fill="none" stroke="none" d="M 0 0L 120 0L 120 40L 0 40Z"/><g id="SvgjsG1023"><text id="SvgjsText1024" width="120" y="10.55" fill="#b8b8b8" align="middle" anchor="middle" family="Arial" font-family="Arial" font-size="13" font-weight="400" opacity="1" size="13" text-anchor="middle" transform="rotate(0)" weight="400"><tspan id="SvgjsTspan1025" x="60" dy="16"><tspan id="SvgjsTspan1026">Distributed world</tspan></tspan></text></g></g><g id="SvgjsG1027" transform="translate(656.424557344413,804.541998969184)"><path id="SvgjsPath1028" fill="none" stroke="rgba(184,184,184,1)" stroke-dasharray="3 4" stroke-width="2" d="M 0 0L 247.5221435170115 0L 247.5221435170115 261.1818141937256L 0 261.1818141937256Z"/></g><g id="SvgjsG1031" transform="translate(675.924557344413,860.4510718451605)"><path id="SvgjsPath1032" fill="none" stroke="rgba(184,184,184,1)" stroke-width="2" d="M 0 0L 208.5221435170115 0L 208.5221435170115 129L 0 129Z"/></g><g id="SvgjsG1035" transform="translate(675.924557344413,860.4510718451605)"><path id="SvgjsPath1036" fill="none" stroke="none" d="M 0 0L 85.44340793065908 0L 85.44340793065908 32.40403069390197L 0 32.40403069390197Z"/><g id="SvgjsG1037"><text id="SvgjsText1038" width="86" y="6.752" fill="#b8b8b8" align="middle" anchor="middle" family="Arial" font-family="Arial" font-size="13" font-weight="400" opacity="1" size="13" text-anchor="middle" transform="rotate(0)" weight="400"><tspan id="SvgjsTspan1039" x="43" dy="16"><tspan id="SvgjsTspan1040">IMPALA</tspan></tspan></text></g></g><g id="SvgjsG1041" transform="translate(691.4053859294085,903.556422046107)"><path id="SvgjsPath1042" fill="none" stroke="rgba(184,184,184,1)" stroke-width="2" d="M 0 0L 93.07692307692264 0L 93.07692307692264 28.84615384615398L 0 28.84615384615398Z"/><g id="SvgjsG1043"><text id="SvgjsText1044" width="74" y="4.973" fill="#b8b8b8" align="middle" anchor="middle" family="Arial" font-family="Arial" font-size="13" font-weight="400" opacity="1" size="13" text-anchor="middle" transform="rotate(0)" weight="400"><tspan id="SvgjsTspan1045" x="47" dy="16"><tspan id="SvgjsTspan1046">Actor</tspan></tspan></text></g></g><g id="SvgjsG1047" transform="translate(691.4053859294085,940.556422046107)"><path id="SvgjsPath1048" fill="none" stroke="rgba(184,184,184,1)" stroke-width="2" d="M 0 0L 93.07692307692264 0L 93.07692307692264 28.84615384615398L 0 28.84615384615398Z"/><g id="SvgjsG1049"><text id="SvgjsText1050" width="74" y="4.973" fill="#b8b8b8" align="middle" anchor="middle" family="Arial" font-family="Arial" font-size="13" font-weight="400" opacity="1" size="13" text-anchor="middle" transform="rotate(0)" weight="400"><tspan id="SvgjsTspan1051" x="47" dy="16"><tspan id="SvgjsTspan1052">Critic</tspan></tspan></text></g></g><g id="SvgjsG1053" transform="translate(805.4053859294083,924.8556580176662)"><path id="SvgjsPath1054" fill="none" stroke="rgba(184,184,184,1)" stroke-width="2" d="M 0 0L 61.83327961786648 0L 61.83327961786648 46.708342250606464L 0 46.708342250606464Z"/><g id="SvgjsG1055"><text id="SvgjsText1056" width="42" y="5.904" fill="#b8b8b8" align="middle" anchor="middle" family="Arial" font-family="Arial" font-size="13" font-weight="400" opacity="1" size="13" text-anchor="middle" transform="rotate(0)" weight="400"><tspan id="SvgjsTspan1057" x="31" dy="16"><tspan id="SvgjsTspan1058">Local </tspan></tspan><tspan id="SvgjsTspan1059" x="31" dy="16"><tspan id="SvgjsTspan1060">Buffer</tspan></tspan></text></g></g><g id="SvgjsG1061" transform="translate(702.9438474678698,1007.4510718451606)"><path id="SvgjsPath1062" fill="none" stroke="rgba(184,184,184,1)" stroke-width="2" d="M 0 20C 0 -6.666666666666666 40 -6.666666666666666 40 20C 40 46.66666666666667 0 46.66666666666667 0 20ZM 20 0L 26 5M 20 0L 26 -5"/></g><g id="SvgjsG1065" transform="translate(656.424557344413,804.541998969184)"><path id="SvgjsPath1066" fill="none" stroke="none" d="M 0 0L 84 0L 84 51.363630294799805L 0 51.363630294799805Z"/><g id="SvgjsG1067"><text id="SvgjsText1068" width="84" y="8.232" fill="#b8b8b8" align="middle" anchor="middle" family="Arial" font-family="Arial" font-size="13" font-weight="400" opacity="1" size="13" text-anchor="middle" transform="rotate(0)" weight="400"><tspan id="SvgjsTspan1069" x="42" dy="16"><tspan id="SvgjsTspan1070">Process</tspan></tspan><tspan id="SvgjsTspan1071" x="42" dy="16"><tspan id="SvgjsTspan1072">worker:n</tspan></tspan></text></g></g><g id="SvgjsG1073" transform="translate(740.424557344413,1007.4510718451606)"><path id="SvgjsPath1074" fill="none" stroke="none" d="M 0 0L 120 0L 120 40L 0 40Z"/><g id="SvgjsG1075"><text id="SvgjsText1076" width="120" y="10.55" fill="#b8b8b8" align="middle" anchor="middle" family="Arial" font-family="Arial" font-size="13" font-weight="400" opacity="1" size="13" text-anchor="middle" transform="rotate(0)" weight="400"><tspan id="SvgjsTspan1077" x="60" dy="16"><tspan id="SvgjsTspan1078">Sample</tspan></tspan></text></g></g><g id="SvgjsG1079" transform="translate(547.2194211983385,909.9965277777777)"><path id="SvgjsPath1080" fill="none" stroke="none" d="M 0 0L 120 0L 120 40L 0 40Z"/><g id="SvgjsG1081"><text id="SvgjsText1082" width="120" y="7.6" fill="#b8b8b8" align="middle" anchor="middle" family="Arial" font-family="Arial" font-size="16" font-weight="700" opacity="1" size="16" text-anchor="middle" transform="rotate(0)" weight="700"><tspan id="SvgjsTspan1083" x="60" dy="20"><tspan id="SvgjsTspan1084">... ... ...</tspan></tspan></text></g></g><g id="SvgjsG1085" transform="translate(146.89801063066665,325.33997876716387)"><path id="SvgjsPath1086" fill="none" stroke="rgba(184,184,184,1)" stroke-dasharray="3 4" stroke-width="2" d="M 0 0L 247.5221435170115 0L 247.5221435170115 261.1818141937256L 0 261.1818141937256Z"/></g><g id="SvgjsG1089" transform="translate(193.41730075412346,528.2490516431403)"><path id="SvgjsPath1090" fill="none" stroke="rgba(184,184,184,1)" stroke-width="2" d="M 0 20C 0 -6.666666666666666 40 -6.666666666666666 40 20C 40 46.66666666666667 0 46.66666666666667 0 20ZM 20 0L 26 5M 20 0L 26 -5"/></g><g id="SvgjsG1093" transform="translate(146.89801063066665,325.33997876716387)"><path id="SvgjsPath1094" fill="none" stroke="none" d="M 0 0L 84 0L 84 51.363630294799805L 0 51.363630294799805Z"/><g id="SvgjsG1095"><text id="SvgjsText1096" width="84" y="8.232" fill="#b8b8b8" align="middle" anchor="middle" family="Arial" font-family="Arial" font-size="13" font-weight="400" opacity="1" size="13" text-anchor="middle" transform="rotate(0)" weight="400"><tspan id="SvgjsTspan1097" x="42" dy="16"><tspan id="SvgjsTspan1098">Process</tspan></tspan><tspan id="SvgjsTspan1099" x="42" dy="16"><tspan id="SvgjsTspan1100">learner:0</tspan></tspan></text></g></g><g id="SvgjsG1101" transform="translate(230.89801063066665,528.2490516431403)"><path id="SvgjsPath1102" fill="none" stroke="none" d="M 0 0L 120 0L 120 40L 0 40Z"/><g id="SvgjsG1103"><text id="SvgjsText1104" width="120" y="10.55" fill="#b8b8b8" align="middle" anchor="middle" family="Arial" font-family="Arial" font-size="13" font-weight="400" opacity="1" size="13" text-anchor="middle" transform="rotate(0)" weight="400"><tspan id="SvgjsTspan1105" x="60" dy="16"><tspan id="SvgjsTspan1106">Update</tspan></tspan></text></g></g><g id="SvgjsG1107" transform="translate(33.65655661743412,65.0135361706769)"><path id="SvgjsPath1108" fill="none" stroke="none" d="M 0 0L 101.85925651403358 0L 101.85925651403358 38.02341298703794L 0 38.02341298703794Z"/><g id="SvgjsG1109"><text id="SvgjsText1110" width="102" y="9.562" fill="#b8b8b8" align="middle" anchor="middle" family="Arial" font-family="Arial" font-size="13" font-weight="400" opacity="1" size="13" text-anchor="middle" transform="rotate(0)" weight="400"><tspan id="SvgjsTspan1111" x="51" dy="16"><tspan id="SvgjsTspan1112">IMPALA group</tspan></tspan></text></g></g><g id="SvgjsG1113" transform="translate(355.9438474678698,132.865213259302)"><path id="SvgjsPath1114" fill="none" stroke="rgba(184,184,184,1)" stroke-width="2" d="M 0 0L 220.92691664594213 0L 220.92691664594213 150.65910310456232L 0 150.65910310456232Z"/></g><g id="SvgjsG1117" transform="translate(384.80775347788915,135.79450618859494)"><path id="SvgjsPath1118" fill="none" stroke="none" d="M 0 0L 163.1991046259031 0L 163.1991046259031 32.161915133697846L 0 32.161915133697846Z"/><g id="SvgjsG1119"><text id="SvgjsText1120" width="164" y="6.631" fill="#b8b8b8" align="middle" anchor="middle" family="Arial" font-family="Arial" font-size="13" font-weight="400" opacity="1" size="13" text-anchor="middle" transform="rotate(0)" weight="400"><tspan id="SvgjsTspan1121" x="82" dy="16"><tspan id="SvgjsTspan1122">OrderedServer</tspan></tspan></text></g></g><g id="SvgjsG1123" transform="translate(366.8071972814612,174.0198974609375)"><path id="SvgjsPath1124" fill="none" stroke="rgba(184,184,184,1)" stroke-width="2" d="M 0 0L 50.30202455714743 0L 50.30202455714743 30L 0 30Z"/><g id="SvgjsG1125"><text id="SvgjsText1126" width="31" y="5.55" fill="#b8b8b8" align="middle" anchor="middle" family="Arial" font-family="Arial" font-size="13" font-weight="400" opacity="1" size="13" text-anchor="middle" transform="rotate(0)" weight="400"><tspan id="SvgjsTspan1127" x="25.5" dy="16"><tspan id="SvgjsTspan1128">key1</tspan></tspan></text></g></g><g id="SvgjsG1129" transform="translate(416.6584318243382,174.0198974609375)"><path id="SvgjsPath1130" fill="none" stroke="rgba(184,184,184,1)" stroke-width="2" d="M 0 0L 67.36441749762446 0L 67.36441749762446 30L 0 30Z"/><g id="SvgjsG1131"><text id="SvgjsText1132" width="48" y="5.55" fill="#b8b8b8" align="middle" anchor="middle" family="Arial" font-family="Arial" font-size="13" font-weight="400" opacity="1" size="13" text-anchor="middle" transform="rotate(0)" weight="400"><tspan id="SvgjsTspan1133" x="34" dy="16"><tspan id="SvgjsTspan1134">value1</tspan></tspan></text></g></g><g id="SvgjsG1135" transform="translate(484.85841112453056,174.0198974609375)"><path id="SvgjsPath1136" fill="none" stroke="rgba(184,184,184,1)" stroke-width="2" d="M 0 0L 80.4814252314087 0L 80.4814252314087 30L 0 30Z"/><g id="SvgjsG1137"><text id="SvgjsText1138" width="61" y="5.55" fill="#b8b8b8" align="middle" anchor="middle" family="Arial" font-family="Arial" font-size="13" font-weight="400" opacity="1" size="13" text-anchor="middle" transform="rotate(0)" weight="400"><tspan id="SvgjsTspan1139" x="40.5" dy="16"><tspan id="SvgjsTspan1140">&lt;version&gt;</tspan></tspan></text></g></g><g id="SvgjsG1141" transform="translate(366.9555993672668,208.69628953835382)"><path id="SvgjsPath1142" fill="none" stroke="rgba(184,184,184,1)" stroke-width="2" d="M 0 0L 50.30202455714743 0L 50.30202455714743 30L 0 30Z"/><g id="SvgjsG1143"><text id="SvgjsText1144" width="31" y="5.55" fill="#b8b8b8" align="middle" anchor="middle" family="Arial" font-family="Arial" font-size="13" font-weight="400" opacity="1" size="13" text-anchor="middle" transform="rotate(0)" weight="400"><tspan id="SvgjsTspan1145" x="25.5" dy="16"><tspan id="SvgjsTspan1146">key2</tspan></tspan></text></g></g><g id="SvgjsG1147" transform="translate(416.80683391014384,208.6849698408646)"><path id="SvgjsPath1148" fill="none" stroke="rgba(184,184,184,1)" stroke-width="2" d="M 0 0L 67.36441749762446 0L 67.36441749762446 30L 0 30Z"/><g id="SvgjsG1149"><text id="SvgjsText1150" width="48" y="5.55" fill="#b8b8b8" align="middle" anchor="middle" family="Arial" font-family="Arial" font-size="13" font-weight="400" opacity="1" size="13" text-anchor="middle" transform="rotate(0)" weight="400"><tspan id="SvgjsTspan1151" x="34" dy="16"><tspan id="SvgjsTspan1152">value2</tspan></tspan></text></g></g><g id="SvgjsG1153" transform="translate(485.0068132103362,208.9694411257929)"><path id="SvgjsPath1154" fill="none" stroke="rgba(184,184,184,1)" stroke-width="2" d="M 0 0L 80.4814252314087 0L 80.4814252314087 30L 0 30Z"/><g id="SvgjsG1155"><text id="SvgjsText1156" width="61" y="5.55" fill="#b8b8b8" align="middle" anchor="middle" family="Arial" font-family="Arial" font-size="13" font-weight="400" opacity="1" size="13" text-anchor="middle" transform="rotate(0)" weight="400"><tspan id="SvgjsTspan1157" x="40.5" dy="16"><tspan id="SvgjsTspan1158">&lt;version&gt;</tspan></tspan></text></g></g><g id="SvgjsG1159" transform="translate(366.82884913733744,244.0198974609375)"><path id="SvgjsPath1160" fill="none" stroke="rgba(184,184,184,1)" stroke-width="2" d="M 0 0L 50.30202455714743 0L 50.30202455714743 30L 0 30Z"/><g id="SvgjsG1161"><text id="SvgjsText1162" width="31" y="5.55" fill="#b8b8b8" align="middle" anchor="middle" family="Arial" font-family="Arial" font-size="13" font-weight="400" opacity="1" size="13" text-anchor="middle" transform="rotate(0)" weight="400"><tspan id="SvgjsTspan1163" x="25.5" dy="16"><tspan id="SvgjsTspan1164">key3</tspan></tspan></text></g></g><g id="SvgjsG1165" transform="translate(416.68008368021447,244.0198974609375)"><path id="SvgjsPath1166" fill="none" stroke="rgba(184,184,184,1)" stroke-width="2" d="M 0 0L 67.36441749762446 0L 67.36441749762446 30L 0 30Z"/><g id="SvgjsG1167"><text id="SvgjsText1168" width="48" y="5.55" fill="#b8b8b8" align="middle" anchor="middle" family="Arial" font-family="Arial" font-size="13" font-weight="400" opacity="1" size="13" text-anchor="middle" transform="rotate(0)" weight="400"><tspan id="SvgjsTspan1169" x="34" dy="16"><tspan id="SvgjsTspan1170">value3</tspan></tspan></text></g></g><g id="SvgjsG1171" transform="translate(484.8800629804068,244.0198974609375)"><path id="SvgjsPath1172" fill="none" stroke="rgba(184,184,184,1)" stroke-width="2" d="M 0 0L 80.4814252314087 0L 80.4814252314087 30L 0 30Z"/><g id="SvgjsG1173"><text id="SvgjsText1174" width="61" y="5.55" fill="#b8b8b8" align="middle" anchor="middle" family="Arial" font-family="Arial" font-size="13" font-weight="400" opacity="1" size="13" text-anchor="middle" transform="rotate(0)" weight="400"><tspan id="SvgjsTspan1175" x="40.5" dy="16"><tspan id="SvgjsTspan1176">&lt;version&gt;</tspan></tspan></text></g></g><g id="SvgjsG1177" transform="translate(410.25242873443995,299.7452586547658)"><path id="SvgjsPath1178" fill="none" stroke="none" d="M 0 0L 120 0L 120 40L 0 40Z"/><g id="SvgjsG1179"><text id="SvgjsText1180" width="120" y="2.55" fill="#b8b8b8" align="middle" anchor="middle" family="Arial" font-family="Arial" font-size="13" font-weight="400" opacity="1" size="13" text-anchor="middle" transform="rotate(0)" weight="400"><tspan id="SvgjsTspan1181" x="60" dy="16"><tspan id="SvgjsTspan1182">New</tspan></tspan><tspan id="SvgjsTspan1183" x="60" dy="16"><tspan id="SvgjsTspan1184">parameters</tspan></tspan></text></g></g><g id="SvgjsG1185"><path id="SvgjsPath1186" fill="none" stroke="#b8b8b8" stroke-dasharray="3 3" stroke-width="2" marker-end="url(#SvgjsMarker1187)" d="M576.8707641138119 208.19476481158318C 918.844702826606 204.13984637790253 936.6224806043836 568.584290822347 780.1856291029187 804.541998969184"/></g><g id="SvgjsG1189"><path id="SvgjsPath1190" fill="none" stroke="#b8b8b8" stroke-dasharray="3 3" stroke-width="2" marker-end="url(#SvgjsMarker1191)" d="M861.0669250488281 607.4731797112358C 817.7335917154948 725.2509574890137 716.6224806043837 766.3620686001248 433.1856291029188 804.541998969184"/></g><g id="SvgjsG1193"><path id="SvgjsPath1194" fill="none" stroke="#b8b8b8" stroke-dasharray="3 3" stroke-width="2" marker-end="url(#SvgjsMarker1195)" d="M862.1780361599392 607.4731797112358C 745.5113694932726 757.4731797112358 482.1780361599392 769.6954019334581 167.18562910291882 804.541998969184"/></g><g id="SvgjsG1197" transform="translate(630.078211440816,173.57804327345187)"><path id="SvgjsPath1198" fill="none" stroke="none" d="M 0 0L 120 0L 120 40L 0 40Z"/><g id="SvgjsG1199"><text id="SvgjsText1200" width="120" y="2.55" fill="#b8b8b8" align="middle" anchor="middle" family="Arial" font-family="Arial" font-size="13" font-weight="400" opacity="1" size="13" text-anchor="middle" transform="rotate(0)" weight="400"><tspan id="SvgjsTspan1201" x="60" dy="16"><tspan id="SvgjsTspan1202">New</tspan></tspan><tspan id="SvgjsTspan1203" x="60" dy="16"><tspan id="SvgjsTspan1204">parameters</tspan></tspan></text></g></g><g id="SvgjsG1205" transform="translate(805.3124400308393,898.0198974609375)"><path id="SvgjsPath1206" fill="none" stroke="rgba(184,184,184,1)" stroke-width="2" d="M 0 0L 62.01917141500462 0L 62.01917141500462 26.81817626953125L 0 26.81817626953125Z"/><g id="SvgjsG1207"><text id="SvgjsText1208" width="43" y="3.959" fill="#b8b8b8" align="middle" anchor="middle" family="Arial" font-family="Arial" font-size="13" font-weight="400" opacity="1" size="13" text-anchor="middle" transform="rotate(0)" weight="400"><tspan id="SvgjsTspan1209" x="31.5" dy="16"><tspan id="SvgjsTspan1210">Lock</tspan></tspan></text></g></g><g id="SvgjsG1211" transform="translate(269.4830610161282,626.7641906738281)"><path id="SvgjsPath1212" fill="none" stroke="rgba(184,184,184,1)" stroke-width="2" d="M 0 0L 393.84848954942504 0L 393.84848954942504 50.795534384371194L 0 50.795534384371194Z"/><g id="SvgjsG1213"><text id="SvgjsText1214" width="374" y="7.948" fill="#b8b8b8" align="middle" anchor="middle" family="Arial" font-family="Arial" font-size="13" font-weight="400" opacity="1" size="13" text-anchor="middle" transform="rotate(0)" weight="400"><tspan id="SvgjsTspan1215" x="197" dy="16"><tspan id="SvgjsTspan1216">DistributedBuffer</tspan></tspan><tspan id="SvgjsTspan1217" x="197" dy="16"><tspan id="SvgjsTspan1218">(Interface)</tspan></tspan></text></g></g><g id="SvgjsG1219"><path id="SvgjsPath1220" fill="none" stroke="#b8b8b8" stroke-width="2" marker-end="url(#SvgjsMarker1221)" d="M466.4073057908407 677.5597250581993L466.4073057908407 719.0066546206865L224.01433343064951 719.0066546206865L224.01433343064951 897.3766611062481"/></g><g id="SvgjsG1223"><path id="SvgjsPath1224" fill="none" stroke="#b8b8b8" stroke-width="2" marker-end="url(#SvgjsMarker1225)" d="M466.4073057908407 677.5597250581993L466.4073057908407 719.000590178795L490.16817958449576 719.000590178795L490.16817958449576 897.3645322224661"/></g><g id="SvgjsG1227"><path id="SvgjsPath1228" fill="none" stroke="#b8b8b8" stroke-width="2" marker-end="url(#SvgjsMarker1231)" marker-start="url(#SvgjsMarker1229)" d="M466.4073057908407 677.5597250581993L466.4073057908407 718.5590420287999L836.3220257383416 718.5590420287999L836.3220257383416 898.0198974609375"/></g><g id="SvgjsG1233" transform="translate(482.1494044599863,487.36256137194005)"><path id="SvgjsPath1234" fill="none" stroke="none" d="M 0 0L 255.22254019216916 0L 255.22254019216916 80.33060754266592L 0 80.33060754266592Z"/><g id="SvgjsG1235"><text id="SvgjsText1236" width="256" y="1.865" fill="#b8b8b8" align="middle" anchor="start" family="Arial" font-family="Arial" font-size="12" font-weight="400" opacity="1" size="12" text-anchor="start" transform="rotate(0)" weight="400"><tspan id="SvgjsTspan1237" x="0" dy="15"><tspan id="SvgjsTspan1238">Begin sample:</tspan></tspan><tspan id="SvgjsTspan1239" x="0" dy="15"><tspan id="SvgjsTspan1240">1. get all local weight sum</tspan></tspan><tspan id="SvgjsTspan1241" x="0" dy="15"><tspan id="SvgjsTspan1242">2. distribute sample task evenly to all workers</tspan></tspan><tspan id="SvgjsTspan1243" x="0" dy="15"><tspan id="SvgjsTspan1244">3. get samples</tspan></tspan></text></g></g><g id="SvgjsG1247" transform="translate(58.76243015999515,908.8198852952272)"><path id="SvgjsPath1248" fill="none" stroke="none" d="M 0 0L 131.08843702769497 0L 131.08843702769497 53.69315993183784L 0 53.69315993183784Z"/><g id="SvgjsG1249"><text id="SvgjsText1250" width="132" y="-3.953" fill="#b8b8b8" align="middle" anchor="start" family="Arial" font-family="Arial" font-size="12" font-weight="400" opacity="1" size="12" text-anchor="start" transform="rotate(0)" weight="400"><tspan id="SvgjsTspan1251" x="0" dy="15"><tspan id="SvgjsTspan1252">Begin local sample:</tspan></tspan><tspan id="SvgjsTspan1253" x="0" dy="15"><tspan id="SvgjsTspan1254">1. acquire lock</tspan></tspan><tspan id="SvgjsTspan1255" x="0" dy="15"><tspan id="SvgjsTspan1256">2. return batch, index</tspan></tspan></text></g></g><g id="SvgjsG1259" transform="translate(143.85819710906884,984.3170507022733)"><path id="SvgjsPath1260" fill="none" stroke="none" d="M 0 0L 131.92268125264007 0L 131.92268125264007 71.47786457370057L 0 71.47786457370057Z"/><g id="SvgjsG1261"><text id="SvgjsText1262" width="132" y="11.939" fill="#b8b8b8" align="middle" anchor="start" family="Arial" font-family="Arial" font-size="12" font-weight="400" opacity="1" size="12" text-anchor="start" transform="rotate(0)" weight="400"><tspan id="SvgjsTspan1263" x="0" dy="15"><tspan id="SvgjsTspan1264">Begin local append:</tspan></tspan><tspan id="SvgjsTspan1265" x="0" dy="15"><tspan id="SvgjsTspan1266">1. acquire lock</tspan></tspan><tspan id="SvgjsTspan1267" x="0" dy="15"><tspan id="SvgjsTspan1268">2. append sample</tspan></tspan></text></g></g><g id="SvgjsG1269"><path id="SvgjsPath1270" fill="none" stroke="#b8b8b8" stroke-width="2" marker-end="url(#SvgjsMarker1273)" marker-start="url(#SvgjsMarker1271)" d="M331.29547902459535 497.65566464255926L331.29547902459535 562.2099276581937L466.4073057908407 562.2099276581937L466.4073057908407 626.7641906738281"/></g><g id="SvgjsG1275" transform="translate(310.27071119056694,803.8866337307126)"><path id="SvgjsPath1276" fill="none" stroke="rgba(184,184,184,1)" stroke-dasharray="3 4" stroke-width="2" d="M 0 0L 247.5221435170115 0L 247.5221435170115 261.1818141937256L 0 261.1818141937256Z"/></g><g id="SvgjsG1279" transform="translate(329.7707111905671,859.7957066066891)"><path id="SvgjsPath1280" fill="none" stroke="rgba(184,184,184,1)" stroke-width="2" d="M 0 0L 208.5221435170115 0L 208.5221435170115 129L 0 129Z"/></g><g id="SvgjsG1283" transform="translate(329.7707111905671,859.7957066066891)"><path id="SvgjsPath1284" fill="none" stroke="none" d="M 0 0L 85.44340793065908 0L 85.44340793065908 32.40403069390197L 0 32.40403069390197Z"/><g id="SvgjsG1285"><text id="SvgjsText1286" width="86" y="6.752" fill="#b8b8b8" align="middle" anchor="middle" family="Arial" font-family="Arial" font-size="13" font-weight="400" opacity="1" size="13" text-anchor="middle" transform="rotate(0)" weight="400"><tspan id="SvgjsTspan1287" x="43" dy="16"><tspan id="SvgjsTspan1288">IMPALA</tspan></tspan></text></g></g><g id="SvgjsG1289" transform="translate(345.2515397755627,902.9010568076355)"><path id="SvgjsPath1290" fill="none" stroke="rgba(184,184,184,1)" stroke-width="2" d="M 0 0L 93.07692307692264 0L 93.07692307692264 28.84615384615398L 0 28.84615384615398Z"/><g id="SvgjsG1291"><text id="SvgjsText1292" width="74" y="4.973" fill="#b8b8b8" align="middle" anchor="middle" family="Arial" font-family="Arial" font-size="13" font-weight="400" opacity="1" size="13" text-anchor="middle" transform="rotate(0)" weight="400"><tspan id="SvgjsTspan1293" x="47" dy="16"><tspan id="SvgjsTspan1294">Actor</tspan></tspan></text></g></g><g id="SvgjsG1295" transform="translate(345.2515397755627,939.9010568076357)"><path id="SvgjsPath1296" fill="none" stroke="rgba(184,184,184,1)" stroke-width="2" d="M 0 0L 93.07692307692264 0L 93.07692307692264 28.84615384615398L 0 28.84615384615398Z"/><g id="SvgjsG1297"><text id="SvgjsText1298" width="74" y="4.973" fill="#b8b8b8" align="middle" anchor="middle" family="Arial" font-family="Arial" font-size="13" font-weight="400" opacity="1" size="13" text-anchor="middle" transform="rotate(0)" weight="400"><tspan id="SvgjsTspan1299" x="47" dy="16"><tspan id="SvgjsTspan1300">Critic</tspan></tspan></text></g></g><g id="SvgjsG1301" transform="translate(459.2515397755625,924.2002927791948)"><path id="SvgjsPath1302" fill="none" stroke="rgba(184,184,184,1)" stroke-width="2" d="M 0 0L 61.83327961786648 0L 61.83327961786648 46.708342250606464L 0 46.708342250606464Z"/><g id="SvgjsG1303"><text id="SvgjsText1304" width="42" y="5.904" fill="#b8b8b8" align="middle" anchor="middle" family="Arial" font-family="Arial" font-size="13" font-weight="400" opacity="1" size="13" text-anchor="middle" transform="rotate(0)" weight="400"><tspan id="SvgjsTspan1305" x="31" dy="16"><tspan id="SvgjsTspan1306">Local </tspan></tspan><tspan id="SvgjsTspan1307" x="31" dy="16"><tspan id="SvgjsTspan1308">Buffer</tspan></tspan></text></g></g><g id="SvgjsG1309" transform="translate(356.7900013140239,1006.7957066066892)"><path id="SvgjsPath1310" fill="none" stroke="rgba(184,184,184,1)" stroke-width="2" d="M 0 20C 0 -6.666666666666666 40 -6.666666666666666 40 20C 40 46.66666666666667 0 46.66666666666667 0 20ZM 20 0L 26 5M 20 0L 26 -5"/></g><g id="SvgjsG1313" transform="translate(310.27071119056694,803.8866337307126)"><path id="SvgjsPath1314" fill="none" stroke="none" d="M 0 0L 84 0L 84 51.363630294799805L 0 51.363630294799805Z"/><g id="SvgjsG1315"><text id="SvgjsText1316" width="84" y="8.232" fill="#b8b8b8" align="middle" anchor="middle" family="Arial" font-family="Arial" font-size="13" font-weight="400" opacity="1" size="13" text-anchor="middle" transform="rotate(0)" weight="400"><tspan id="SvgjsTspan1317" x="42" dy="16"><tspan id="SvgjsTspan1318">Process</tspan></tspan><tspan id="SvgjsTspan1319" x="42" dy="16"><tspan id="SvgjsTspan1320">worker:1</tspan></tspan></text></g></g><g id="SvgjsG1321" transform="translate(394.2707111905671,1006.7957066066892)"><path id="SvgjsPath1322" fill="none" stroke="none" d="M 0 0L 120 0L 120 40L 0 40Z"/><g id="SvgjsG1323"><text id="SvgjsText1324" width="120" y="10.55" fill="#b8b8b8" align="middle" anchor="middle" family="Arial" font-family="Arial" font-size="13" font-weight="400" opacity="1" size="13" text-anchor="middle" transform="rotate(0)" weight="400"><tspan id="SvgjsTspan1325" x="60" dy="16"><tspan id="SvgjsTspan1326">Sample</tspan></tspan></text></g></g><g id="SvgjsG1327" transform="translate(459.15859387699345,897.3645322224661)"><path id="SvgjsPath1328" fill="none" stroke="rgba(184,184,184,1)" stroke-width="2" d="M 0 0L 62.01917141500462 0L 62.01917141500462 26.81817626953125L 0 26.81817626953125Z"/><g id="SvgjsG1329"><text id="SvgjsText1330" width="43" y="3.959" fill="#b8b8b8" align="middle" anchor="middle" family="Arial" font-family="Arial" font-size="13" font-weight="400" opacity="1" size="13" text-anchor="middle" transform="rotate(0)" weight="400"><tspan id="SvgjsTspan1331" x="31.5" dy="16"><tspan id="SvgjsTspan1332">Lock</tspan></tspan></text></g></g><g id="SvgjsG1333" transform="translate(193.09769362171625,924.2124216629769)"><path id="SvgjsPath1334" fill="none" stroke="rgba(184,184,184,1)" stroke-width="2" d="M 0 0L 61.83327961786648 0L 61.83327961786648 46.708342250606464L 0 46.708342250606464Z"/><g id="SvgjsG1335"><text id="SvgjsText1336" width="42" y="5.904" fill="#b8b8b8" align="middle" anchor="middle" family="Arial" font-family="Arial" font-size="13" font-weight="400" opacity="1" size="13" text-anchor="middle" transform="rotate(0)" weight="400"><tspan id="SvgjsTspan1337" x="31" dy="16"><tspan id="SvgjsTspan1338">Local </tspan></tspan><tspan id="SvgjsTspan1339" x="31" dy="16"><tspan id="SvgjsTspan1340">Buffer</tspan></tspan></text></g></g><g id="SvgjsG1341" transform="translate(90.63615516017785,1006.8078354904717)"><path id="SvgjsPath1342" fill="none" stroke="rgba(184,184,184,1)" stroke-width="2" d="M 0 20C 0 -6.666666666666666 40 -6.666666666666666 40 20C 40 46.66666666666667 0 46.66666666666667 0 20ZM 20 0L 26 5M 20 0L 26 -5"/></g><g id="SvgjsG1345" transform="translate(44.116865036720924,803.8987626144946)"><path id="SvgjsPath1346" fill="none" stroke="none" d="M 0 0L 84 0L 84 51.363630294799805L 0 51.363630294799805Z"/><g id="SvgjsG1347"><text id="SvgjsText1348" width="84" y="8.232" fill="#b8b8b8" align="middle" anchor="middle" family="Arial" font-family="Arial" font-size="13" font-weight="400" opacity="1" size="13" text-anchor="middle" transform="rotate(0)" weight="400"><tspan id="SvgjsTspan1349" x="42" dy="16"><tspan id="SvgjsTspan1350">Process</tspan></tspan><tspan id="SvgjsTspan1351" x="42" dy="16"><tspan id="SvgjsTspan1352">worker:0</tspan></tspan></text></g></g><g id="SvgjsG1353" transform="translate(193.0047477231472,897.3766611062481)"><path id="SvgjsPath1354" fill="none" stroke="rgba(184,184,184,1)" stroke-width="2" d="M 0 0L 62.01917141500462 0L 62.01917141500462 26.81817626953125L 0 26.81817626953125Z"/><g id="SvgjsG1355"><text id="SvgjsText1356" width="43" y="3.959" fill="#b8b8b8" align="middle" anchor="middle" family="Arial" font-family="Arial" font-size="13" font-weight="400" opacity="1" size="13" text-anchor="middle" transform="rotate(0)" weight="400"><tspan id="SvgjsTspan1357" x="31.5" dy="16"><tspan id="SvgjsTspan1358">Lock</tspan></tspan></text></g></g><g id="SvgjsG1359" transform="translate(170.1588637394824,380.31478243812955)"><path id="SvgjsPath1360" fill="none" stroke="rgba(184,184,184,1)" stroke-width="2" d="M 0 0L 208.5221435170115 0L 208.5221435170115 129L 0 129Z"/></g><g id="SvgjsG1363" transform="translate(170.1588637394824,380.31478243812955)"><path id="SvgjsPath1364" fill="none" stroke="none" d="M 0 0L 85.44340793065908 0L 85.44340793065908 32.40403069390197L 0 32.40403069390197Z"/><g id="SvgjsG1365"><text id="SvgjsText1366" width="86" y="6.752" fill="#b8b8b8" align="middle" anchor="middle" family="Arial" font-family="Arial" font-size="13" font-weight="400" opacity="1" size="13" text-anchor="middle" transform="rotate(0)" weight="400"><tspan id="SvgjsTspan1367" x="43" dy="16"><tspan id="SvgjsTspan1368">IMPALA</tspan></tspan></text></g></g><g id="SvgjsG1369" transform="translate(185.639692324478,423.4201326390758)"><path id="SvgjsPath1370" fill="none" stroke="rgba(184,184,184,1)" stroke-width="2" d="M 0 0L 93.07692307692264 0L 93.07692307692264 28.84615384615398L 0 28.84615384615398Z"/><g id="SvgjsG1371"><text id="SvgjsText1372" width="74" y="4.973" fill="#b8b8b8" align="middle" anchor="middle" family="Arial" font-family="Arial" font-size="13" font-weight="400" opacity="1" size="13" text-anchor="middle" transform="rotate(0)" weight="400"><tspan id="SvgjsTspan1373" x="47" dy="16"><tspan id="SvgjsTspan1374">Actor</tspan></tspan></text></g></g><g id="SvgjsG1375" transform="translate(185.639692324478,460.42013263907586)"><path id="SvgjsPath1376" fill="none" stroke="rgba(184,184,184,1)" stroke-width="2" d="M 0 0L 93.07692307692264 0L 93.07692307692264 28.84615384615398L 0 28.84615384615398Z"/><g id="SvgjsG1377"><text id="SvgjsText1378" width="74" y="4.973" fill="#b8b8b8" align="middle" anchor="middle" family="Arial" font-family="Arial" font-size="13" font-weight="400" opacity="1" size="13" text-anchor="middle" transform="rotate(0)" weight="400"><tspan id="SvgjsTspan1379" x="47" dy="16"><tspan id="SvgjsTspan1380">Critic</tspan></tspan></text></g></g><g id="SvgjsG1381" transform="translate(299.6396923244778,444.71936861063466)"><path id="SvgjsPath1382" fill="none" stroke="rgba(115,115,115,1)" stroke-dasharray="10 6" stroke-width="2" d="M 0 0L 61.83327961786648 0L 61.83327961786648 46.708342250606464L 0 46.708342250606464Z"/><g id="SvgjsG1383"><text id="SvgjsText1384" width="42" y="5.904" fill="#5c5c5c" align="middle" anchor="middle" family="Arial" font-family="Arial" font-size="13" font-weight="400" opacity="1" size="13" text-anchor="middle" transform="rotate(0)" weight="400"><tspan id="SvgjsTspan1385" x="31" dy="16"><tspan id="SvgjsTspan1386">Local </tspan></tspan><tspan id="SvgjsTspan1387" x="31" dy="16"><tspan id="SvgjsTspan1388">Buffer</tspan></tspan></text></g></g><g id="SvgjsG1389" transform="translate(299.54674642590874,417.89826162657056)"><path id="SvgjsPath1390" fill="none" stroke="rgba(115,115,115,1)" stroke-dasharray="10 6" stroke-width="2" d="M 0 0L 62.01917141500462 0L 62.01917141500462 26.81817626953125L 0 26.81817626953125Z"/><g id="SvgjsG1391"><text id="SvgjsText1392" width="43" y="3.959" fill="#5c5c5c" align="middle" anchor="middle" family="Arial" font-family="Arial" font-size="13" font-weight="400" opacity="1" size="13" text-anchor="middle" transform="rotate(0)" weight="400"><tspan id="SvgjsTspan1393" x="31.5" dy="16"><tspan id="SvgjsTspan1394">Lock</tspan></tspan></text></g></g><g id="SvgjsG1395"><path id="SvgjsPath1396" fill="none" stroke="#b8b8b8" stroke-dasharray="3 3" stroke-width="2" marker-end="url(#SvgjsMarker1397)" d="M232.17815386293933 423.4201326390758L466.40730579084084 283.52431636386433"/></g><g id="SvgjsG1399"><path id="SvgjsPath1400" fill="none" stroke="#b8b8b8" stroke-dasharray="3 3" stroke-width="2" marker-end="url(#SvgjsMarker1401)" d="M232.17815386293933 460.42013263907586L466.40730579084084 283.52431636386433"/></g></svg>