<svg xmlns="http://www.w3.org/2000/svg" xmlns:svgjs="http://svgjs.com/svgjs" xmlns:xlink="http://www.w3.org/1999/xlink" id="SvgjsSvg6156" width="772.261" height="1099.42" version="1.1"><defs id="SvgjsDefs6157"><marker id="SvgjsMarker6249" stroke-dasharray="0 0" markerHeight="12" markerUnits="userSpaceOnUse" markerWidth="16" orient="auto" refX="16" refY="6" viewBox="0 0 16 12"><path id="SvgjsPath6250" fill="#e5e5e5" stroke="#e5e5e5" stroke-width="2" d="M0,2 L14,6 L0,11 L0,2"/></marker><marker id="SvgjsMarker6253" stroke-dasharray="0 0" markerHeight="12" markerUnits="userSpaceOnUse" markerWidth="16" orient="auto" refX="16" refY="6" viewBox="0 0 16 12"><path id="SvgjsPath6254" fill="#e5e5e5" stroke="#e5e5e5" stroke-width="2" d="M0,2 L14,6 L0,11 L0,2"/></marker><marker id="SvgjsMarker6257" stroke-dasharray="0 0" markerHeight="12" markerUnits="userSpaceOnUse" markerWidth="16" orient="auto" refX="16" refY="6" viewBox="0 0 16 12"><path id="SvgjsPath6258" fill="#e5e5e5" stroke="#e5e5e5" stroke-width="2" d="M0,2 L14,6 L0,11 L0,2"/></marker><marker id="SvgjsMarker6344" stroke-dasharray="0 0" markerHeight="12" markerUnits="userSpaceOnUse" markerWidth="16" orient="auto" refX="16" refY="6" viewBox="0 0 16 12"><path id="SvgjsPath6345" fill="#b8b8b8" stroke="#b8b8b8" stroke-width="2" d="M0,2 L14,6 L0,11 L0,2"/></marker><marker id="SvgjsMarker6348" stroke-dasharray="0 0" markerHeight="12" markerUnits="userSpaceOnUse" markerWidth="16" orient="auto" refX="16" refY="6" viewBox="0 0 16 12"><path id="SvgjsPath6349" fill="#b8b8b8" stroke="#b8b8b8" stroke-width="2" d="M0,2 L14,6 L0,11 L0,2"/></marker><marker id="SvgjsMarker6352" stroke-dasharray="0 0" markerHeight="12" markerUnits="userSpaceOnUse" markerWidth="16" orient="auto" refX="16" refY="6" viewBox="0 0 16 12"><path id="SvgjsPath6353" fill="#b8b8b8" stroke="#b8b8b8" stroke-width="2" d="M0,2 L14,6 L0,11 L0,2"/></marker><marker id="SvgjsMarker6356" stroke-dasharray="0 0" markerHeight="12" markerUnits="userSpaceOnUse" markerWidth="16" orient="auto" refX="16" refY="6" viewBox="0 0 16 12"><path id="SvgjsPath6357" fill="#b8b8b8" stroke="#b8b8b8" stroke-width="2" d="M0,2 L14,6 L0,11 L0,2"/></marker><marker id="SvgjsMarker6360" stroke-dasharray="0 0" markerHeight="12" markerUnits="userSpaceOnUse" markerWidth="16" orient="auto" refX="16" refY="6" viewBox="0 0 16 12"><path id="SvgjsPath6361" fill="#b8b8b8" stroke="#b8b8b8" stroke-width="2" d="M0,2 L14,6 L0,11 L0,2"/></marker><marker id="SvgjsMarker6364" stroke-dasharray="0 0" markerHeight="12" markerUnits="userSpaceOnUse" markerWidth="16" orient="auto" refX="16" refY="6" viewBox="0 0 16 12"><path id="SvgjsPath6365" fill="#b8b8b8" stroke="#b8b8b8" stroke-width="2" d="M0,2 L14,6 L0,11 L0,2"/></marker><marker id="SvgjsMarker6368" stroke-dasharray="0 0" markerHeight="12" markerUnits="userSpaceOnUse" markerWidth="16" orient="auto" refX="16" refY="6" viewBox="0 0 16 12"><path id="SvgjsPath6369" fill="#b8b8b8" stroke="#b8b8b8" stroke-width="2" d="M0,2 L14,6 L0,11 L0,2"/></marker><marker id="SvgjsMarker6388" stroke-dasharray="0 0" markerHeight="12" markerUnits="userSpaceOnUse" markerWidth="16" orient="auto" refX="16" refY="6" viewBox="0 0 16 12"><path id="SvgjsPath6389" fill="#b8b8b8" stroke="#b8b8b8" stroke-width="2" d="M0,2 L14,6 L0,11 L0,2"/></marker><marker id="SvgjsMarker6392" stroke-dasharray="0 0" markerHeight="12" markerUnits="userSpaceOnUse" markerWidth="16" orient="auto" refX="16" refY="6" viewBox="0 0 16 12"><path id="SvgjsPath6393" fill="#b8b8b8" stroke="#b8b8b8" stroke-width="2" d="M0,2 L14,6 L0,11 L0,2"/></marker><marker id="SvgjsMarker6422" stroke-dasharray="0 0" markerHeight="12" markerUnits="userSpaceOnUse" markerWidth="16" orient="auto" refX="16" refY="6" viewBox="0 0 16 12"><path id="SvgjsPath6423" fill="#323232" stroke="#323232" stroke-width="2" d="M0,2 L14,6 L0,11 L0,2"/></marker><marker id="SvgjsMarker6613" stroke-dasharray="0 0" markerHeight="12" markerUnits="userSpaceOnUse" markerWidth="16" orient="auto" refX="16" refY="6" viewBox="0 0 16 12"><path id="SvgjsPath6614" fill="#b8b8b8" stroke="#b8b8b8" stroke-width="2" d="M0,2 L14,6 L0,11 L0,2"/></marker><marker id="SvgjsMarker6617" stroke-dasharray="0 0" markerHeight="12" markerUnits="userSpaceOnUse" markerWidth="16" orient="auto" refX="0" refY="6" viewBox="0 0 16 12"><path id="SvgjsPath6618" fill="#b8b8b8" stroke="#b8b8b8" stroke-width="2" d="M15,1.5 L2,6 L15,10.5"/></marker></defs><rect id="SvgjsRect6158" width="772.261" height="1099.42" fill="#2f2f2f"/><g id="SvgjsG6159" transform="translate(25.089995092578192,231.43239780762394)"><path id="SvgjsPath6160" fill="none" stroke="rgba(184,184,184,1)" stroke-dasharray="3 4" stroke-width="2" d="M 0 0L 630 0L 630 842.2749774587113L 0 842.2749774587113Z"/></g><g id="SvgjsG6163" transform="translate(190.18846827686906,574.8098088519305)"><path id="SvgjsPath6164" fill="none" stroke="none" d="M 0 0L 523.6295977052453 0L 523.6295977052453 49.59375075138047L 0 49.59375075138047Z"/><g id="SvgjsG6165"><text id="SvgjsText6166" width="524" y="15.347" fill="#b8b8b8" align="middle" anchor="start" family="Arial" font-family="Arial" font-size="13" font-weight="400" opacity="1" size="13" text-anchor="start" transform="rotate(0)" weight="400"><tspan id="SvgjsTspan6167" x="0" dy="16"><tspan id="SvgjsTspan6168">------------------------------------------------------------------- Concatenation</tspan></tspan></text></g></g><g id="SvgjsG6169" transform="translate(189.80618457007358,545.7188997610214)"><path id="SvgjsPath6170" fill="none" stroke="none" d="M 0 0L 523.6295977052453 0L 523.6295977052453 49.59375075138047L 0 49.59375075138047Z"/><g id="SvgjsG6171"><text id="SvgjsText6172" width="524" y="15.347" fill="#b8b8b8" align="middle" anchor="start" family="Arial" font-family="Arial" font-size="13" font-weight="400" opacity="1" size="13" text-anchor="start" transform="rotate(0)" weight="400"><tspan id="SvgjsTspan6173" x="0" dy="16"><tspan id="SvgjsTspan6174">------------------------------------------------------------------- Move to target device</tspan></tspan></text></g></g><g id="SvgjsG6175" transform="translate(25.011367797851562,25.000523319950794)"><path id="SvgjsPath6176" fill="none" stroke="rgba(184,184,184,1)" stroke-dasharray="3 4" stroke-width="2" d="M 0 0L 630.0385802469136 0L 630.0385802469136 206.0127225805212L 0 206.0127225805212Z"/></g><g id="SvgjsG6179" transform="translate(187.01136779785156,174.1051025390625)"><path id="SvgjsPath6180" fill="none" stroke="rgba(184,184,184,1)" stroke-width="2" d="M 0 0L 51 0L 51 39L 0 39Z"/></g><g id="SvgjsG6183" transform="translate(238.01136779785156,174.1051025390625)"><path id="SvgjsPath6184" fill="none" stroke="rgba(184,184,184,1)" stroke-width="2" d="M 0 0L 51 0L 51 39L 0 39Z"/></g><g id="SvgjsG6187" transform="translate(289.01136779785156,174.1051025390625)"><path id="SvgjsPath6188" fill="none" stroke="rgba(184,184,184,1)" stroke-width="2" d="M 0 0L 51 0L 51 39L 0 39Z"/></g><g id="SvgjsG6191" transform="translate(340.62247890896265,174.1051025390625)"><path id="SvgjsPath6192" fill="none" stroke="rgba(184,184,184,1)" stroke-width="2" d="M 0 0L 51 0L 51 39L 0 39Z"/></g><g id="SvgjsG6195" transform="translate(391.2706270571107,174.1051025390625)"><path id="SvgjsPath6196" fill="none" stroke="rgba(184,184,184,1)" stroke-width="2" d="M 0 0L 51 0L 51 39L 0 39Z"/></g><g id="SvgjsG6199" transform="translate(442.35044530128084,174.1051025390625)"><path id="SvgjsPath6200" fill="none" stroke="rgba(184,184,184,1)" stroke-width="2" d="M 0 0L 51 0L 51 39L 0 39Z"/></g><g id="SvgjsG6203" transform="translate(49.342119796705106,25.012228968157615)"><path id="SvgjsPath6204" fill="none" stroke="none" d="M 0 0L 134.16666666666663 0L 134.16666666666663 41.12669626871741L 0 41.12669626871741Z"/><g id="SvgjsG6205"><text id="SvgjsText6206" width="135" y="9.313" fill="#b8b8b8" align="middle" anchor="start" family="Arial" font-family="Arial" font-size="15" font-weight="400" opacity="1" size="15" text-anchor="start" transform="rotate(0)" weight="400"><tspan id="SvgjsTspan6207" x="0" dy="18"><tspan id="SvgjsTspan6208">buffer.append</tspan></tspan></text></g></g><g id="SvgjsG6209" transform="translate(188.98007819485758,45.704544067382855)"><path id="SvgjsPath6210" fill="#737373" fill-opacity="1" stroke="none" d="M 0 0L 31 0L 47 16L 47 38.98084739402489L 0 38.98084739402489L 0 0Z"/><path id="SvgjsPath6211" fill="#cdcdcd" fill-opacity="1" stroke="none" d="M 31 0L 31 16L 47 16Z"/><path id="SvgjsPath6212" fill="none" stroke="none" d="M 0 0L 31 0L 47 16L 47 38.98084739402489L 0 38.98084739402489L 0 0Z"/><g id="SvgjsG6213"><text id="SvgjsText6214" width="27" y="10.04" fill="#323232" align="middle" anchor="middle" family="Arial" font-family="Arial" font-size="13" font-weight="400" opacity="1" size="13" text-anchor="middle" transform="rotate(0)" weight="400"><tspan id="SvgjsTspan6215" x="23.5" dy="16"><tspan id="SvgjsTspan6216">T_0</tspan></tspan></text></g></g><g id="SvgjsG6217" transform="translate(238.5907010528449,45.750840363679146)"><path id="SvgjsPath6218" fill="#b8b8b8" fill-opacity="1" stroke="none" d="M 0 0L 31 0L 47 16L 47 38.98084739402489L 0 38.98084739402489L 0 0Z"/><path id="SvgjsPath6219" fill="#cdcdcd" fill-opacity="1" stroke="none" d="M 31 0L 31 16L 47 16Z"/><path id="SvgjsPath6220" fill="none" stroke="none" d="M 0 0L 31 0L 47 16L 47 38.98084739402489L 0 38.98084739402489L 0 0Z"/><g id="SvgjsG6221"><text id="SvgjsText6222" width="27" y="10.04" fill="#323232" align="middle" anchor="middle" family="Arial" font-family="Arial" font-size="13" font-weight="400" opacity="1" size="13" text-anchor="middle" transform="rotate(0)" weight="400"><tspan id="SvgjsTspan6223" x="23.5" dy="16"><tspan id="SvgjsTspan6224">T_1</tspan></tspan></text></g></g><g id="SvgjsG6225" transform="translate(444.5490043032114,45.7120457820605)"><path id="SvgjsPath6226" fill="#b8b8b8" fill-opacity="1" stroke="none" d="M 0 0L 31.21347526267749 0L 47.21347526267749 16L 47.21347526267749 38.98084739402489L 0 38.98084739402489L 0 0Z"/><path id="SvgjsPath6227" fill="#cdcdcd" fill-opacity="1" stroke="none" d="M 31.21347526267749 0L 31.21347526267749 16L 47.21347526267749 16Z"/><path id="SvgjsPath6228" fill="none" stroke="none" d="M 0 0L 31.21347526267749 0L 47.21347526267749 16L 47.21347526267749 38.98084739402489L 0 38.98084739402489L 0 0Z"/><g id="SvgjsG6229"><text id="SvgjsText6230" width="28" y="10.04" fill="#323232" align="middle" anchor="middle" family="Arial" font-family="Arial" font-size="13" font-weight="400" opacity="1" size="13" text-anchor="middle" transform="rotate(0)" weight="400"><tspan id="SvgjsTspan6231" x="24" dy="16"><tspan id="SvgjsTspan6232">T_5</tspan></tspan></text></g></g><g id="SvgjsG6233" transform="translate(305.0685277868199,45.07558048063986)"><path id="SvgjsPath6234" fill="none" stroke="none" d="M 0 0L 120 0L 120 40L 0 40Z"/><g id="SvgjsG6235"><text id="SvgjsText6236" width="120" y="10.55" fill="#b8b8b8" align="middle" anchor="middle" family="Arial" font-family="Arial" font-size="13" font-weight="700" opacity="1" size="13" text-anchor="middle" transform="rotate(0)" weight="700"><tspan id="SvgjsTspan6237" x="60" dy="16"><tspan id="SvgjsTspan6238">... ... ...</tspan></tspan></text></g></g><g id="SvgjsG6239" transform="translate(188.87369139523105,90.18040774509713)"><path id="SvgjsPath6240" fill="#b8b8b8" fill-opacity="1" stroke="rgba(229,229,229,1)" stroke-width="2" d="M 0 0L 31.21347526267749 0L 47.21347526267749 16L 47.21347526267749 38.98084739402489L 0 38.98084739402489L 0 0Z"/><path id="SvgjsPath6241" fill="#cdcdcd" fill-opacity="1" stroke="rgba(229,229,229,1)" stroke-width="2" d="M 31.21347526267749 0L 31.21347526267749 16L 47.21347526267749 16Z"/><path id="SvgjsPath6242" fill="none" stroke="rgba(229,229,229,1)" stroke-width="2" d="M 0 0L 31.21347526267749 0L 47.21347526267749 16L 47.21347526267749 38.98084739402489L 0 38.98084739402489L 0 0Z"/><g id="SvgjsG6243"><text id="SvgjsText6244" width="28" y="10.04" fill="#323232" align="middle" anchor="middle" family="Arial" font-family="Arial" font-size="13" font-weight="400" opacity="1" size="13" text-anchor="middle" transform="rotate(0)" weight="400"><tspan id="SvgjsTspan6245" x="24" dy="16"><tspan id="SvgjsTspan6246">T_6</tspan></tspan></text></g></g><g id="SvgjsG6247"><path id="SvgjsPath6248" fill="none" stroke="#e5e5e5" stroke-width="2" marker-end="url(#SvgjsMarker6249)" d="M263.27459000701714 84.69310751079047L263.27459000701714 129.39910502492648L263.51136779785156 129.39910502492648L263.51136779785156 174.1051025390625"/></g><g id="SvgjsG6251"><path id="SvgjsPath6252" fill="none" stroke="#e5e5e5" stroke-width="2" marker-end="url(#SvgjsMarker6253)" d="M468.1557419345502 84.69289317608539L468.1557419345502 129.39899785757393L467.85044530128084 129.39899785757393L467.85044530128084 174.1051025390625"/></g><g id="SvgjsG6255"><path id="SvgjsPath6256" fill="none" stroke="#e5e5e5" stroke-width="2" marker-end="url(#SvgjsMarker6257)" d="M212.48042902656977 129.16125513912203L212.48042902656977 151.63317883909227L212.51136779785156 151.63317883909227L212.51136779785156 174.1051025390625"/></g><g id="SvgjsG6259" transform="translate(192.48042902656982,56.736619997283725)"><path id="SvgjsPath6260" fill="none" stroke="rgba(50,50,50,0.7)" stroke-width="4" d="M 0 0L 40 20.009646542896263M 40 0L 0 20.009646542896263"/><path id="SvgjsPath6261" fill="none" stroke="none" d="M 0 0L 40 0L 40 20.009646542896263L 0 20.009646542896263Z"/></g><g id="SvgjsG6262" transform="translate(239.7818255776396,174.63403672304227)"><path id="SvgjsPath6263" fill="#b8b8b8" fill-opacity="1" stroke="rgba(184,184,184,1)" stroke-width="2" d="M 0 0L 31 0L 47 16L 47 38.98084739402489L 0 38.98084739402489L 0 0Z"/><path id="SvgjsPath6264" fill="#cdcdcd" fill-opacity="1" stroke="rgba(184,184,184,1)" stroke-width="2" d="M 31 0L 31 16L 47 16Z"/><path id="SvgjsPath6265" fill="none" stroke="rgba(184,184,184,1)" stroke-width="2" d="M 0 0L 31 0L 47 16L 47 38.98084739402489L 0 38.98084739402489L 0 0Z"/><g id="SvgjsG6266"><text id="SvgjsText6267" width="27" y="10.04" fill="#323232" align="middle" anchor="middle" family="Arial" font-family="Arial" font-size="13" font-weight="400" opacity="1" size="13" text-anchor="middle" transform="rotate(0)" weight="400"><tspan id="SvgjsTspan6268" x="23.5" dy="16"><tspan id="SvgjsTspan6269">T_1&apos;</tspan></tspan></text></g></g><g id="SvgjsG6270" transform="translate(444.4101154143225,174.76297170798637)"><path id="SvgjsPath6271" fill="#b8b8b8" fill-opacity="1" stroke="none" d="M 0 0L 31.21347526267749 0L 47.21347526267749 16L 47.21347526267749 38.98084739402489L 0 38.98084739402489L 0 0Z"/><path id="SvgjsPath6272" fill="#cdcdcd" fill-opacity="1" stroke="none" d="M 31.21347526267749 0L 31.21347526267749 16L 47.21347526267749 16Z"/><path id="SvgjsPath6273" fill="none" stroke="none" d="M 0 0L 31.21347526267749 0L 47.21347526267749 16L 47.21347526267749 38.98084739402489L 0 38.98084739402489L 0 0Z"/><g id="SvgjsG6274"><text id="SvgjsText6275" width="28" y="10.04" fill="#323232" align="middle" anchor="middle" family="Arial" font-family="Arial" font-size="13" font-weight="400" opacity="1" size="13" text-anchor="middle" transform="rotate(0)" weight="400"><tspan id="SvgjsTspan6276" x="24" dy="16"><tspan id="SvgjsTspan6277">T_5&apos;</tspan></tspan></text></g></g><g id="SvgjsG6278" transform="translate(392.99743378788196,174.62408281909745)"><path id="SvgjsPath6279" fill="#b8b8b8" fill-opacity="1" stroke="rgba(184,184,184,1)" stroke-width="2" d="M 0 0L 31.21347526267749 0L 47.21347526267749 16L 47.21347526267749 38.98084739402489L 0 38.98084739402489L 0 0Z"/><path id="SvgjsPath6280" fill="#cdcdcd" fill-opacity="1" stroke="rgba(184,184,184,1)" stroke-width="2" d="M 31.21347526267749 0L 31.21347526267749 16L 47.21347526267749 16Z"/><path id="SvgjsPath6281" fill="none" stroke="rgba(184,184,184,1)" stroke-width="2" d="M 0 0L 31.21347526267749 0L 47.21347526267749 16L 47.21347526267749 38.98084739402489L 0 38.98084739402489L 0 0Z"/><g id="SvgjsG6282"><text id="SvgjsText6283" width="28" y="10.04" fill="#323232" align="middle" anchor="middle" family="Arial" font-family="Arial" font-size="13" font-weight="400" opacity="1" size="13" text-anchor="middle" transform="rotate(0)" weight="400"><tspan id="SvgjsTspan6284" x="24" dy="16"><tspan id="SvgjsTspan6285">T_4&apos;</tspan></tspan></text></g></g><g id="SvgjsG6286" transform="translate(341.4207702912139,174.62408281909745)"><path id="SvgjsPath6287" fill="#b8b8b8" fill-opacity="1" stroke="rgba(184,184,184,1)" stroke-width="2" d="M 0 0L 31.21347526267749 0L 47.21347526267749 16L 47.21347526267749 38.98084739402489L 0 38.98084739402489L 0 0Z"/><path id="SvgjsPath6288" fill="#cdcdcd" fill-opacity="1" stroke="rgba(184,184,184,1)" stroke-width="2" d="M 31.21347526267749 0L 31.21347526267749 16L 47.21347526267749 16Z"/><path id="SvgjsPath6289" fill="none" stroke="rgba(184,184,184,1)" stroke-width="2" d="M 0 0L 31.21347526267749 0L 47.21347526267749 16L 47.21347526267749 38.98084739402489L 0 38.98084739402489L 0 0Z"/><g id="SvgjsG6290"><text id="SvgjsText6291" width="28" y="10.04" fill="#323232" align="middle" anchor="middle" family="Arial" font-family="Arial" font-size="13" font-weight="400" opacity="1" size="13" text-anchor="middle" transform="rotate(0)" weight="400"><tspan id="SvgjsTspan6292" x="24" dy="16"><tspan id="SvgjsTspan6293">T_3&apos;</tspan></tspan></text></g></g><g id="SvgjsG6294" transform="translate(290.6439380605314,174.76297170798637)"><path id="SvgjsPath6295" fill="#b8b8b8" fill-opacity="1" stroke="none" d="M 0 0L 31.21347526267749 0L 47.21347526267749 16L 47.21347526267749 38.98084739402489L 0 38.98084739402489L 0 0Z"/><path id="SvgjsPath6296" fill="#cdcdcd" fill-opacity="1" stroke="none" d="M 31.21347526267749 0L 31.21347526267749 16L 47.21347526267749 16Z"/><path id="SvgjsPath6297" fill="none" stroke="none" d="M 0 0L 31.21347526267749 0L 47.21347526267749 16L 47.21347526267749 38.98084739402489L 0 38.98084739402489L 0 0Z"/><g id="SvgjsG6298"><text id="SvgjsText6299" width="28" y="10.04" fill="#323232" align="middle" anchor="middle" family="Arial" font-family="Arial" font-size="13" font-weight="400" opacity="1" size="13" text-anchor="middle" transform="rotate(0)" weight="400"><tspan id="SvgjsTspan6300" x="24" dy="16"><tspan id="SvgjsTspan6301">T_2&apos;</tspan></tspan></text></g></g><g id="SvgjsG6302" transform="translate(188.43068799100553,174.7398235598382)"><path id="SvgjsPath6303" fill="#b8b8b8" fill-opacity="1" stroke="none" d="M 0 0L 31.21347526267749 0L 47.21347526267749 16L 47.21347526267749 38.98084739402489L 0 38.98084739402489L 0 0Z"/><path id="SvgjsPath6304" fill="#cdcdcd" fill-opacity="1" stroke="none" d="M 31.21347526267749 0L 31.21347526267749 16L 47.21347526267749 16Z"/><path id="SvgjsPath6305" fill="none" stroke="none" d="M 0 0L 31.21347526267749 0L 47.21347526267749 16L 47.21347526267749 38.98084739402489L 0 38.98084739402489L 0 0Z"/><g id="SvgjsG6306"><text id="SvgjsText6307" width="28" y="10.04" fill="#323232" align="middle" anchor="middle" family="Arial" font-family="Arial" font-size="13" font-weight="400" opacity="1" size="13" text-anchor="middle" transform="rotate(0)" weight="400"><tspan id="SvgjsTspan6308" x="24" dy="16"><tspan id="SvgjsTspan6309">T_6&apos;</tspan></tspan></text></g></g><g id="SvgjsG6310" transform="translate(209.2737444811329,131.38625078811387)"><path id="SvgjsPath6311" fill="none" stroke="none" d="M 0 0L 538.1818181818181 0L 538.1818181818181 46.53600429444998L 0 46.53600429444998Z"/><g id="SvgjsG6312"><text id="SvgjsText6313" width="539" y="5.818" fill="#b8b8b8" align="middle" anchor="start" family="Arial" font-family="Arial" font-size="13" font-weight="400" opacity="1" size="13" text-anchor="start" transform="rotate(0)" weight="400"><tspan id="SvgjsTspan6314" x="0" dy="16"><tspan id="SvgjsTspan6315">------------------------------------------------------------------- Copy, detach, </tspan></tspan><tspan id="SvgjsTspan6316" x="0" dy="16"><tspan id="SvgjsTspan6317"> move to buffer device</tspan></tspan></text></g></g><g id="SvgjsG6318" transform="translate(49.342119796705106,231.43239780762394)"><path id="SvgjsPath6319" fill="none" stroke="none" d="M 0 0L 143.08969762559406 0L 143.08969762559406 37.609155357946804L 0 37.609155357946804Z"/><g id="SvgjsG6320"><text id="SvgjsText6321" width="144" y="7.555" fill="#b8b8b8" align="middle" anchor="start" family="Arial" font-family="Arial" font-size="15" font-weight="400" opacity="1" size="15" text-anchor="start" transform="rotate(0)" weight="400"><tspan id="SvgjsTspan6322" x="0" dy="18"><tspan id="SvgjsTspan6323">buffer.sampe_batch</tspan></tspan></text></g></g><g id="SvgjsG6324" transform="translate(269.4049792718098,256.92233680956315)"><path id="SvgjsPath6325" fill="none" stroke="rgba(184,184,184,1)" stroke-width="2" d="M 0 20.416666666666657C 0 -6.805555555555553 141.65483411557528 -6.805555555555553 141.65483411557528 20.416666666666657C 141.65483411557528 47.638888888888864 0 47.638888888888864 0 20.416666666666657Z"/><g id="SvgjsG6326"><text id="SvgjsText6327" width="122" y="10.967" fill="#b8b8b8" align="middle" anchor="middle" family="Arial" font-family="Arial" font-size="13" font-weight="400" opacity="1" size="13" text-anchor="middle" transform="rotate(0)" weight="400"><tspan id="SvgjsTspan6328" x="71" dy="16"><tspan id="SvgjsTspan6329">Sample Method</tspan></tspan></text></g></g><g id="SvgjsG6330" transform="translate(40.25599179998366,285.60702777368647)"><path id="SvgjsPath6331" fill="none" stroke="none" d="M 0 0L 211.20966898881252 0L 211.20966898881252 95.18624397111785L 0 95.18624397111785Z"/><g id="SvgjsG6332"><text id="SvgjsText6333" width="212" y="16.793" fill="#b8b8b8" align="middle" anchor="start" family="Arial" font-family="Arial" font-size="12" font-weight="400" opacity="1" size="12" text-anchor="start" transform="rotate(0)" weight="400"><tspan id="SvgjsTspan6334" x="0" dy="15"><tspan style="text-decoration:underline" id="SvgjsTspan6335">buffer.sample_method_random_unique</tspan></tspan><tspan id="SvgjsTspan6336" x="0" dy="15"><tspan style="text-decoration:underline" id="SvgjsTspan6337">buffer.sample_method_random</tspan></tspan><tspan id="SvgjsTspan6338" x="0" dy="15"><tspan style="text-decoration:underline" id="SvgjsTspan6339">buffer.sample_method_all</tspan></tspan><tspan id="SvgjsTspan6340" x="0" dy="15"><tspan style="text-decoration:underline" id="SvgjsTspan6341">User specified callable</tspan></tspan></text></g></g><g id="SvgjsG6342"><path id="SvgjsPath6343" fill="none" stroke="#b8b8b8" stroke-width="2" marker-end="url(#SvgjsMarker6344)" d="M145.86082629438965 285.60702777368647L145.86082629438965 277.33900347622983L269.4049792718098 277.33900347622983"/></g><g id="SvgjsG6346"><path id="SvgjsPath6347" fill="none" stroke="#b8b8b8" stroke-width="2" marker-end="url(#SvgjsMarker6348)" d="M212.03742562234424 213.72067095386308L340.23239632959746 256.92233680956315"/></g><g id="SvgjsG6350"><path id="SvgjsPath6351" fill="none" stroke="#b8b8b8" stroke-width="2" marker-end="url(#SvgjsMarker6352)" d="M263.2818255776396 213.61488411706716L340.23239632959746 256.92233680956315"/></g><g id="SvgjsG6354"><path id="SvgjsPath6355" fill="none" stroke="#b8b8b8" stroke-width="2" marker-end="url(#SvgjsMarker6356)" d="M314.25067569187013 213.74381910201126L340.23239632959746 256.92233680956315"/></g><g id="SvgjsG6358"><path id="SvgjsPath6359" fill="none" stroke="#b8b8b8" stroke-width="2" marker-end="url(#SvgjsMarker6360)" d="M365.0275079225527 213.60493021312234L340.23239632959746 256.92233680956315"/></g><g id="SvgjsG6362"><path id="SvgjsPath6363" fill="none" stroke="#b8b8b8" stroke-width="2" marker-end="url(#SvgjsMarker6364)" d="M416.60417141922073 213.60493021312234L340.23239632959746 256.92233680956315"/></g><g id="SvgjsG6366"><path id="SvgjsPath6367" fill="none" stroke="#b8b8b8" stroke-width="2" marker-end="url(#SvgjsMarker6368)" d="M468.01685304566126 213.74381910201126L340.23239632959746 256.92233680956315"/></g><g id="SvgjsG6370" transform="translate(265.757148753292,334.7414661754259)"><path id="SvgjsPath6371" fill="#b8b8b8" fill-opacity="1" stroke="rgba(184,184,184,1)" stroke-width="2" d="M 0 0L 31 0L 47 16L 47 38.98084739402489L 0 38.98084739402489L 0 0Z"/><path id="SvgjsPath6372" fill="#cdcdcd" fill-opacity="1" stroke="rgba(184,184,184,1)" stroke-width="2" d="M 31 0L 31 16L 47 16Z"/><path id="SvgjsPath6373" fill="none" stroke="rgba(184,184,184,1)" stroke-width="2" d="M 0 0L 31 0L 47 16L 47 38.98084739402489L 0 38.98084739402489L 0 0Z"/><g id="SvgjsG6374"><text id="SvgjsText6375" width="27" y="10.04" fill="#323232" align="middle" anchor="middle" family="Arial" font-family="Arial" font-size="13" font-weight="400" opacity="1" size="13" text-anchor="middle" transform="rotate(0)" weight="400"><tspan id="SvgjsTspan6376" x="23.5" dy="16"><tspan id="SvgjsTspan6377">T_1&apos;</tspan></tspan></text></g></g><g id="SvgjsG6378" transform="translate(363.8463381247076,334.7414661754259)"><path id="SvgjsPath6379" fill="#b8b8b8" fill-opacity="1" stroke="rgba(184,184,184,1)" stroke-width="2" d="M 0 0L 31.21347526267749 0L 47.21347526267749 16L 47.21347526267749 38.98084739402489L 0 38.98084739402489L 0 0Z"/><path id="SvgjsPath6380" fill="#cdcdcd" fill-opacity="1" stroke="rgba(184,184,184,1)" stroke-width="2" d="M 31.21347526267749 0L 31.21347526267749 16L 47.21347526267749 16Z"/><path id="SvgjsPath6381" fill="none" stroke="rgba(184,184,184,1)" stroke-width="2" d="M 0 0L 31.21347526267749 0L 47.21347526267749 16L 47.21347526267749 38.98084739402489L 0 38.98084739402489L 0 0Z"/><g id="SvgjsG6382"><text id="SvgjsText6383" width="28" y="10.04" fill="#323232" align="middle" anchor="middle" family="Arial" font-family="Arial" font-size="13" font-weight="400" opacity="1" size="13" text-anchor="middle" transform="rotate(0)" weight="400"><tspan id="SvgjsTspan6384" x="24" dy="16"><tspan id="SvgjsTspan6385">T_3&apos;</tspan></tspan></text></g></g><g id="SvgjsG6386"><path id="SvgjsPath6387" fill="none" stroke="#b8b8b8" stroke-width="2" marker-end="url(#SvgjsMarker6388)" d="M340.23239632959746 297.75567014289646L289.257148753292 334.7414661754259"/></g><g id="SvgjsG6390"><path id="SvgjsPath6391" fill="none" stroke="#b8b8b8" stroke-width="2" marker-end="url(#SvgjsMarker6392)" d="M340.23239632959746 297.75567014289646L387.45307575604636 334.7414661754259"/></g><g id="SvgjsG6394" transform="translate(57.84383510526777,396.6051136363639)"><path id="SvgjsPath6395" fill="#2f2f2f" fill-opacity="1" stroke="rgba(184,184,184,1)" stroke-width="2" d="M 0 0L 262.7127347744374 0L 262.7127347744374 159.00309059836616L 0 159.00309059836616Z"/><g id="SvgjsG6396"><text id="SvgjsText6397" width="243" y="15.552" fill="#fff" align="middle" anchor="start" family="Arial" font-family="Arial" font-size="13" font-weight="400" opacity="1" size="13" text-anchor="start" transform="rotate(0)" weight="400"><tspan id="SvgjsTspan6400" x="10" dy="16"><tspan id="SvgjsTspan6401">state: {&quot;state&quot;: Tensor([[1, 1, 1]])}</tspan></tspan><tspan id="SvgjsTspan6402" x="10" dy="16"><tspan id="SvgjsTspan6403">action: {&quot;action&quot;: Tensor([[1, 1]])}</tspan></tspan><tspan id="SvgjsTspan6404" x="10" dy="16"><tspan id="SvgjsTspan6405">next_state: : {&quot;state&quot;: Tensor([[2, 2, 2]])}</tspan></tspan><tspan id="SvgjsTspan6406" x="10" dy="16"><tspan id="SvgjsTspan6407">reward: 1.0</tspan></tspan><tspan id="SvgjsTspan6408" x="10" dy="16"><tspan id="SvgjsTspan6409">terminal: False</tspan></tspan><tspan id="SvgjsTspan6410" x="10" dy="16"><tspan id="SvgjsTspan6411">others: 0.5</tspan></tspan><tspan id="SvgjsTspan6412" x="10" dy="16"><tspan id="SvgjsTspan6413">others2: {&quot;a2&quot;: &quot;b2&quot;}</tspan></tspan></text></g></g><g id="SvgjsG6414" transform="translate(57.84383510526777,396.6051136363639)"><path id="SvgjsPath6415" fill="none" stroke="rgba(184,184,184,1)" stroke-width="2" d="M 0 0L 262.7127347744374 0L 262.7127347744374 31.537803093890805L 0 31.537803093890805Z"/><g id="SvgjsG6416"><text id="SvgjsText6417" width="243" y="5.169" fill="#fff" align="middle" anchor="middle" family="Arial" font-family="Arial" font-size="14" font-weight="700" opacity="1" size="14" text-anchor="middle" transform="rotate(0)" weight="700"><tspan id="SvgjsTspan6418" x="131.5" dy="17"><tspan id="SvgjsTspan6419">Transition_1&apos;</tspan></tspan></text></g></g><g id="SvgjsG6420"><path id="SvgjsPath6421" fill="none" stroke="#323232" stroke-width="2" marker-end="url(#SvgjsMarker6422)" d="M478.364653572042 131.38625078811387L558.7383880615233 118.83134599165481"/></g><g id="SvgjsG6424"><path id="SvgjsPath6425" fill="none" stroke="#b8b8b8" stroke-dasharray="3 3" stroke-width="2" d="M289.257148753292 373.72231356945076L189.20020249248637 396.6051136363639"/></g><g id="SvgjsG6426" transform="translate(361.7647560703173,396.6051136363639)"><path id="SvgjsPath6427" fill="#2f2f2f" fill-opacity="1" stroke="rgba(184,184,184,1)" stroke-width="2" d="M 0 0L 264.5274067369522 0L 264.5274067369522 159.00309059836633L 0 159.00309059836633Z"/><g id="SvgjsG6428"><text id="SvgjsText6429" width="245" y="15.552" fill="#fff" align="middle" anchor="start" family="Arial" font-family="Arial" font-size="13" font-weight="400" opacity="1" size="13" text-anchor="start" transform="rotate(0)" weight="400"><tspan id="SvgjsTspan6432" x="10" dy="16"><tspan id="SvgjsTspan6433">state: {&quot;state&quot;: Tensor([[3, 3, 3]])}</tspan></tspan><tspan id="SvgjsTspan6434" x="10" dy="16"><tspan id="SvgjsTspan6435">action: {&quot;action&quot;: Tensor([[3, 3]])}</tspan></tspan><tspan id="SvgjsTspan6436" x="10" dy="16"><tspan id="SvgjsTspan6437">next_state: : {&quot;state&quot;: Tensor([[4, 4, 4]])}</tspan></tspan><tspan id="SvgjsTspan6438" x="10" dy="16"><tspan id="SvgjsTspan6439">reward: 3.0</tspan></tspan><tspan id="SvgjsTspan6440" x="10" dy="16"><tspan id="SvgjsTspan6441">terminal: True</tspan></tspan><tspan id="SvgjsTspan6442" x="10" dy="16"><tspan id="SvgjsTspan6443">others: 1.5</tspan></tspan><tspan id="SvgjsTspan6444" x="10" dy="16"><tspan id="SvgjsTspan6445">others2: {&quot;c2&quot;: &quot;d2&quot;}</tspan></tspan></text></g></g><g id="SvgjsG6446" transform="translate(361.7647560703173,396.6051136363639)"><path id="SvgjsPath6447" fill="none" stroke="rgba(184,184,184,1)" stroke-width="2" d="M 0 0L 264.5274067369522 0L 264.5274067369522 31.537803093890837L 0 31.537803093890837Z"/><g id="SvgjsG6448"><text id="SvgjsText6449" width="245" y="5.169" fill="#fff" align="middle" anchor="middle" family="Arial" font-family="Arial" font-size="14" font-weight="700" opacity="1" size="14" text-anchor="middle" transform="rotate(0)" weight="700"><tspan id="SvgjsTspan6450" x="132.5" dy="17"><tspan id="SvgjsTspan6451">Transition_3&apos;</tspan></tspan></text></g></g><g id="SvgjsG6452"><path id="SvgjsPath6453" fill="none" stroke="#b8b8b8" stroke-dasharray="3 3" stroke-width="2" d="M387.45307575604636 373.7223135694508L494.02845943879333 396.6051136363639"/></g><g id="SvgjsG6454" transform="translate(133.6725419064697,692.6632227949502)"><path id="SvgjsPath6455" fill="#2f2f2f" fill-opacity="1" stroke="rgba(184,184,184,1)" stroke-width="2" d="M 0 0L 127.38491206388335 0L 127.38491206388335 104.12704745205951L 0 104.12704745205951Z"/><g id="SvgjsG6456"><text id="SvgjsText6457" width="108" y="-3.886" fill="#fff" align="middle" anchor="start" family="Arial" font-family="Arial" font-size="13" font-weight="400" opacity="1" size="13" text-anchor="start" transform="rotate(0)" weight="400"><tspan id="SvgjsTspan6462" x="10" dy="16"><tspan style="font-size:inherit" id="SvgjsTspan6463">{&quot;state&quot;: </tspan></tspan><tspan id="SvgjsTspan6464" x="10" dy="16"><tspan style="font-size:inherit" id="SvgjsTspan6465">Tensor([[1, 1, 1],</tspan></tspan><tspan id="SvgjsTspan6466" x="10" dy="16"><tspan style="font-size:inherit" id="SvgjsTspan6467"> [3, 3, 3]],</tspan></tspan><tspan id="SvgjsTspan6468" x="10" dy="16"><tspan style="font-size:inherit" id="SvgjsTspan6469"> &quot;cuda:0&quot;)}</tspan></tspan></text></g></g><g id="SvgjsG6472" transform="translate(133.6725419064697,692.6632227949502)"><path id="SvgjsPath6473" fill="none" stroke="rgba(184,184,184,1)" stroke-width="2" d="M 0 0L 127.38491206388335 0L 127.38491206388335 20.65329866817709L 0 20.65329866817709Z"/><g id="SvgjsG6474"><text id="SvgjsText6475" width="108" y="-.273" fill="#fff" align="middle" anchor="middle" family="Arial" font-family="Arial" font-size="14" font-weight="700" opacity="1" size="14" text-anchor="middle" transform="rotate(0)" weight="700"><tspan id="SvgjsTspan6476" x="64" dy="17"><tspan id="SvgjsTspan6477">state</tspan></tspan></text></g></g><g id="SvgjsG6478" transform="translate(272.4049011872276,692.888587169542)"><path id="SvgjsPath6479" fill="#2f2f2f" fill-opacity="1" stroke="rgba(184,184,184,1)" stroke-width="2" d="M 0 0L 129.56400310924823 0L 129.56400310924823 103.64403326963838L 0 103.64403326963838Z"/><g id="SvgjsG6480"><text id="SvgjsText6481" width="110" y="-4.128" fill="#fff" align="middle" anchor="start" family="Arial" font-family="Arial" font-size="13" font-weight="400" opacity="1" size="13" text-anchor="start" transform="rotate(0)" weight="400"><tspan id="SvgjsTspan6486" x="10" dy="16"><tspan style="font-size:inherit" id="SvgjsTspan6487">{&quot;action&quot;: </tspan></tspan><tspan id="SvgjsTspan6488" x="10" dy="16"><tspan style="font-size:inherit" id="SvgjsTspan6489">Tensor([[1, 1],</tspan></tspan><tspan id="SvgjsTspan6490" x="10" dy="16"><tspan style="font-size:inherit" id="SvgjsTspan6491"> [3, 3]]</tspan><tspan id="SvgjsTspan6492">,</tspan></tspan><tspan id="SvgjsTspan6493" x="10" dy="16"><tspan id="SvgjsTspan6494"> &quot;cuda:0&quot;</tspan><tspan style="font-size:inherit" id="SvgjsTspan6495">)}</tspan></tspan></text></g></g><g id="SvgjsG6498" transform="translate(272.4049011872276,692.888587169542)"><path id="SvgjsPath6499" fill="none" stroke="rgba(184,184,184,1)" stroke-width="2" d="M 0 0L 129.56400310924823 0L 129.56400310924823 20.55749420224232L 0 20.55749420224232Z"/><g id="SvgjsG6500"><text id="SvgjsText6501" width="110" y="-.321" fill="#fff" align="middle" anchor="middle" family="Arial" font-family="Arial" font-size="14" font-weight="700" opacity="1" size="14" text-anchor="middle" transform="rotate(0)" weight="700"><tspan id="SvgjsTspan6502" x="65" dy="17"><tspan id="SvgjsTspan6503">action</tspan></tspan></text></g></g><g id="SvgjsG6504" transform="translate(412.0207453625302,692.8884404175727)"><path id="SvgjsPath6505" fill="#2f2f2f" fill-opacity="1" stroke="rgba(184,184,184,1)" stroke-width="2" d="M 0 0L 124.40898169228626 0L 124.40898169228626 104.03468701181191L 0 104.03468701181191Z"/><g id="SvgjsG6506"><text id="SvgjsText6507" width="105" y="-3.933" fill="#fff" align="middle" anchor="start" family="Arial" font-family="Arial" font-size="13" font-weight="400" opacity="1" size="13" text-anchor="start" transform="rotate(0)" weight="400"><tspan id="SvgjsTspan6512" x="10" dy="16"><tspan style="font-size:inherit" id="SvgjsTspan6513">{&quot;state&quot;: </tspan></tspan><tspan id="SvgjsTspan6514" x="10" dy="16"><tspan style="font-size:inherit" id="SvgjsTspan6515">Tensor([[2, 2, 2],</tspan></tspan><tspan id="SvgjsTspan6516" x="10" dy="16"><tspan style="font-size:inherit" id="SvgjsTspan6517"> [4, 4, 4]]</tspan><tspan id="SvgjsTspan6518">,</tspan></tspan><tspan id="SvgjsTspan6519" x="10" dy="16"><tspan id="SvgjsTspan6520"> &quot;cuda:0&quot;</tspan><tspan style="font-size:inherit" id="SvgjsTspan6521">)}</tspan></tspan></text></g></g><g id="SvgjsG6524" transform="translate(412.0207453625302,692.8884404175727)"><path id="SvgjsPath6525" fill="none" stroke="rgba(184,184,184,1)" stroke-width="2" d="M 0 0L 124.40898169228626 0L 124.40898169228626 20.634979242012278L 0 20.634979242012278Z"/><g id="SvgjsG6526"><text id="SvgjsText6527" width="105" y="-.283" fill="#fff" align="middle" anchor="middle" family="Arial" font-family="Arial" font-size="14" font-weight="700" opacity="1" size="14" text-anchor="middle" transform="rotate(0)" weight="700"><tspan id="SvgjsTspan6528" x="62.5" dy="17"><tspan id="SvgjsTspan6529">next_state</tspan></tspan></text></g></g><g id="SvgjsG6530" transform="translate(116.72998427643404,810.1008486648317)"><path id="SvgjsPath6531" fill="#2f2f2f" fill-opacity="1" stroke="rgba(184,184,184,1)" stroke-width="2" d="M 0 0L 134.73567651236215 0L 134.73567651236215 79.50705651583644L 0 79.50705651583644Z"/><g id="SvgjsG6532"><text id="SvgjsText6533" width="115" y="6.804" fill="#fff" align="middle" anchor="start" family="Arial" font-family="Arial" font-size="13" font-weight="400" opacity="1" size="13" text-anchor="start" transform="rotate(0)" weight="400"><tspan id="SvgjsTspan6536" x="10" dy="16"><tspan style="font-size:inherit" id="SvgjsTspan6537">Tensor([[1.0], [3.0]],</tspan></tspan><tspan id="SvgjsTspan6538" x="10" dy="16"><tspan style="font-size:inherit" id="SvgjsTspan6539"> &quot;cuda:0&quot;)</tspan></tspan></text></g></g><g id="SvgjsG6542" transform="translate(116.72998427643404,810.1008486648317)"><path id="SvgjsPath6543" fill="none" stroke="rgba(184,184,184,1)" stroke-width="2" d="M 0 0L 134.73567651236215 0L 134.73567651236215 15.769994680827061L 0 15.769994680827061Z"/><g id="SvgjsG6544"><text id="SvgjsText6545" width="115" y="-2.715" fill="#fff" align="middle" anchor="middle" family="Arial" font-family="Arial" font-size="14" font-weight="700" opacity="1" size="14" text-anchor="middle" transform="rotate(0)" weight="700"><tspan id="SvgjsTspan6546" x="67.5" dy="17"><tspan id="SvgjsTspan6547">reward</tspan></tspan></text></g></g><g id="SvgjsG6548" transform="translate(257.16445332745764,810.1008486648317)"><path id="SvgjsPath6549" fill="#2f2f2f" fill-opacity="1" stroke="rgba(184,184,184,1)" stroke-width="2" d="M 0 0L 161.71020395001116 0L 161.71020395001116 79.50705651583644L 0 79.50705651583644Z"/><g id="SvgjsG6550"><text id="SvgjsText6551" width="142" y="6.804" fill="#fff" align="middle" anchor="start" family="Arial" font-family="Arial" font-size="13" font-weight="400" opacity="1" size="13" text-anchor="start" transform="rotate(0)" weight="400"><tspan id="SvgjsTspan6554" x="10" dy="16"><tspan style="font-size:inherit" id="SvgjsTspan6555">Tensor([[False], [True]],</tspan></tspan><tspan id="SvgjsTspan6556" x="10" dy="16"><tspan style="font-size:inherit" id="SvgjsTspan6557"> &quot;cuda:0&quot;)</tspan></tspan></text></g></g><g id="SvgjsG6560" transform="translate(257.16445332745764,810.1008486648317)"><path id="SvgjsPath6561" fill="none" stroke="rgba(184,184,184,1)" stroke-width="2" d="M 0 0L 161.71020395001116 0L 161.71020395001116 15.769994680827061L 0 15.769994680827061Z"/><g id="SvgjsG6562"><text id="SvgjsText6563" width="142" y="-2.715" fill="#fff" align="middle" anchor="middle" family="Arial" font-family="Arial" font-size="14" font-weight="700" opacity="1" size="14" text-anchor="middle" transform="rotate(0)" weight="700"><tspan id="SvgjsTspan6564" x="81" dy="17"><tspan id="SvgjsTspan6565">terminal</tspan></tspan></text></g></g><g id="SvgjsG6566"><path id="SvgjsPath6567" fill="none" stroke="#323232" stroke-width="2" d="M313.1039653373992 793.7738796999295L320.5093769173222 793.7738796999295"/></g><g id="SvgjsG6568"><path id="SvgjsPath6569" fill="none" stroke="#323232" stroke-width="2" d="M417.6927680436272 883.0405180761929L418.610805091512 881.5786997560302"/></g><g id="SvgjsG6570" transform="translate(426.16742713467306,810.1008486648317)"><path id="SvgjsPath6571" fill="#2f2f2f" fill-opacity="1" stroke="rgba(184,184,184,1)" stroke-width="2" d="M 0 0L 135.72206460824037 0L 135.72206460824037 79.50705651583644L 0 79.50705651583644Z"/><g id="SvgjsG6572"><text id="SvgjsText6573" width="116" y="6.804" fill="#fff" align="middle" anchor="start" family="Arial" font-family="Arial" font-size="13" font-weight="400" opacity="1" size="13" text-anchor="start" transform="rotate(0)" weight="400"><tspan id="SvgjsTspan6576" x="10" dy="16"><tspan style="font-size:inherit" id="SvgjsTspan6577">Tensor([[0.5], [1.5]],</tspan></tspan><tspan id="SvgjsTspan6578" x="10" dy="16"><tspan style="font-size:inherit" id="SvgjsTspan6579"> &quot;cuda:0&quot;)</tspan></tspan></text></g></g><g id="SvgjsG6582" transform="translate(426.16742713467306,810.1008486648317)"><path id="SvgjsPath6583" fill="none" stroke="rgba(184,184,184,1)" stroke-width="2" d="M 0 0L 135.72206460824037 0L 135.72206460824037 15.769994680827061L 0 15.769994680827061Z"/><g id="SvgjsG6584"><text id="SvgjsText6585" width="116" y="-2.715" fill="#fff" align="middle" anchor="middle" family="Arial" font-family="Arial" font-size="14" font-weight="700" opacity="1" size="14" text-anchor="middle" transform="rotate(0)" weight="700"><tspan id="SvgjsTspan6586" x="68" dy="17"><tspan id="SvgjsTspan6587">others</tspan></tspan></text></g></g><g id="SvgjsG6588" transform="translate(245.40440515696184,900.1008479524178)"><path id="SvgjsPath6589" fill="#2f2f2f" fill-opacity="1" stroke="rgba(184,184,184,1)" stroke-width="2" d="M 0 0L 185.23030029100272 0L 185.23030029100272 88.56518986718436L 0 88.56518986718436Z"/><g id="SvgjsG6590"><text id="SvgjsText6591" width="166" y="19.333" fill="#fff" align="middle" anchor="start" family="Arial" font-family="Arial" font-size="13" font-weight="400" opacity="1" size="13" text-anchor="start" transform="rotate(0)" weight="400"><tspan id="SvgjsTspan6592" x="10" dy="16"><tspan id="SvgjsTspan6593">{</tspan><tspan style="font-size:inherit" id="SvgjsTspan6594">&quot;others2&quot;: [{&quot;a2&quot;: &quot;b2&quot;},</tspan></tspan><tspan id="SvgjsTspan6595" x="10" dy="16"><tspan id="SvgjsTspan6596"> {&quot;c2&quot;: &quot;d2&quot;}]</tspan></tspan><tspan id="SvgjsTspan6597" x="10" dy="16"><tspan id="SvgjsTspan6598">}</tspan></tspan></text></g></g><g id="SvgjsG6599" transform="translate(245.40440515696184,900.1008479524178)"><path id="SvgjsPath6600" fill="none" stroke="rgba(184,184,184,1)" stroke-width="2" d="M 0 0L 185.23030029100272 0L 185.23030029100272 17.56664922985475L 0 17.56664922985475Z"/><g id="SvgjsG6601"><text id="SvgjsText6602" width="166" y="-1.817" fill="#fff" align="middle" anchor="middle" family="Arial" font-family="Arial" font-size="14" font-weight="700" opacity="1" size="14" text-anchor="middle" transform="rotate(0)" weight="700"><tspan id="SvgjsTspan6603" x="93" dy="17"><tspan id="SvgjsTspan6604">*</tspan></tspan></text></g></g><g id="SvgjsG6605" transform="translate(80.61851619385959,997.0131503018465)"><path id="SvgjsPath6606" fill="none" stroke="none" d="M 0 0L 502.8933944995729 0L 502.8933944995729 35.45454545454538L 0 35.45454545454538Z"/><g id="SvgjsG6607"><text id="SvgjsText6608" width="503" y="8.277" fill="#b8b8b8" align="middle" anchor="middle" family="Arial" font-family="Arial" font-size="13" font-weight="700" opacity="1" size="13" text-anchor="middle" transform="rotate(0)" weight="700"><tspan id="SvgjsTspan6609" x="251.5" dy="16"><tspan id="SvgjsTspan6610">return batch_size, (state, action, next_state, reward, terminal, others, *)</tspan></tspan></text></g></g><g id="SvgjsG6611"><path id="SvgjsPath6612" fill="none" stroke="#b8b8b8" stroke-width="2" marker-end="url(#SvgjsMarker6613)" d="M189.20020249248648 555.60820423473L337.186902741852 692.888587169542"/></g><g id="SvgjsG6615"><path id="SvgjsPath6616" fill="none" stroke="#b8b8b8" stroke-width="2" marker-start="url(#SvgjsMarker6617)" d="M337.186902741852 692.888587169542L494.02845943879333 555.6082042347302"/></g><g id="SvgjsG6619" transform="translate(31.452505244386828,568.9757757179734)"><path id="SvgjsPath6620" fill="none" stroke="none" d="M 0 0L 211.20966898881252 0L 211.20966898881252 95.18624397111785L 0 95.18624397111785Z"/></g><g id="SvgjsG6625" transform="translate(40.25599179998366,564.3948669433594)"><path id="SvgjsPath6626" fill="none" stroke="none" d="M 0 0L 152.1758256223155 0L 152.1758256223155 116.18182373046875L 0 116.18182373046875Z"/><g id="SvgjsG6627"><text id="SvgjsText6628" width="153" y="-1.709" fill="#b8b8b8" align="middle" anchor="start" family="Arial" font-family="Arial" font-size="12" font-weight="400" opacity="1" size="12" text-anchor="start" transform="rotate(0)" weight="400"><tspan id="SvgjsTspan6629" x="0" dy="15"><tspan id="SvgjsTspan6630">sample_attrs=[ </tspan></tspan><tspan id="SvgjsTspan6631" x="0" dy="15"><tspan id="SvgjsTspan6632"> &quot;state&quot;, &quot;action&quot;, </tspan></tspan><tspan id="SvgjsTspan6633" x="0" dy="15"><tspan id="SvgjsTspan6634"> &quot;reward&quot;, &quot;next_state&quot;, </tspan></tspan><tspan id="SvgjsTspan6635" x="0" dy="15"><tspan style="font-size:inherit" id="SvgjsTspan6636"> &quot;terminal&quot;, &quot;others&quot;, &quot;*&quot; </tspan></tspan><tspan id="SvgjsTspan6637" x="0" dy="15"><tspan id="SvgjsTspan6638">]</tspan></tspan><tspan id="SvgjsTspan6639" x="0" dy="15"><tspan id="SvgjsTspan6640">additional_concat_attrs=[</tspan></tspan><tspan id="SvgjsTspan6641" x="0" dy="15"><tspan id="SvgjsTspan6642"> &quot;others&quot;</tspan></tspan><tspan id="SvgjsTspan6643" x="0" dy="15"><tspan id="SvgjsTspan6644">]</tspan></tspan></text></g></g></svg>