<svg xmlns="http://www.w3.org/2000/svg" xmlns:svgjs="http://svgjs.com/svgjs" xmlns:xlink="http://www.w3.org/1999/xlink" id="SvgjsSvg1520" width="612" height="552" version="1.1"><defs id="SvgjsDefs1521"><marker id="SvgjsMarker1617" stroke-dasharray="0 0" markerHeight="12" markerUnits="userSpaceOnUse" markerWidth="16" orient="auto" refX="0" refY="6" viewBox="0 0 16 12"><path id="SvgjsPath1618" fill="#b8b8b8" stroke="#b8b8b8" stroke-width="2" d="M15,1.5 L2,6 L15,10.5"/></marker><marker id="SvgjsMarker1621" stroke-dasharray="0 0" markerHeight="12" markerUnits="userSpaceOnUse" markerWidth="16" orient="auto" refX="16" refY="6" viewBox="0 0 16 12"><path id="SvgjsPath1622" fill="#b8b8b8" stroke="#b8b8b8" stroke-width="2" d="M0,2 L14,6 L0,11 L0,2"/></marker><marker id="SvgjsMarker1661" stroke-dasharray="0 0" markerHeight="12" markerUnits="userSpaceOnUse" markerWidth="16" orient="auto" refX="16" refY="6" viewBox="0 0 16 12"><path id="SvgjsPath1662" fill="#b8b8b8" stroke="#b8b8b8" stroke-width="2" d="M0,2 L14,6 L0,11 L0,2"/></marker><marker id="SvgjsMarker1665" stroke-dasharray="0 0" markerHeight="12" markerUnits="userSpaceOnUse" markerWidth="16" orient="auto" refX="16" refY="6" viewBox="0 0 16 12"><path id="SvgjsPath1666" fill="#b8b8b8" stroke="#b8b8b8" stroke-width="2" d="M0,2 L14,6 L0,11 L0,2"/></marker><marker id="SvgjsMarker1729" stroke-dasharray="0 0" markerHeight="16" markerUnits="userSpaceOnUse" markerWidth="16" orient="auto" refX="13" refY="8" viewBox="0 0 16 16"><circle id="SvgjsCircle1730" cx="8" cy="8" r="4" fill="#fff" stroke="#b8b8b8" stroke-width="2"/></marker><marker id="SvgjsMarker1733" stroke-dasharray="0 0" markerHeight="16" markerUnits="userSpaceOnUse" markerWidth="16" orient="auto" refX="13" refY="8" viewBox="0 0 16 16"><circle id="SvgjsCircle1734" cx="8" cy="8" r="4" fill="#fff" stroke="#b8b8b8" stroke-width="2"/></marker><marker id="SvgjsMarker1743" stroke-dasharray="0 0" markerHeight="12" markerUnits="userSpaceOnUse" markerWidth="16" orient="auto" refX="16" refY="6" viewBox="0 0 16 12"><path id="SvgjsPath1744" fill="#b8b8b8" stroke="#b8b8b8" stroke-width="2" d="M0,2 L14,6 L0,11 L0,2"/></marker><marker id="SvgjsMarker1747" stroke-dasharray="0 0" markerHeight="12" markerUnits="userSpaceOnUse" markerWidth="16" orient="auto" refX="16" refY="6" viewBox="0 0 16 12"><path id="SvgjsPath1748" fill="#b8b8b8" stroke="#b8b8b8" stroke-width="2" d="M0,2 L14,6 L0,11 L0,2"/></marker><marker id="SvgjsMarker1751" stroke-dasharray="0 0" markerHeight="12" markerUnits="userSpaceOnUse" markerWidth="16" orient="auto" refX="16" refY="6" viewBox="0 0 16 12"><path id="SvgjsPath1752" fill="#b8b8b8" stroke="#b8b8b8" stroke-width="2" d="M0,2 L14,6 L0,11 L0,2"/></marker><marker id="SvgjsMarker1755" stroke-dasharray="0 0" markerHeight="12" markerUnits="userSpaceOnUse" markerWidth="16" orient="auto" refX="16" refY="6" viewBox="0 0 16 12"><path id="SvgjsPath1756" fill="#b8b8b8" stroke="#b8b8b8" stroke-width="2" d="M0,2 L14,6 L0,11 L0,2"/></marker><marker id="SvgjsMarker1759" stroke-dasharray="0 0" markerHeight="12" markerUnits="userSpaceOnUse" markerWidth="16" orient="auto" refX="16" refY="6" viewBox="0 0 16 12"><path id="SvgjsPath1760" fill="#b8b8b8" stroke="#b8b8b8" stroke-width="2" d="M0,2 L14,6 L0,11 L0,2"/></marker><marker id="SvgjsMarker1763" stroke-dasharray="0 0" markerHeight="12" markerUnits="userSpaceOnUse" markerWidth="16" orient="auto" refX="16" refY="6" viewBox="0 0 16 12"><path id="SvgjsPath1764" fill="#b8b8b8" stroke="#b8b8b8" stroke-width="2" d="M0,2 L14,6 L0,11 L0,2"/></marker></defs><rect id="SvgjsRect1522" width="612" height="552" fill="#2f2f2f"/><g id="SvgjsG1523" transform="translate(25.004381619966864,25.00503246600809)"><path id="SvgjsPath1524" fill="none" stroke="rgba(184,184,184,1)" stroke-dasharray="3 4" stroke-width="2" d="M 0 0L 562.3076923076922 0L 562.3076923076922 501.70934530404895L 0 501.70934530404895Z"/></g><g id="SvgjsG1527" transform="translate(77.23295593261719,78.72832630298763)"><path id="SvgjsPath1528" fill="#b8b8b8" fill-opacity="1" stroke="none" d="M 0 0L 31 0L 47 16L 47 38.98084739402489L 0 38.98084739402489L 0 0Z"/><path id="SvgjsPath1529" fill="#cdcdcd" fill-opacity="1" stroke="none" d="M 31 0L 31 16L 47 16Z"/><path id="SvgjsPath1530" fill="none" stroke="none" d="M 0 0L 31 0L 47 16L 47 38.98084739402489L 0 38.98084739402489L 0 0Z"/><g id="SvgjsG1531"><text id="SvgjsText1532" width="27" y="10.04" fill="#323232" align="middle" anchor="middle" family="Arial" font-family="Arial" font-size="13" font-weight="400" opacity="1" size="13" text-anchor="middle" transform="rotate(0)" weight="400"><tspan id="SvgjsTspan1533" x="23.5" dy="16"><tspan id="SvgjsTspan1534">T_1</tspan></tspan></text></g></g><g id="SvgjsG1535" transform="translate(87.23295593261719,84.72832630298763)"><path id="SvgjsPath1536" fill="#a1a1a1" fill-opacity="1" stroke="none" d="M 0 0L 31 0L 47 16L 47 38.98084739402489L 0 38.98084739402489L 0 0Z"/><path id="SvgjsPath1537" fill="#cdcdcd" fill-opacity="1" stroke="none" d="M 31 0L 31 16L 47 16Z"/><path id="SvgjsPath1538" fill="none" stroke="none" d="M 0 0L 31 0L 47 16L 47 38.98084739402489L 0 38.98084739402489L 0 0Z"/><g id="SvgjsG1539"><text id="SvgjsText1540" width="27" y="10.04" fill="#323232" align="middle" anchor="middle" family="Arial" font-family="Arial" font-size="13" font-weight="400" opacity="1" size="13" text-anchor="middle" transform="rotate(0)" weight="400"><tspan id="SvgjsTspan1541" x="23.5" dy="16"><tspan id="SvgjsTspan1542">T_2</tspan></tspan></text></g></g><g id="SvgjsG1543" transform="translate(97.23295593261719,91.11294168760301)"><path id="SvgjsPath1544" fill="#8a8a8a" fill-opacity="1" stroke="none" d="M 0 0L 31 0L 47 16L 47 38.98084739402489L 0 38.98084739402489L 0 0Z"/><path id="SvgjsPath1545" fill="#cdcdcd" fill-opacity="1" stroke="none" d="M 31 0L 31 16L 47 16Z"/><path id="SvgjsPath1546" fill="none" stroke="none" d="M 0 0L 31 0L 47 16L 47 38.98084739402489L 0 38.98084739402489L 0 0Z"/><g id="SvgjsG1547"><text id="SvgjsText1548" width="27" y="10.04" fill="#323232" align="middle" anchor="middle" family="Arial" font-family="Arial" font-size="13" font-weight="400" opacity="1" size="13" text-anchor="middle" transform="rotate(0)" weight="400"><tspan id="SvgjsTspan1549" x="23.5" dy="16"><tspan id="SvgjsTspan1550">T_3</tspan></tspan></text></g></g><g id="SvgjsG1551" transform="translate(25.518271484854836,25.270396576830592)"><path id="SvgjsPath1552" fill="none" stroke="none" d="M 0 0L 120 0L 120 40L 0 40Z"/><g id="SvgjsG1553"><text id="SvgjsText1554" width="120" y="10.55" fill="#b8b8b8" align="middle" anchor="middle" family="Arial" font-family="Arial" font-size="13" font-weight="400" opacity="1" size="13" text-anchor="middle" transform="rotate(0)" weight="400"><tspan id="SvgjsTspan1555" x="60" dy="16"><tspan id="SvgjsTspan1556">Your application</tspan></tspan></text></g></g><g id="SvgjsG1557" transform="translate(174.98289657839103,156.25035725579752)"><path id="SvgjsPath1558" fill="none" stroke="rgba(184,184,184,1)" stroke-width="2" d="M 0 0L 292.32917734926804 0L 292.32917734926804 340.9535327377232L 0 340.9535327377232Z"/></g><g id="SvgjsG1561" transform="translate(56.87764233782525,130.41657245903323)"><path id="SvgjsPath1562" fill="none" stroke="none" d="M 0 0L 120 0L 120 40L 0 40Z"/><g id="SvgjsG1563"><text id="SvgjsText1564" width="120" y="10.55" fill="#b8b8b8" align="middle" anchor="middle" family="Arial" font-family="Arial" font-size="13" font-weight="400" opacity="1" size="13" text-anchor="middle" transform="rotate(0)" weight="400"><tspan id="SvgjsTspan1565" x="60" dy="16"><tspan id="SvgjsTspan1566">Transitions</tspan></tspan></text></g></g><g id="SvgjsG1567" transform="translate(362.4604777183679,246.6601139601848)"><path id="SvgjsPath1568" fill="none" stroke="rgba(161,161,161,1)" stroke-width="2" d="M 0 0L 93.07692307692264 0L 93.07692307692264 28.84615384615398L 0 28.84615384615398Z"/><g id="SvgjsG1569"><text id="SvgjsText1570" width="74" y="4.973" fill="#b8b8b8" align="middle" anchor="middle" family="Arial" font-family="Arial" font-size="13" font-weight="400" opacity="1" size="13" text-anchor="middle" transform="rotate(0)" weight="400"><tspan id="SvgjsTspan1571" x="47" dy="16"><tspan id="SvgjsTspan1572">Buffer</tspan></tspan></text></g></g><g id="SvgjsG1573" transform="translate(175.36690397543708,156.23686385372343)"><path id="SvgjsPath1574" fill="none" stroke="none" d="M 0 0L 153.48363149068354 0L 153.48363149068354 36.3516415244128L 0 36.3516415244128Z"/><g id="SvgjsG1575"><text id="SvgjsText1576" width="154" y="8.726" fill="#b8b8b8" align="middle" anchor="middle" family="Arial" font-family="Arial" font-size="13" font-weight="400" opacity="1" size="13" text-anchor="middle" transform="rotate(0)" weight="400"><tspan id="SvgjsTspan1577" x="77" dy="16"><tspan id="SvgjsTspan1578">DQN(mode=&quot;double&quot;)</tspan></tspan></text></g></g><g id="SvgjsG1579" transform="translate(58.132586720926156,263.34650449272914)"><path id="SvgjsPath1580" fill="none" stroke="rgba(184,184,184,1)" stroke-width="2" d="M 11.769230769230768 51.61801992702064C -9.807692307692307 36.870014233586176 3.923076923076923 25.80900996351032 8.826923076923075 22.122008540151704C 6.865384615384615 3.687001423358618 31.384615384615383 0 41.192307692307686 7.374002846717236C 49.03846153846153 -3.687001423358618 73.55769230769229 0 73.55769230769229 11.061004270075852C 93.1730769230769 7.374002846717236 101.01923076923076 22.122008540151704 93.1730769230769 40.5570156569448C 100.03846153846153 55.30502135037926 93.1730769230769 73.74002846717235 70.6153846153846 66.36602562045512C 65.71153846153845 75.95222932118752 46.09615384615384 75.95222932118752 41.192307692307686 66.36602562045512C 31.384615384615383 73.74002846717235 11.769230769230768 70.05302704381373 11.769230769230768 51.61801992702064Z"/></g><g id="SvgjsG1583" transform="translate(48.28000919544314,280.2165187263153)"><path id="SvgjsPath1584" fill="none" stroke="none" d="M 0 0L 120 0L 120 40L 0 40Z"/><g id="SvgjsG1585"><text id="SvgjsText1586" width="120" y="10.55" fill="#b8b8b8" align="middle" anchor="middle" family="Arial" font-family="Arial" font-size="13" font-weight="400" opacity="1" size="13" text-anchor="middle" transform="rotate(0)" weight="400"><tspan id="SvgjsTspan1587" x="60" dy="16"><tspan id="SvgjsTspan1588">Environment</tspan></tspan></text></g></g><g id="SvgjsG1589" transform="translate(136.95756346403442,425.2808130704442)"><path id="SvgjsPath1590" fill="none" stroke="rgba(184,184,184,1)" stroke-width="2" d="M 0 10C 0 -3.3333333333333335 20 -3.3333333333333335 20 10C 20 23.333333333333332 0 23.333333333333332 0 10Z"/></g><g id="SvgjsG1593"><path id="SvgjsPath1594" fill="none" stroke="#b8b8b8" stroke-width="2" d="M156.95756346403442 435.2808130704442L165.50759976093548 435.2808130704442L165.50759976093548 435.2808130704442L174.05763605783653 435.2808130704442"/></g><g id="SvgjsG1595" transform="translate(137.13507825693387,455.28081307044425)"><path id="SvgjsPath1596" fill="none" stroke="rgba(184,184,184,1)" stroke-width="2" d="M 0 10C 0 -3.3333333333333335 20 -3.3333333333333335 20 10C 20 23.333333333333332 0 23.333333333333332 0 10Z"/></g><g id="SvgjsG1599"><path id="SvgjsPath1600" fill="none" stroke="#b8b8b8" stroke-width="2" d="M157.13507825693387 465.28081307044425L165.68511455383492 465.28081307044425L165.68511455383492 465.28081307044425L174.23515085073598 465.28081307044425"/></g><g id="SvgjsG1601" transform="translate(54.023799246545366,415.3269602506711)"><path id="SvgjsPath1602" fill="none" stroke="none" d="M 0 0L 120 0L 120 40L 0 40Z"/><g id="SvgjsG1603"><text id="SvgjsText1604" width="120" y="10.7" fill="#b8b8b8" align="middle" anchor="start" family="Arial" font-family="Arial" font-size="12" font-weight="400" opacity="1" size="12" text-anchor="start" transform="rotate(0)" weight="400"><tspan id="SvgjsTspan1605" x="0" dy="15"><tspan id="SvgjsTspan1606">act_discreet()</tspan></tspan></text></g></g><g id="SvgjsG1607" transform="translate(55.38741932207648,447.01924572322224)"><path id="SvgjsPath1608" fill="none" stroke="none" d="M 0 0L 120 0L 120 40L 0 40Z"/><g id="SvgjsG1609"><text id="SvgjsText1610" width="120" y="3.7" fill="#b8b8b8" align="middle" anchor="start" family="Arial" font-family="Arial" font-size="12" font-weight="400" opacity="1" size="12" text-anchor="start" transform="rotate(0)" weight="400"><tspan id="SvgjsTspan1611" x="0" dy="15"><tspan id="SvgjsTspan1612">act_discreet</tspan></tspan><tspan id="SvgjsTspan1613" x="0" dy="15"><tspan id="SvgjsTspan1614">_with_noise()</tspan></tspan></text></g></g><g id="SvgjsG1615"><path id="SvgjsPath1616" fill="none" stroke="#b8b8b8" stroke-width="2" marker-start="url(#SvgjsMarker1617)" d="M114.03643287477229 337.0865329599015L114.03643287477229 376.2067466052863L114.02379924654537 376.2067466052863L114.02379924654537 415.3269602506711"/></g><g id="SvgjsG1619"><path id="SvgjsPath1620" fill="none" stroke="#b8b8b8" stroke-width="2" marker-end="url(#SvgjsMarker1621)" d="M116.97874056707997 264.08390477740085L116.97874056707997 217.25023861821705L116.87764233782525 217.25023861821705L116.87764233782525 170.41657245903323"/></g><g id="SvgjsG1623" transform="translate(193.65208406224593,286.2958659707589)"><path id="SvgjsPath1624" fill="none" stroke="rgba(184,184,184,1)" stroke-width="2" d="M 0 0L 93.07692307692264 0L 93.07692307692264 28.84615384615398L 0 28.84615384615398Z"/><g id="SvgjsG1625"><text id="SvgjsText1626" width="74" y="4.973" fill="#b8b8b8" align="middle" anchor="middle" family="Arial" font-family="Arial" font-size="13" font-weight="400" opacity="1" size="13" text-anchor="middle" transform="rotate(0)" weight="400"><tspan id="SvgjsTspan1627" x="47" dy="16"><tspan id="SvgjsTspan1628">QNet</tspan></tspan></text></g></g><g id="SvgjsG1629" transform="translate(245.33530667355774,347.7360473929177)"><path id="SvgjsPath1630" fill="none" stroke="rgba(184,184,184,1)" stroke-width="2" d="M 0 0L 93.07692307692264 0L 93.07692307692264 28.84615384615398L 0 28.84615384615398Z"/><g id="SvgjsG1631"><text id="SvgjsText1632" width="74" y="4.973" fill="#b8b8b8" align="middle" anchor="middle" family="Arial" font-family="Arial" font-size="13" font-weight="400" opacity="1" size="13" text-anchor="middle" transform="rotate(0)" weight="400"><tspan id="SvgjsTspan1633" x="47" dy="16"><tspan id="SvgjsTspan1634">QNet_target</tspan></tspan></text></g></g><g id="SvgjsG1635" transform="matrix(6.123233995736766e-17,1,-1,6.123233995736766e-17,417.5790710449219,209.8076934814453)"><path id="SvgjsPath1636" fill="none" stroke="rgba(184,184,184,1)" stroke-width="2" d="M 0 10C 0 -3.3333333333333335 20 -3.3333333333333335 20 10C 20 23.333333333333332 0 23.333333333333332 0 10Z"/></g><g id="SvgjsG1639"><path id="SvgjsPath1640" fill="none" stroke="#b8b8b8" stroke-width="2" d="M407.5790804747214 229.80769985046624L407.5790804747214 238.3577361473673L407.5790804747214 238.3577361473673L407.5790804747214 246.90777244426835"/></g><g id="SvgjsG1641" transform="translate(346.99674433871064,206.76822075427378)"><path id="SvgjsPath1642" fill="none" stroke="none" d="M 0 0L 66.90474724651222 0L 66.90474724651222 39.893038734284005L 0 39.893038734284005Z"/><g id="SvgjsG1643"><text id="SvgjsText1644" width="67" y="10.647" fill="#b8b8b8" align="middle" anchor="start" family="Arial" font-family="Arial" font-size="12" font-weight="400" opacity="1" size="12" text-anchor="start" transform="rotate(0)" weight="400"><tspan id="SvgjsTspan1645" x="0" dy="15"><tspan id="SvgjsTspan1646">append()</tspan></tspan></text></g></g><g id="SvgjsG1647" transform="matrix(6.123233995736766e-17,1,-1,6.123233995736766e-17,419.353759765625,119.10906982421875)"><path id="SvgjsPath1648" fill="none" stroke="rgba(184,184,184,1)" stroke-width="2" d="M 0 10C 0 -3.3333333333333335 20 -3.3333333333333335 20 10C 20 23.333333333333332 0 23.333333333333332 0 10Z"/></g><g id="SvgjsG1651"><path id="SvgjsPath1652" fill="none" stroke="#b8b8b8" stroke-width="2" d="M409.35375360708974 139.10907145308312L409.35375360708974 147.65910774998414L409.35375360708974 147.65910774998414L409.35375360708974 156.2091440468852"/></g><g id="SvgjsG1653" transform="translate(303.46592008150526,112.72275044197326)"><path id="SvgjsPath1654" fill="none" stroke="none" d="M 0 0L 105.74932341016097 0L 105.74932341016097 32.772642022219884L 0 32.772642022219884Z"/><g id="SvgjsG1655"><text id="SvgjsText1656" width="106" y="7.086" fill="#b8b8b8" align="middle" anchor="start" family="Arial" font-family="Arial" font-size="12" font-weight="400" opacity="1" size="12" text-anchor="start" transform="rotate(0)" weight="400"><tspan id="SvgjsTspan1657" x="0" dy="15"><tspan id="SvgjsTspan1658">store_transition()</tspan></tspan></text></g></g><g id="SvgjsG1659"><path id="SvgjsPath1660" fill="none" stroke="#b8b8b8" stroke-width="2" marker-end="url(#SvgjsMarker1661)" d="M168.28000919544314 87.83860802010184L356.34058178658574 87.83860802010184L356.34058178658574 112.72275044197326"/></g><g id="SvgjsG1663"><path id="SvgjsPath1664" fill="none" stroke="#b8b8b8" stroke-width="2" marker-end="url(#SvgjsMarker1665)" d="M409.7850827836753 167.36409603882018L409.7850827836753 182.5986798647376L409.7850827836753 182.5986798647376L409.7850827836753 197.833263690655"/></g><g id="SvgjsG1667" transform="translate(43.208443094287304,357.45601002654877)"><path id="SvgjsPath1668" fill="#b8b8b8" fill-opacity="1" stroke="none" d="M 0 0L 43.30988722581128 0L 59.30988722581128 16L 59.30988722581128 38.83879212564483L 0 38.83879212564483L 0 0Z"/><path id="SvgjsPath1669" fill="#cdcdcd" fill-opacity="1" stroke="none" d="M 43.30988722581128 0L 43.30988722581128 16L 59.30988722581128 16Z"/><path id="SvgjsPath1670" fill="none" stroke="none" d="M 0 0L 43.30988722581128 0L 59.30988722581128 16L 59.30988722581128 38.83879212564483L 0 38.83879212564483L 0 0Z"/><g id="SvgjsG1671"><text id="SvgjsText1672" width="40" y="10.119" fill="#323232" align="middle" anchor="middle" family="Arial" font-family="Arial" font-size="12" font-weight="400" opacity="1" size="12" text-anchor="middle" transform="rotate(0)" weight="400"><tspan id="SvgjsTspan1673" x="30" dy="15"><tspan id="SvgjsTspan1674">Action</tspan></tspan></text></g></g><g id="SvgjsG1675" transform="matrix(-1.8369701987210297e-16,-1,1,-1.8369701987210297e-16,397.8152770996094,312.36297607421875)"><path id="SvgjsPath1676" fill="none" stroke="rgba(184,184,184,1)" stroke-width="2" d="M 0 10C 0 -3.3333333333333335 20 -3.3333333333333335 20 10C 20 23.333333333333332 0 23.333333333333332 0 10Z"/></g><g id="SvgjsG1679"><path id="SvgjsPath1680" fill="none" stroke="#b8b8b8" stroke-width="2" d="M407.81529206862797 292.36299020073136L407.81529206862797 283.81295390383025L407.81529206862797 283.81295390383025L407.81529206862797 275.26291760692925"/></g><g id="SvgjsG1681" transform="translate(347.0770275378585,281.8657253568185)"><path id="SvgjsPath1682" fill="none" stroke="none" d="M 0 0L 66.90474724651222 0L 66.90474724651222 39.893038734284005L 0 39.893038734284005Z"/><g id="SvgjsG1683"><text id="SvgjsText1684" width="67" y="10.647" fill="#b8b8b8" align="middle" anchor="start" family="Arial" font-family="Arial" font-size="12" font-weight="400" opacity="1" size="12" text-anchor="start" transform="rotate(0)" weight="400"><tspan id="SvgjsTspan1685" x="0" dy="15"><tspan id="SvgjsTspan1686">sample()</tspan></tspan></text></g></g><g id="SvgjsG1687" transform="translate(372.01996111145513,395.9242501380831)"><path id="SvgjsPath1688" fill="#b8b8b8" fill-opacity="1" stroke="rgba(184,184,184,1)" stroke-width="2" d="M 0 0L 56.29062102560465 0L 72.29062102560465 16L 72.29062102560465 20L 0 20L 0 0Z"/><path id="SvgjsPath1689" fill="#cdcdcd" fill-opacity="1" stroke="rgba(184,184,184,1)" stroke-width="2" d="M 56.29062102560465 0L 56.29062102560465 16L 72.29062102560465 16Z"/><path id="SvgjsPath1690" fill="none" stroke="rgba(184,184,184,1)" stroke-width="2" d="M 0 0L 56.29062102560465 0L 72.29062102560465 16L 72.29062102560465 20L 0 20L 0 0Z"/><g id="SvgjsG1691"><text id="SvgjsText1692" width="53" y=".7" fill="#323232" align="middle" anchor="start" family="Arial" font-family="Arial" font-size="12" font-weight="400" opacity="1" size="12" text-anchor="start" transform="rotate(0)" weight="400"><tspan id="SvgjsTspan1693" x="10" dy="15"><tspan id="SvgjsTspan1694">Reward</tspan></tspan></text></g></g><g id="SvgjsG1695" transform="translate(372.01996111145513,318.7912147087509)"><path id="SvgjsPath1696" fill="#b8b8b8" fill-opacity="1" stroke="none" d="M 0 0L 56.29062102560465 0L 72.29062102560465 16L 72.29062102560465 20L 0 20L 0 0Z"/><path id="SvgjsPath1697" fill="#cdcdcd" fill-opacity="1" stroke="none" d="M 56.29062102560465 0L 56.29062102560465 16L 72.29062102560465 16Z"/><path id="SvgjsPath1698" fill="none" stroke="none" d="M 0 0L 56.29062102560465 0L 72.29062102560465 16L 72.29062102560465 20L 0 20L 0 0Z"/><g id="SvgjsG1699"><text id="SvgjsText1700" width="53" y=".7" fill="#323232" align="middle" anchor="start" family="Arial" font-family="Arial" font-size="12" font-weight="400" opacity="1" size="12" text-anchor="start" transform="rotate(0)" weight="400"><tspan id="SvgjsTspan1701" x="10" dy="15"><tspan id="SvgjsTspan1702">State</tspan></tspan></text></g></g><g id="SvgjsG1703" transform="translate(372.01996111145513,344.5022265185283)"><path id="SvgjsPath1704" fill="#b8b8b8" fill-opacity="1" stroke="rgba(184,184,184,1)" stroke-width="2" d="M 0 0L 56.29062102560465 0L 72.29062102560465 16L 72.29062102560465 20L 0 20L 0 0Z"/><path id="SvgjsPath1705" fill="#cdcdcd" fill-opacity="1" stroke="rgba(184,184,184,1)" stroke-width="2" d="M 56.29062102560465 0L 56.29062102560465 16L 72.29062102560465 16Z"/><path id="SvgjsPath1706" fill="none" stroke="rgba(184,184,184,1)" stroke-width="2" d="M 0 0L 56.29062102560465 0L 72.29062102560465 16L 72.29062102560465 20L 0 20L 0 0Z"/><g id="SvgjsG1707"><text id="SvgjsText1708" width="53" y=".7" fill="#323232" align="middle" anchor="start" family="Arial" font-family="Arial" font-size="12" font-weight="400" opacity="1" size="12" text-anchor="start" transform="rotate(0)" weight="400"><tspan id="SvgjsTspan1709" x="10" dy="15"><tspan id="SvgjsTspan1710">Action</tspan></tspan></text></g></g><g id="SvgjsG1711" transform="translate(372.01996111145513,370.2132383283057)"><path id="SvgjsPath1712" fill="#b8b8b8" fill-opacity="1" stroke="none" d="M 0 0L 56.29062102560465 0L 72.29062102560465 16L 72.29062102560465 20L 0 20L 0 0Z"/><path id="SvgjsPath1713" fill="#cdcdcd" fill-opacity="1" stroke="none" d="M 56.29062102560465 0L 56.29062102560465 16L 72.29062102560465 16Z"/><path id="SvgjsPath1714" fill="none" stroke="none" d="M 0 0L 56.29062102560465 0L 72.29062102560465 16L 72.29062102560465 20L 0 20L 0 0Z"/><g id="SvgjsG1715"><text id="SvgjsText1716" width="53" y=".7" fill="#323232" align="middle" anchor="start" family="Arial" font-family="Arial" font-size="12" font-weight="400" opacity="1" size="12" text-anchor="start" transform="rotate(0)" weight="400"><tspan id="SvgjsTspan1717" x="10" dy="15"><tspan id="SvgjsTspan1718">N_State</tspan></tspan></text></g></g><g id="SvgjsG1719" transform="translate(372.01996111145513,421.6352619478605)"><path id="SvgjsPath1720" fill="#b8b8b8" fill-opacity="1" stroke="rgba(184,184,184,1)" stroke-width="2" d="M 0 0L 56.29062102560465 0L 72.29062102560465 16L 72.29062102560465 20L 0 20L 0 0Z"/><path id="SvgjsPath1721" fill="#cdcdcd" fill-opacity="1" stroke="rgba(184,184,184,1)" stroke-width="2" d="M 56.29062102560465 0L 56.29062102560465 16L 72.29062102560465 16Z"/><path id="SvgjsPath1722" fill="none" stroke="rgba(184,184,184,1)" stroke-width="2" d="M 0 0L 56.29062102560465 0L 72.29062102560465 16L 72.29062102560465 20L 0 20L 0 0Z"/><g id="SvgjsG1723"><text id="SvgjsText1724" width="53" y=".7" fill="#323232" align="middle" anchor="start" family="Arial" font-family="Arial" font-size="12" font-weight="400" opacity="1" size="12" text-anchor="start" transform="rotate(0)" weight="400"><tspan id="SvgjsTspan1725" x="10" dy="15"><tspan id="SvgjsTspan1726">Terminal</tspan></tspan></text></g></g><g id="SvgjsG1727"><path id="SvgjsPath1728" fill="none" stroke="#b8b8b8" stroke-width="2" marker-end="url(#SvgjsMarker1729)" d="M372.01996111145513 380.2132383283057L338.4122297504806 362.1591243159947"/></g><g id="SvgjsG1731"><path id="SvgjsPath1732" fill="none" stroke="#b8b8b8" stroke-width="2" marker-end="url(#SvgjsMarker1733)" d="M372.01996111145513 328.7912147087509L286.7290071391684 300.71894289383584"/></g><g id="SvgjsG1735" transform="translate(191.2183585432959,452.3245404128834)"><path id="SvgjsPath1736" fill="none" stroke="rgba(184,184,184,1)" stroke-dasharray="3 4" stroke-width="2" d="M 0 0L 93.07692307692264 0L 93.07692307692264 28.84615384615398L 0 28.84615384615398Z"/><g id="SvgjsG1737"><text id="SvgjsText1738" width="74" y="4.973" fill="#b8b8b8" align="middle" anchor="middle" family="Arial" font-family="Arial" font-size="13" font-weight="400" opacity="1" size="13" text-anchor="middle" transform="rotate(0)" weight="400"><tspan id="SvgjsTspan1739" x="47" dy="16"><tspan id="SvgjsTspan1740">reward_func</tspan></tspan></text></g></g><g id="SvgjsG1741"><path id="SvgjsPath1742" fill="none" stroke="#b8b8b8" stroke-width="2" marker-end="url(#SvgjsMarker1743)" d="M240.1905456007072 315.14201981691286L237.75682008175772 452.3245404128834"/></g><g id="SvgjsG1745"><path id="SvgjsPath1746" fill="none" stroke="#b8b8b8" stroke-width="2" marker-end="url(#SvgjsMarker1747)" d="M372.01996111145513 405.9242501380831L284.2952816202188 466.7476173359604"/></g><g id="SvgjsG1749"><path id="SvgjsPath1750" fill="none" stroke="#b8b8b8" stroke-width="2" marker-end="url(#SvgjsMarker1751)" d="M372.01996111145513 431.6352619478605L284.2952816202188 466.7476173359604"/></g><g id="SvgjsG1753"><path id="SvgjsPath1754" fill="none" stroke="#b8b8b8" stroke-width="2" marker-end="url(#SvgjsMarker1755)" d="M291.87376821201906 376.5822012390717L237.7568200817575 452.3245404128834"/></g><g id="SvgjsG1757"><path id="SvgjsPath1758" fill="none" stroke="#b8b8b8" stroke-width="2" marker-end="url(#SvgjsMarker1759)" d="M372.01996111145513 354.5022265185283L237.7568200817575 452.3245404128834"/></g><g id="SvgjsG1761"><path id="SvgjsPath1762" fill="none" stroke="#b8b8b8" stroke-dasharray="8 5" stroke-width="2" marker-end="url(#SvgjsMarker1763)" d="M240.1905456007073 315.14201981691286L291.87376821201906 347.7360473929177"/></g><g id="SvgjsG1765" transform="matrix(-1,1.2246467991473532e-16,-1.2246467991473532e-16,-1,504.8268737792969,319.3003845214844)"><path id="SvgjsPath1766" fill="none" stroke="rgba(184,184,184,1)" stroke-width="2" d="M 0 10C 0 -3.3333333333333335 20 -3.3333333333333335 20 10C 20 23.333333333333332 0 23.333333333333332 0 10Z"/></g><g id="SvgjsG1769"><path id="SvgjsPath1770" fill="none" stroke="#b8b8b8" stroke-width="2" d="M484.82686682706833 309.3003936365166L476.2768305301671 309.3003936365166L476.2768305301671 309.3003936365166L467.7267942332661 309.3003936365166"/></g><g id="SvgjsG1771" transform="translate(515.0043816199661,290.4293948865115)"><path id="SvgjsPath1772" fill="none" stroke="none" d="M 0 0L 62.30769230769283 0L 62.30769230769283 37.741997500010484L 0 37.741997500010484Z"/><g id="SvgjsG1773"><text id="SvgjsText1774" width="63" y="9.571" fill="#b8b8b8" align="middle" anchor="start" family="Arial" font-family="Arial" font-size="12" font-weight="400" opacity="1" size="12" text-anchor="start" transform="rotate(0)" weight="400"><tspan id="SvgjsTspan1775" x="0" dy="15"><tspan id="SvgjsTspan1776">update()</tspan></tspan></text></g></g></svg>