<svg xmlns="http://www.w3.org/2000/svg" xmlns:svgjs="http://svgjs.com/svgjs" xmlns:xlink="http://www.w3.org/1999/xlink" id="SvgjsSvg1129" width="517.003" height="424" version="1.1"><defs id="SvgjsDefs1130"><marker id="SvgjsMarker1196" stroke-dasharray="0 0" markerHeight="12" markerUnits="userSpaceOnUse" markerWidth="16" orient="auto" refX="16" refY="6" viewBox="0 0 16 12"><path id="SvgjsPath1197" fill="#8a8a8a" stroke="#8a8a8a" stroke-width="2" d="M0,2 L14,6 L0,11 L0,2"/></marker><marker id="SvgjsMarker1200" stroke-dasharray="0 0" markerHeight="12" markerUnits="userSpaceOnUse" markerWidth="16" orient="auto" refX="16" refY="6" viewBox="0 0 16 12"><path id="SvgjsPath1201" fill="#8a8a8a" stroke="#8a8a8a" stroke-width="2" d="M0,2 L14,6 L0,11 L0,2"/></marker><marker id="SvgjsMarker1204" stroke-dasharray="0 0" markerHeight="12" markerUnits="userSpaceOnUse" markerWidth="16" orient="auto" refX="0" refY="6" viewBox="0 0 16 12"><path id="SvgjsPath1205" fill="#8a8a8a" stroke="#8a8a8a" stroke-width="2" d="M15,1.5 L2,6 L15,10.5"/></marker><marker id="SvgjsMarker1206" stroke-dasharray="0 0" markerHeight="12" markerUnits="userSpaceOnUse" markerWidth="16" orient="auto" refX="16" refY="6" viewBox="0 0 16 12"><path id="SvgjsPath1207" fill="#8a8a8a" stroke="#8a8a8a" stroke-width="2" d="M0,2 L14,6 L0,11 L0,2"/></marker><marker id="SvgjsMarker1210" stroke-dasharray="0 0" markerHeight="12" markerUnits="userSpaceOnUse" markerWidth="16" orient="auto" refX="16" refY="6" viewBox="0 0 16 12"><path id="SvgjsPath1211" fill="#8a8a8a" stroke="#8a8a8a" stroke-width="2" d="M0,2 L14,6 L0,11 L0,2"/></marker><marker id="SvgjsMarker1214" stroke-dasharray="0 0" markerHeight="12" markerUnits="userSpaceOnUse" markerWidth="16" orient="auto" refX="16" refY="6" viewBox="0 0 16 12"><path id="SvgjsPath1215" fill="#8a8a8a" stroke="#8a8a8a" stroke-width="2" d="M0,2 L14,6 L0,11 L0,2"/></marker><marker id="SvgjsMarker1218" stroke-dasharray="0 0" markerHeight="12" markerUnits="userSpaceOnUse" markerWidth="16" orient="auto" refX="16" refY="6" viewBox="0 0 16 12"><path id="SvgjsPath1219" fill="#8a8a8a" stroke="#8a8a8a" stroke-width="2" d="M0,2 L14,6 L0,11 L0,2"/></marker><marker id="SvgjsMarker1222" stroke-dasharray="0 0" markerHeight="12" markerUnits="userSpaceOnUse" markerWidth="16" orient="auto" refX="0" refY="6" viewBox="0 0 16 12"><path id="SvgjsPath1223" fill="#8a8a8a" stroke="#8a8a8a" stroke-width="2" d="M15,1.5 L2,6 L15,10.5"/></marker><marker id="SvgjsMarker1224" stroke-dasharray="0 0" markerHeight="12" markerUnits="userSpaceOnUse" markerWidth="16" orient="auto" refX="16" refY="6" viewBox="0 0 16 12"><path id="SvgjsPath1225" fill="#8a8a8a" stroke="#8a8a8a" stroke-width="2" d="M0,2 L14,6 L0,11 L0,2"/></marker><marker id="SvgjsMarker1228" stroke-dasharray="0 0" markerHeight="12" markerUnits="userSpaceOnUse" markerWidth="16" orient="auto" refX="16" refY="6" viewBox="0 0 16 12"><path id="SvgjsPath1229" fill="#8a8a8a" stroke="#8a8a8a" stroke-width="2" d="M0,2 L14,6 L0,11 L0,2"/></marker><marker id="SvgjsMarker1234" stroke-dasharray="0 0" markerHeight="12" markerUnits="userSpaceOnUse" markerWidth="16" orient="auto" refX="16" refY="6" viewBox="0 0 16 12"><path id="SvgjsPath1235" fill="#8a8a8a" stroke="#8a8a8a" stroke-width="2" d="M0,2 L14,6 L0,11 L0,2"/></marker><marker id="SvgjsMarker1238" stroke-dasharray="0 0" markerHeight="12" markerUnits="userSpaceOnUse" markerWidth="16" orient="auto" refX="16" refY="6" viewBox="0 0 16 12"><path id="SvgjsPath1239" fill="#8a8a8a" stroke="#8a8a8a" stroke-width="2" d="M0,2 L14,6 L0,11 L0,2"/></marker></defs><rect id="SvgjsRect1131" width="517.003" height="424" fill="#2f2f2f"/><g id="SvgjsG1132" transform="translate(107.01138305664062,90.00569152832031)"><path id="SvgjsPath1133" fill="none" stroke="rgba(138,138,138,1)" stroke-width="2" d="M 46.199999999999996 216.29999999999998C -38.5 154.5 15.4 108.14999999999999 34.65 92.7C 26.950000000000003 15.450000000000001 123.2 0 161.7 30.900000000000002C 192.5 -15.450000000000001 288.75 0 288.75 46.35C 365.75 30.900000000000002 396.55 92.7 365.75 169.95000000000002C 392.7 231.75 365.75 309 277.2 278.1C 257.95 318.27 180.95 318.27 161.7 278.1C 123.2 309 46.199999999999996 293.55 46.199999999999996 216.29999999999998Z"/></g><g id="SvgjsG1136" transform="translate(25.011383056640625,25.005691528320312)"><path id="SvgjsPath1137" fill="#2f2f2f" fill-opacity="1" stroke="rgba(138,138,138,1)" stroke-width="2" d="M 0 0L 170 0L 170 121L 0 121Z"/><g id="SvgjsG1138"><text id="SvgjsText1139" width="150" y="12.05" fill="#fff" align="middle" anchor="start" family="Arial" font-family="Arial" font-size="13" font-weight="400" opacity="1" size="13" text-anchor="start" transform="rotate(0)" weight="400"><tspan id="SvgjsTspan1142" x="10" dy="16"><tspan id="SvgjsTspan1143">previous_state: 1</tspan></tspan><tspan id="SvgjsTspan1144" x="10" dy="16"><tspan id="SvgjsTspan1145">next_state: 2</tspan></tspan><tspan id="SvgjsTspan1146" x="10" dy="16"><tspan id="SvgjsTspan1147">action: 0</tspan></tspan><tspan id="SvgjsTspan1148" x="10" dy="16"><tspan id="SvgjsTspan1149">reward: 1.5</tspan></tspan><tspan id="SvgjsTspan1150" x="10" dy="16"><tspan id="SvgjsTspan1151">next_is_terminal: False</tspan></tspan></text></g></g><g id="SvgjsG1152" transform="translate(132.01138305664062,251.0056915283203)"><path id="SvgjsPath1153" fill="#9cf" fill-opacity="1" stroke="rgba(255,255,255,1)" stroke-width="2" d="M 0 15C 0 -5 30 -5 30 15C 30 35 0 35 0 15Z"/><g id="SvgjsG1154"><text id="SvgjsText1155" width="10" y="5.55" fill="#323232" align="middle" anchor="middle" family="Arial" font-family="Arial" font-size="13" font-weight="700" opacity="1" size="13" text-anchor="middle" transform="rotate(0)" weight="700"><tspan id="SvgjsTspan1156" x="15" dy="16"><tspan id="SvgjsTspan1157">1</tspan></tspan></text></g></g><g id="SvgjsG1158" transform="translate(195.01138305664062,166.0056915283203)"><path id="SvgjsPath1159" fill="#6c0" fill-opacity="1" stroke="rgba(255,255,255,1)" stroke-width="2" d="M 0 15C 0 -5 30 -5 30 15C 30 35 0 35 0 15Z"/><g id="SvgjsG1160"><text id="SvgjsText1161" width="10" y="5.55" fill="#323232" align="middle" anchor="middle" family="Arial" font-family="Arial" font-size="13" font-weight="700" opacity="1" size="13" text-anchor="middle" transform="rotate(0)" weight="700"><tspan id="SvgjsTspan1162" x="15" dy="16"><tspan id="SvgjsTspan1163">2</tspan></tspan></text></g></g><g id="SvgjsG1164" transform="translate(320.0113830566406,326.0056915283203)"><path id="SvgjsPath1165" fill="red" fill-opacity="1" stroke="rgba(255,255,255,1)" stroke-width="2" d="M 0 15C 0 -5 30 -5 30 15C 30 35 0 35 0 15Z"/><g id="SvgjsG1166"><text id="SvgjsText1167" width="10" y="5.55" fill="#323232" align="middle" anchor="middle" family="Arial" font-family="Arial" font-size="13" font-weight="700" opacity="1" size="13" text-anchor="middle" transform="rotate(0)" weight="700"><tspan id="SvgjsTspan1168" x="15" dy="16"><tspan id="SvgjsTspan1169">5</tspan></tspan></text></g></g><g id="SvgjsG1170" transform="translate(320.0113830566406,113.00569152832031)"><path id="SvgjsPath1171" fill="#6c0" fill-opacity="1" stroke="rgba(255,255,255,1)" stroke-width="2" d="M 0 15C 0 -5 30 -5 30 15C 30 35 0 35 0 15Z"/><g id="SvgjsG1172"><text id="SvgjsText1173" width="10" y="5.55" fill="#323232" align="middle" anchor="middle" family="Arial" font-family="Arial" font-size="13" font-weight="700" opacity="1" size="13" text-anchor="middle" transform="rotate(0)" weight="700"><tspan id="SvgjsTspan1174" x="15" dy="16"><tspan id="SvgjsTspan1175">3</tspan></tspan></text></g></g><g id="SvgjsG1176" transform="translate(320.0113830566406,247.0056915283203)"><path id="SvgjsPath1177" fill="#6c0" fill-opacity="1" stroke="rgba(255,255,255,1)" stroke-width="2" d="M 0 15C 0 -5 30 -5 30 15C 30 35 0 35 0 15Z"/><g id="SvgjsG1178"><text id="SvgjsText1179" width="10" y="5.55" fill="#323232" align="middle" anchor="middle" family="Arial" font-family="Arial" font-size="13" font-weight="700" opacity="1" size="13" text-anchor="middle" transform="rotate(0)" weight="700"><tspan id="SvgjsTspan1180" x="15" dy="16"><tspan id="SvgjsTspan1181">4</tspan></tspan></text></g></g><g id="SvgjsG1182" transform="translate(434.0113830566406,166.0056915283203)"><path id="SvgjsPath1183" fill="#6c0" fill-opacity="1" stroke="rgba(255,255,255,1)" stroke-width="2" d="M 0 15C 0 -5 30 -5 30 15C 30 35 0 35 0 15Z"/><g id="SvgjsG1184"><text id="SvgjsText1185" width="10" y="5.55" fill="#323232" align="middle" anchor="middle" family="Arial" font-family="Arial" font-size="13" font-weight="700" opacity="1" size="13" text-anchor="middle" transform="rotate(0)" weight="700"><tspan id="SvgjsTspan1186" x="15" dy="16"><tspan id="SvgjsTspan1187">6</tspan></tspan></text></g></g><g id="SvgjsG1188" transform="translate(434.0113830566406,247.0056915283203)"><path id="SvgjsPath1189" fill="#6c0" fill-opacity="1" stroke="rgba(255,255,255,1)" stroke-width="2" d="M 0 15C 0 -5 30 -5 30 15C 30 35 0 35 0 15Z"/><g id="SvgjsG1190"><text id="SvgjsText1191" width="10" y="5.55" fill="#323232" align="middle" anchor="middle" family="Arial" font-family="Arial" font-size="13" font-weight="700" opacity="1" size="13" text-anchor="middle" transform="rotate(0)" weight="700"><tspan id="SvgjsTspan1192" x="15" dy="16"><tspan id="SvgjsTspan1193">7</tspan></tspan></text></g></g><g id="SvgjsG1194"><path id="SvgjsPath1195" fill="none" stroke="#8a8a8a" stroke-width="2" marker-end="url(#SvgjsMarker1196)" d="M162.01138305664062 266.0056915283203L195.01138305664062 181.0056915283203"/></g><g id="SvgjsG1198"><path id="SvgjsPath1199" fill="none" stroke="#8a8a8a" stroke-width="2" marker-end="url(#SvgjsMarker1200)" d="M225.01138305664062 181.0056915283203L320.0113830566406 128.0056915283203"/></g><g id="SvgjsG1202"><path id="SvgjsPath1203" fill="none" stroke="#8a8a8a" stroke-width="2" marker-end="url(#SvgjsMarker1206)" marker-start="url(#SvgjsMarker1204)" d="M335.0113830566406 143.0056915283203L335.0113830566406 247.0056915283203"/></g><g id="SvgjsG1208"><path id="SvgjsPath1209" fill="none" stroke="#8a8a8a" stroke-width="2" marker-end="url(#SvgjsMarker1210)" d="M350.0113830566406 262.0056915283203L434.0113830566406 181.0056915283203"/></g><g id="SvgjsG1212"><path id="SvgjsPath1213" fill="none" stroke="#8a8a8a" stroke-width="2" marker-end="url(#SvgjsMarker1214)" d="M320.0113830566406 262.0056915283203L210.01138305664062 196.0056915283203"/></g><g id="SvgjsG1216"><path id="SvgjsPath1217" fill="none" stroke="#8a8a8a" stroke-width="2" marker-end="url(#SvgjsMarker1218)" d="M449.0113830566406 196.0056915283203L449.0113830566406 247.0056915283203"/></g><g id="SvgjsG1220"><path id="SvgjsPath1221" fill="none" stroke="#8a8a8a" stroke-width="2" marker-end="url(#SvgjsMarker1224)" marker-start="url(#SvgjsMarker1222)" d="M434.0113830566406 262.0056915283203L350.0113830566406 262.0056915283203"/></g><g id="SvgjsG1226"><path id="SvgjsPath1227" fill="none" stroke="#8a8a8a" stroke-width="2" marker-end="url(#SvgjsMarker1228)" d="M449.0113830566406 166.0056915283203L350.0113830566406 128.0056915283203"/></g><g id="SvgjsG1230"><path id="SvgjsPath1231" fill="none" stroke="#8a8a8a" stroke-dasharray="3 3" stroke-width="2" d="M116.51138305664062 147.0056915283203L179.01138305664062 221.0056915283203"/></g><g id="SvgjsG1232"><path id="SvgjsPath1233" fill="none" stroke="#8a8a8a" stroke-width="2" marker-end="url(#SvgjsMarker1234)" d="M162.01138305664062 266.0056915283203L320.0113830566406 262.0056915283203"/></g><g id="SvgjsG1236"><path id="SvgjsPath1237" fill="none" stroke="#8a8a8a" stroke-width="2" marker-end="url(#SvgjsMarker1238)" d="M335.0113830566406 277.0056915283203L335.0113830566406 326.0056915283203"/></g><g id="SvgjsG1240" transform="translate(25.011383056640625,25.005691528320312)"><path id="SvgjsPath1241" fill="none" stroke="rgba(138,138,138,1)" stroke-width="2" d="M 0 0L 170 0L 170 24L 0 24Z"/><g id="SvgjsG1242"><text id="SvgjsText1243" width="150" y="1.4" fill="#fff" align="middle" anchor="middle" family="Arial" font-family="Arial" font-size="14" font-weight="700" opacity="1" size="14" text-anchor="middle" transform="rotate(0)" weight="700"><tspan id="SvgjsTspan1244" x="85" dy="17"><tspan id="SvgjsTspan1245">Transition (1-&gt;2)</tspan></tspan></text></g></g><g id="SvgjsG1246" transform="translate(147.01138305664062,294.0056915283203)"><path id="SvgjsPath1247" fill="none" stroke="none" d="M 0 0L 189 0L 189 52L 0 52Z"/><g id="SvgjsG1248"><text id="SvgjsText1249" width="189" y="14.75" fill="#fff" align="middle" anchor="middle" family="Arial" font-family="Arial" font-size="15" font-weight="400" opacity="1" size="15" text-anchor="middle" transform="rotate(0)" weight="400"><tspan id="SvgjsTspan1250" x="94.5" dy="18"><tspan id="SvgjsTspan1251">State space</tspan></tspan></text></g></g></svg>